<svg width="44" height="40" viewBox="0 0 44 40" fill="none" xmlns="http://www.w3.org/2000/svg">
<path d="M33 10.375H33.02M12 2.5H32C37.5228 2.5 42 6.41751 42 11.25V28.75C42 33.5825 37.5228 37.5 32 37.5H12C6.47715 37.5 2 33.5825 2 28.75V11.25C2 6.41751 6.47715 2.5 12 2.5ZM30 18.8975C30.2468 20.3539 29.9625 21.8414 29.1875 23.1483C28.4125 24.4552 27.1863 25.515 25.6833 26.1769C24.1802 26.8389 22.4769 27.0693 20.8156 26.8354C19.1543 26.6015 17.6195 25.9151 16.4297 24.874C15.2398 23.8329 14.4555 22.49 14.1881 21.0364C13.9208 19.5827 14.1841 18.0923 14.9407 16.7772C15.6972 15.462 16.9084 14.389 18.402 13.7109C19.8956 13.0328 21.5955 12.784 23.26 13C24.9578 13.2203 26.5297 13.9126 27.7434 14.9745C28.9571 16.0365 29.7482 17.4119 30 18.8975Z" stroke="#1E1E1E" stroke-width="4" stroke-linecap="round" stroke-linejoin="round"/>
</svg>
