<svg width="35" height="55" viewBox="0 0 35 55" fill="none" xmlns="http://www.w3.org/2000/svg">
<path d="M18.5629 46.134C18.5629 48.5033 22.4601 52.4815 24.41 54.1762C26.7384 55.6331 26.7356 54.7085 25.0618 53.3301C19.9908 49.1532 19.4826 45.5699 19.861 44.2995C24.8989 41.3367 35.6209 30.3317 34.9718 29.6278C34.4526 29.0637 29.7738 32.4949 27.4979 34.2829C33.2179 28.865 33.9968 26.8539 33.6709 26.5228C30.746 25.3946 19.212 40.6328 18.5629 40.0662C18.0409 39.6149 18.3447 36.8704 18.5629 35.5534C19.6014 36.1175 29.0695 26.0053 33.6709 20.8793C33.6709 19.187 31.6132 20.7395 30.5858 21.7279C34.2233 17.4382 34.1598 16.5528 33.6709 16.6485C31.721 16.6485 22.5705 25.7723 18.237 30.3317L18.5629 25.6766C25.1917 21.1613 31.3978 13.8255 33.6709 10.7229C33.1517 10.046 31.3978 11.005 30.5858 11.5691C33.3146 9.65112 33.7786 7.94899 33.6709 7.33583C32.5026 5.86915 23.1119 15.7533 18.5629 20.8793V18.0587C25.1917 9.70753 28.4729 2.54093 29.2849 0C26.8157 0.112821 21.1067 10.2986 18.5629 15.378V4.6551C18.5629 2.39868 17.6956 2.77393 17.262 3.24483V9.1704C8.81314 -0.421852 7.35205 0.188853 7.67796 1.69232C5.85782 0.225643 6.05116 1.08161 6.37707 1.69232C8.32703 8.68968 14.4476 16.1776 17.262 19.0472V23.7023C13.5251 17.166 6.11745 5.10638 6.37707 9.1704C6.6367 13.2344 13.7433 22.8095 17.262 27.0869V30.756C12.6053 25.3946 3.0627 15.0665 2.15401 16.6485C1.24256 18.228 11.8458 28.3108 17.262 33.1547V36.5393C6.70299 25.3946 3.94101 22.9959 2.15401 22.9959C0.367016 22.9959 4.91599 27.0869 4.59008 27.0869C4.33045 27.0869 2.85832 26.7116 2.15401 26.5228C2.07115 28.3206 6.15888 32.6936 10.451 36.7257C3.64824 30.859 -2.89212 25.7232 1.34199 31.3201C8.48998 40.7726 18.5629 43.1713 18.5629 46.134Z" fill="#7FA95B"/>
</svg>
