<svg width="78" height="27" viewBox="0 0 78 27" fill="none" xmlns="http://www.w3.org/2000/svg">
<path d="M2.07469 13.4605C2.07469 12.8824 2.07469 12.3019 2.07469 11.7215C2.07469 11.1434 2.07469 10.5629 2.07469 9.98249C2.07469 9.92237 2.07469 9.86224 2.07469 9.80674C2.07469 9.75124 2.06688 9.69343 2.05386 9.63099C2.04605 9.55699 2.0174 9.47837 1.97053 9.39049C1.92105 9.30493 1.81949 9.24249 1.66844 9.20549C1.62678 9.18699 1.5799 9.17312 1.53303 9.15924C1.48355 9.14074 1.43928 9.12918 1.39761 9.12224C1.34813 9.09912 1.31949 9.07599 1.31428 9.05749C1.24396 9.03437 1.21271 8.99274 1.22053 8.93724C1.22574 8.87712 1.26219 8.82624 1.32469 8.78924C1.35855 8.77074 1.3898 8.75918 1.41844 8.75224C1.44449 8.74068 1.47313 8.73374 1.50178 8.73374C1.59032 8.72218 1.67365 8.71524 1.75178 8.71524C1.83511 8.71524 1.91844 8.71524 2.00178 8.71524C2.3898 8.71524 2.77782 8.71524 3.16844 8.71524C3.55647 8.71524 3.94969 8.71524 4.34553 8.71524C4.72053 8.71524 5.09553 8.71524 5.47053 8.71524C5.85074 8.71524 6.22574 8.71524 6.59553 8.71524C6.69188 8.71524 6.78563 8.71524 6.87678 8.71524C6.97313 8.71524 7.06949 8.72449 7.16844 8.74299C7.23615 8.75687 7.30386 8.76612 7.36636 8.77074C7.42886 8.77074 7.49397 8.77999 7.56428 8.79849C7.61115 8.81237 7.65803 8.82624 7.69969 8.84474C7.74657 8.85862 7.79344 8.87249 7.83511 8.89099C7.96532 8.91643 8.08772 8.95574 8.19969 9.01124C8.30907 9.06212 8.42105 9.11993 8.53303 9.18699C8.5799 9.23093 8.63199 9.26793 8.68928 9.29799C8.74397 9.33037 8.79865 9.36737 8.85594 9.40899C8.88199 9.42749 8.93147 9.46449 9.00178 9.51999C9.11897 9.61249 9.23094 9.71424 9.33511 9.82524C9.44449 9.93624 9.54865 10.0519 9.64761 10.1675C9.66844 10.186 9.68407 10.2114 9.69969 10.2415C9.71272 10.2669 9.72574 10.2947 9.74136 10.3247C9.76219 10.3617 9.77782 10.3987 9.79344 10.4357C9.81428 10.4727 9.8273 10.5167 9.83511 10.5652C9.86897 10.6022 9.88719 10.6554 9.88719 10.7225C9.92886 10.926 9.9523 11.1295 9.96011 11.333C9.96532 11.5319 9.9549 11.7354 9.92886 11.9435C9.90803 12.1054 9.87157 12.2441 9.82469 12.3597C9.77522 12.4337 9.73355 12.5147 9.69969 12.6002C9.66324 12.6812 9.61897 12.7575 9.56428 12.8315C9.50699 12.9379 9.43928 13.035 9.35594 13.1275C9.27782 13.22 9.19449 13.3079 9.10594 13.3865C8.96532 13.516 8.81949 13.6339 8.66844 13.738C8.52261 13.8444 8.36115 13.9392 8.18928 14.0247C8.10594 14.0617 8.0148 14.0964 7.91844 14.1265C7.81949 14.1519 7.72574 14.182 7.63719 14.219C7.60855 14.2329 7.5773 14.2444 7.54344 14.256C7.50699 14.2629 7.48094 14.2652 7.46011 14.2652C7.36115 14.2791 7.2648 14.293 7.16844 14.3115C7.06949 14.33 6.97574 14.3531 6.88719 14.3762C6.83772 14.3901 6.78824 14.3994 6.74136 14.404C6.69188 14.4109 6.6424 14.4179 6.59553 14.4225C6.49657 14.4364 6.40022 14.4479 6.30386 14.4595C6.2049 14.4664 6.10855 14.4734 6.01219 14.478C5.94969 14.4919 5.88199 14.5011 5.81428 14.5057C5.75178 14.5057 5.68928 14.515 5.62678 14.5335C5.5148 14.5659 5.38199 14.5797 5.23094 14.5797C5.16063 14.5936 5.08511 14.5982 5.00178 14.5982C4.91844 14.5982 4.83511 14.6029 4.75178 14.6075C4.71011 14.6214 4.65803 14.6514 4.59553 14.7C4.53824 14.7439 4.50438 14.7902 4.49136 14.8387C4.49136 14.8526 4.48615 14.8642 4.48094 14.8757C4.48094 14.8896 4.48094 14.9035 4.48094 14.922C4.48094 14.9659 4.48094 15.0122 4.48094 15.0607C4.48094 15.1047 4.48094 15.1509 4.48094 15.1995C4.46532 15.3799 4.46011 15.5649 4.46011 15.7545C4.46011 15.9395 4.4523 16.1291 4.43928 16.3187C4.41844 16.7211 4.41844 17.1235 4.43928 17.5305C4.4523 17.5744 4.46272 17.6184 4.47053 17.66C4.47574 17.7039 4.48355 17.7479 4.49136 17.7895C4.52522 17.8959 4.60074 17.9884 4.72053 18.067C4.81688 18.1179 4.91844 18.1572 5.02261 18.1872C5.13199 18.2127 5.24136 18.252 5.34553 18.3075C5.37938 18.3214 5.40282 18.3584 5.41844 18.4185C5.43928 18.4809 5.43407 18.5202 5.40803 18.5387C5.36636 18.5572 5.32469 18.5804 5.28303 18.6035C5.24136 18.6289 5.19188 18.6405 5.13719 18.6405C5.12938 18.6405 5.11636 18.6405 5.09553 18.6405C5.0799 18.6405 5.06428 18.6405 5.04344 18.6405C5.02782 18.6405 5.0148 18.6405 5.00178 18.6405C4.98615 18.6405 4.97053 18.6405 4.94969 18.6405C4.3299 18.6474 3.71272 18.6497 3.09553 18.6497C2.47574 18.6497 1.85594 18.6567 1.23094 18.6682C1.18928 18.6682 1.1424 18.6659 1.09553 18.659C1.04605 18.6544 0.993965 18.6474 0.939278 18.6405C0.876778 18.622 0.824694 18.5919 0.783028 18.548C0.783028 18.474 0.796048 18.4231 0.824694 18.3907C0.845528 18.3537 0.866361 18.3329 0.887194 18.326C1.03303 18.2774 1.17365 18.2335 1.31428 18.1965C1.4523 18.1595 1.58772 18.1179 1.72053 18.067C1.74136 18.0485 1.76219 18.03 1.78303 18.0115C1.80907 17.9884 1.83511 17.9652 1.85594 17.9467C1.88199 17.9097 1.89761 17.882 1.89761 17.8635C1.91844 17.808 1.93407 17.7571 1.94969 17.7062C1.96272 17.6507 1.97574 17.5929 1.99136 17.5305C2.02522 17.4449 2.04344 17.3617 2.04344 17.2807C2.04865 17.1142 2.05386 16.9547 2.05386 16.7997C2.05386 16.6402 2.05386 16.4806 2.05386 16.3187C2.06688 15.8377 2.07469 15.3614 2.07469 14.885C2.07469 14.404 2.07469 13.9299 2.07469 13.4605ZM4.46011 11.7585C4.46011 11.7585 4.46272 11.7585 4.47053 11.7585C4.47574 11.7585 4.48094 11.7585 4.48094 11.7585C4.48094 11.9874 4.48094 12.2164 4.48094 12.443C4.48094 12.6719 4.48094 12.9055 4.48094 13.146C4.48094 13.2454 4.48094 13.3449 4.48094 13.442C4.48094 13.5414 4.48355 13.6432 4.49136 13.7472C4.49136 13.7611 4.49397 13.7727 4.50178 13.7842C4.50699 13.7981 4.51219 13.8166 4.51219 13.8397C4.53303 13.8837 4.56949 13.9276 4.62678 13.9692C4.68928 14.0132 4.74657 14.034 4.80386 14.034C4.85074 14.034 4.90022 14.034 4.94969 14.034C4.99657 14.034 5.04344 14.0317 5.08511 14.0247C5.17365 14.0132 5.25699 13.997 5.33511 13.9785C5.41063 13.96 5.48355 13.9461 5.55386 13.9322C5.66324 13.9137 5.75699 13.886 5.83511 13.849C5.91844 13.8004 6.00438 13.7565 6.09553 13.7195C6.19188 13.6825 6.27522 13.6409 6.34553 13.59C6.43407 13.5414 6.51219 13.4859 6.57469 13.4235C6.65803 13.3379 6.73615 13.2477 6.81428 13.1552C6.8898 13.0581 6.96011 12.9587 7.02261 12.8592C7.05647 12.7922 7.09553 12.7297 7.13719 12.6742C7.18407 12.6187 7.23094 12.5586 7.27261 12.4892C7.29344 12.4592 7.30647 12.4314 7.31428 12.406C7.3273 12.3829 7.33772 12.3574 7.34553 12.332C7.37157 12.2534 7.40022 12.1817 7.42886 12.1192C7.46272 12.0522 7.49136 11.9851 7.51219 11.9157C7.52522 11.8857 7.53303 11.8579 7.53303 11.8325C7.53303 11.8024 7.53563 11.7724 7.54344 11.74C7.5773 11.5134 7.5773 11.2844 7.54344 11.0555C7.53563 11.0254 7.53303 10.9977 7.53303 10.9722C7.53303 10.9422 7.5174 10.9121 7.49136 10.8797C7.47053 10.8127 7.44449 10.7479 7.41844 10.6855C7.39761 10.6184 7.37157 10.5514 7.34553 10.482C7.33772 10.4519 7.32469 10.4242 7.30386 10.3987C7.28824 10.3756 7.27261 10.3502 7.25178 10.3247C7.17365 10.1837 7.06688 10.038 6.92886 9.88999C6.90803 9.86687 6.86636 9.82293 6.80386 9.76049C6.74657 9.72349 6.69188 9.69343 6.63719 9.66799C6.58772 9.63793 6.52782 9.61249 6.46011 9.59399C6.41844 9.57549 6.37157 9.56162 6.32469 9.54774C6.27522 9.52924 6.23094 9.51537 6.18928 9.50149C6.11115 9.47837 6.03303 9.46218 5.94969 9.45524C5.87157 9.44368 5.78824 9.43212 5.69969 9.41824C5.57469 9.41824 5.44449 9.41824 5.31428 9.41824C5.18928 9.41824 5.05907 9.42518 4.92886 9.43674C4.78824 9.45524 4.68147 9.51074 4.60594 9.60324C4.54865 9.69112 4.51219 9.80212 4.49136 9.93624C4.49136 9.97324 4.48615 10.0149 4.48094 10.0565C4.48094 10.1004 4.48094 10.1467 4.48094 10.1952C4.48094 10.4542 4.48094 10.7179 4.48094 10.9815C4.48094 11.2405 4.47313 11.4995 4.46011 11.7585Z" fill="#773810"/>
<path d="M14.3867 18.7237C14.3789 18.7237 14.3398 18.7191 14.2721 18.7145C14.2018 18.7145 14.1211 18.7145 14.0326 18.7145C13.9909 18.7145 13.9596 18.7075 13.9388 18.696C13.7357 18.6474 13.5378 18.5919 13.3451 18.5295C13.1497 18.4694 12.9596 18.3907 12.7721 18.2982C12.7018 18.2497 12.6315 18.2057 12.5638 18.1687C12.5013 18.1271 12.4388 18.0855 12.3763 18.0485C12.2982 17.993 12.2253 17.9375 12.1576 17.882C12.0872 17.8219 12.0065 17.7617 11.918 17.7062C11.8138 17.6207 11.7096 17.5305 11.6055 17.438C11.5013 17.3409 11.3997 17.2437 11.3034 17.1512C11.2539 17.0842 11.2018 17.0125 11.1471 16.9385C11.0898 16.8645 11.0482 16.7882 11.0221 16.7072C10.9857 16.6402 10.9544 16.5731 10.9284 16.5037C10.8997 16.4367 10.8815 16.365 10.8763 16.291C10.8607 16.1869 10.8451 16.0875 10.8242 15.995C10.8034 15.8979 10.7826 15.7984 10.7617 15.699C10.7201 15.5094 10.7122 15.3082 10.7409 15.0977C10.7617 14.9821 10.7852 14.8665 10.8138 14.7555C10.8398 14.6399 10.8607 14.5242 10.8763 14.4132C10.8815 14.3531 10.8919 14.293 10.9076 14.2375C10.9284 14.182 10.9414 14.1311 10.9492 14.0802C10.9622 14.0617 10.9701 14.0479 10.9701 14.034C10.9753 14.0155 10.9857 14.0039 11.0013 13.997C11.0221 13.9299 11.043 13.8582 11.0638 13.7842C11.0846 13.7102 11.1107 13.6432 11.1471 13.5807C11.2513 13.3772 11.3763 13.1784 11.5221 12.9795C11.6263 12.8084 11.7357 12.6696 11.8555 12.5632C11.9102 12.5147 11.9596 12.4684 12.0013 12.4245C12.043 12.3829 12.0846 12.3412 12.1263 12.3042C12.3346 12.1377 12.5456 12.0036 12.7617 11.8972C12.8164 11.8741 12.8711 11.8487 12.9284 11.8232C12.9909 11.8001 13.0456 11.7724 13.0951 11.74C13.1706 11.703 13.2513 11.6729 13.3346 11.6475C13.418 11.6244 13.4935 11.6082 13.5638 11.6012C13.6602 11.5642 13.7539 11.5411 13.8451 11.5272C13.8711 11.5157 13.9023 11.5087 13.9388 11.5087C13.9727 11.5041 14.0039 11.4995 14.0326 11.4995C14.2617 11.481 14.4857 11.481 14.7096 11.4995C14.7435 11.4995 14.7747 11.5041 14.8034 11.5087C14.8372 11.5087 14.8711 11.5157 14.9076 11.5272C15.0378 11.5596 15.168 11.5804 15.293 11.592C15.4232 11.6059 15.5534 11.6197 15.6784 11.6382C15.7539 11.6382 15.8164 11.6544 15.8659 11.6845C15.9701 11.7215 16.0742 11.7631 16.1784 11.8047C16.2878 11.8417 16.3919 11.8834 16.4909 11.925C16.5742 11.9689 16.6523 12.0175 16.7305 12.073C16.806 12.1239 16.8815 12.1794 16.9596 12.2395C16.9805 12.2649 17.0039 12.2857 17.0326 12.3042C17.0586 12.3227 17.0768 12.3412 17.0846 12.3597C17.2565 12.5216 17.3919 12.6534 17.4909 12.7575C17.5872 12.8569 17.6706 12.9679 17.7409 13.0905C17.8086 13.2084 17.8997 13.3726 18.0117 13.5807C18.0586 13.6871 18.1055 13.7935 18.1471 13.9045C18.194 14.0109 18.2409 14.1149 18.2826 14.219C18.2956 14.2884 18.306 14.3577 18.3138 14.4317C18.3268 14.5011 18.3372 14.5751 18.3451 14.6537C18.3581 14.8341 18.3555 15.0191 18.3346 15.2087C18.319 15.3937 18.2956 15.5834 18.2617 15.773C18.2617 15.8285 18.2461 15.884 18.2201 15.9395C18.1992 16.0089 18.1784 16.0759 18.1576 16.143C18.1367 16.2124 18.1107 16.2817 18.0846 16.3557C18.0638 16.4182 18.0378 16.476 18.0117 16.5315C17.9909 16.5824 17.9648 16.6286 17.9388 16.6702C17.931 16.7026 17.9232 16.7327 17.918 16.7627C17.9102 16.7882 17.8971 16.8159 17.8763 16.846C17.8477 16.92 17.806 16.9986 17.7513 17.0772C17.4935 17.4241 17.1992 17.7294 16.8659 17.993C16.8294 18.0254 16.793 18.0554 16.7513 18.0855C16.7148 18.1109 16.6784 18.1387 16.6367 18.1687C16.5169 18.2312 16.3919 18.2959 16.2617 18.363C16.1367 18.4254 16.0039 18.4786 15.8659 18.5202C15.8086 18.5387 15.7461 18.5572 15.6784 18.5757C15.6159 18.5896 15.5534 18.6035 15.4909 18.622C15.2956 18.6914 15.0742 18.7237 14.8242 18.7237C14.7826 18.7237 14.7305 18.7237 14.668 18.7237C14.6055 18.7237 14.5117 18.7237 14.3867 18.7237ZM13.0326 15.329C13.0326 15.366 13.0326 15.4261 13.0326 15.5047C13.0326 15.5787 13.0326 15.6597 13.0326 15.7452C13.0326 15.9441 13.0664 16.143 13.1367 16.3465C13.1576 16.3974 13.1706 16.4482 13.1784 16.5037C13.1914 16.5592 13.2018 16.6147 13.2096 16.6702C13.2435 16.8552 13.3086 17.0194 13.4076 17.1605C13.4622 17.2599 13.5143 17.3547 13.5638 17.4472C13.6107 17.5351 13.668 17.6207 13.7305 17.7062C13.7852 17.7756 13.8398 17.8427 13.8971 17.9097C13.9596 17.9791 14.0273 18.0392 14.1055 18.0947C14.1471 18.1317 14.1992 18.1664 14.2617 18.1965C14.4336 18.2659 14.6211 18.2682 14.8242 18.2057C14.8451 18.2011 14.8607 18.1942 14.8763 18.1872C14.8893 18.1826 14.8997 18.1757 14.9076 18.1687C14.9831 18.1271 15.0482 18.0624 15.1055 17.9745C15.1523 17.919 15.194 17.8589 15.2305 17.7895C15.2643 17.7224 15.2956 17.6577 15.3242 17.5952C15.3789 17.4611 15.4388 17.327 15.5013 17.1975C15.569 17.0634 15.6263 16.9269 15.668 16.7905C15.7227 16.6679 15.7539 16.5569 15.7617 16.4575C15.7826 16.3719 15.7956 16.2864 15.8034 16.1985C15.8164 16.1129 15.8398 16.0274 15.8763 15.9395C15.8971 15.8979 15.9102 15.847 15.918 15.7915C15.931 15.7314 15.944 15.6712 15.9596 15.6157C15.9805 15.3937 16.0169 15.1949 16.0742 15.0145C16.0794 14.9844 16.0872 14.9567 16.0951 14.9312C16.1003 14.9012 16.1055 14.8711 16.1055 14.8387C16.1107 14.7532 16.1159 14.6676 16.1159 14.5797C16.1159 14.4942 16.1055 14.4086 16.0846 14.3207C16.0638 14.2097 16.043 14.0964 16.0221 13.9785C16.0013 13.8629 15.9805 13.7519 15.9596 13.6455C15.944 13.5345 15.9128 13.4212 15.8659 13.3032C15.8503 13.2662 15.8346 13.2269 15.8138 13.183C15.7982 13.1414 15.7826 13.0997 15.7617 13.0627C15.7201 12.9402 15.6393 12.8176 15.5221 12.6927C15.444 12.6141 15.3659 12.5401 15.2826 12.4707C15.2044 12.4037 15.1211 12.3389 15.0326 12.2765C14.9492 12.2164 14.8294 12.1655 14.6784 12.1285C14.5586 12.0984 14.4388 12.0984 14.3138 12.1285C14.1185 12.1655 13.9622 12.2626 13.8451 12.4152C13.8034 12.4661 13.7643 12.517 13.7305 12.5725C13.694 12.6234 13.6628 12.6719 13.6367 12.7205C13.5247 12.8685 13.4492 13.0257 13.4076 13.1922C13.3659 13.3171 13.319 13.4397 13.2721 13.5622C13.2305 13.6802 13.2044 13.8027 13.1992 13.9322C13.1992 13.9762 13.1914 14.0201 13.1784 14.0617C13.1706 14.1057 13.1602 14.1496 13.1471 14.1912C13.1263 14.2606 13.1081 14.33 13.0951 14.404C13.0872 14.4734 13.0768 14.5474 13.0638 14.626C13.056 14.7185 13.0482 14.8202 13.043 14.9312C13.0352 15.0422 13.0326 15.1764 13.0326 15.329Z" fill="#773810"/>
<path d="M27.3605 15.2272C27.3449 15.4932 27.3345 15.736 27.3293 15.958C27.3293 16.18 27.3319 16.3997 27.3397 16.6147C27.3397 16.7882 27.3397 16.9639 27.3397 17.142C27.3397 17.3154 27.3449 17.4889 27.3605 17.66C27.3814 17.845 27.4673 17.993 27.6209 18.104C27.6626 18.1364 27.6991 18.1641 27.7355 18.1872C27.7772 18.2127 27.8189 18.2335 27.8605 18.252C27.8866 18.2844 27.9074 18.3075 27.923 18.326C27.9777 18.3699 27.9985 18.4231 27.9855 18.4832C27.9777 18.5202 27.9282 18.548 27.8397 18.5665C27.811 18.5804 27.7798 18.585 27.7459 18.585C27.7095 18.585 27.6782 18.585 27.6522 18.585C27.5116 18.5919 27.3657 18.5942 27.2147 18.5942C27.061 18.5942 26.9074 18.5942 26.7564 18.5942C26.436 18.5942 26.1131 18.5942 25.7876 18.5942C25.4673 18.5942 25.1418 18.5919 24.8084 18.585C24.772 18.585 24.7381 18.585 24.7043 18.585C24.6756 18.585 24.6444 18.5804 24.6105 18.5665C24.5272 18.548 24.4855 18.5202 24.4855 18.4832C24.4699 18.4231 24.4907 18.3699 24.548 18.326C24.5897 18.2959 24.6314 18.2705 24.673 18.252C24.7199 18.2335 24.7668 18.215 24.8084 18.1965C24.8918 18.1479 24.9543 18.0855 24.9959 18.0115C25.0506 17.882 25.0793 17.7664 25.0793 17.66C25.0793 17.6184 25.0819 17.5744 25.0897 17.5305C25.0949 17.4889 25.1001 17.4449 25.1001 17.401C25.1001 16.8229 25.1001 16.2447 25.1001 15.6712C25.1053 15.0977 25.1105 14.5196 25.1105 13.9322C25.1235 13.8767 25.1261 13.8212 25.1209 13.7657C25.1131 13.7056 25.1053 13.6455 25.1001 13.59C25.1001 13.553 25.0923 13.5252 25.0793 13.5067C25.022 13.3217 24.9543 13.1599 24.8709 13.0165C24.8631 12.998 24.8501 12.9772 24.8293 12.9517C24.8136 12.9217 24.798 12.8962 24.7772 12.8777C24.7407 12.8292 24.6965 12.7852 24.6418 12.7482C24.5923 12.7112 24.5402 12.6789 24.4855 12.6465C24.4491 12.6349 24.4178 12.6257 24.3918 12.6187C24.3631 12.6072 24.3345 12.5979 24.3084 12.591C24.134 12.5239 23.9386 12.5147 23.7251 12.5632C23.5715 12.5887 23.423 12.6326 23.2772 12.6927C23.1782 12.7297 23.0897 12.7737 23.0064 12.8222C22.923 12.8662 22.8449 12.9194 22.7772 12.9795C22.6235 13.0859 22.5298 13.2339 22.4959 13.4235C22.4881 13.4489 22.4855 13.4767 22.4855 13.5067C22.4855 13.5391 22.4855 13.5669 22.4855 13.59C22.4699 14.0224 22.4647 14.4572 22.4647 14.8942C22.4647 15.3267 22.4699 15.7591 22.4855 16.1892C22.4855 16.2147 22.4855 16.2424 22.4855 16.2725C22.4855 16.3049 22.4881 16.3326 22.4959 16.3557C22.5298 16.5037 22.548 16.6517 22.548 16.7997C22.548 16.9477 22.548 17.0934 22.548 17.2345C22.5532 17.3455 22.5636 17.4611 22.5793 17.5767C22.5923 17.6947 22.6105 17.808 22.6314 17.919C22.6574 18.0369 22.7381 18.1225 22.8709 18.178C22.9126 18.1919 22.9543 18.2057 22.9959 18.2242C23.0376 18.2427 23.0819 18.2612 23.1314 18.2797C23.1522 18.2936 23.1756 18.3121 23.2043 18.3352C23.259 18.3676 23.2876 18.4162 23.2876 18.4832C23.2303 18.5272 23.1782 18.5549 23.1314 18.5665C23.1105 18.5804 23.0741 18.585 23.0272 18.585C22.4985 18.585 21.9647 18.585 21.423 18.585C20.8814 18.585 20.3397 18.585 19.798 18.585C19.7902 18.585 19.7772 18.585 19.7564 18.585C19.7407 18.585 19.7251 18.585 19.7043 18.585C19.5845 18.5619 19.5168 18.511 19.4959 18.437C19.4959 18.4185 19.4907 18.4046 19.4855 18.3907C19.4777 18.3722 19.4803 18.3607 19.4959 18.3537C19.5011 18.3237 19.5168 18.2959 19.5376 18.2705C19.5636 18.2474 19.5897 18.2242 19.6105 18.2057C19.6366 18.1826 19.6652 18.1687 19.6939 18.1687C19.7355 18.1502 19.7772 18.1317 19.8189 18.1132C19.8605 18.0901 19.9022 18.067 19.9439 18.0485C19.9907 18.03 20.0324 18.0069 20.0689 17.9745C20.1027 17.9375 20.1261 17.9005 20.1418 17.8635C20.1626 17.8265 20.1756 17.7872 20.1834 17.7432C20.1965 17.7016 20.2043 17.66 20.2043 17.623C20.2043 17.6045 20.2069 17.5906 20.2147 17.5767C20.2199 17.5582 20.2251 17.5444 20.2251 17.5305C20.2459 17.0865 20.259 16.6032 20.2668 16.0782C20.2798 15.5487 20.2876 15.0237 20.2876 14.5057C20.2928 13.9831 20.2928 13.5137 20.2876 13.0997C20.2876 13.0211 20.2876 12.9379 20.2876 12.85C20.2876 12.7644 20.2772 12.6789 20.2564 12.591C20.2564 12.5609 20.2511 12.5332 20.2459 12.5077C20.2381 12.4777 20.2303 12.4476 20.2251 12.4152C20.1886 12.2927 20.1235 12.1979 20.0272 12.1285C19.9855 12.0915 19.9439 12.0614 19.9022 12.036C19.8657 12.0129 19.8293 11.9897 19.7876 11.9712C19.7251 11.9412 19.6756 11.9065 19.6418 11.8695C19.6001 11.8325 19.5689 11.7816 19.548 11.7122C19.548 11.6937 19.5715 11.6637 19.6209 11.6197C19.6678 11.5781 19.7069 11.5527 19.7355 11.5457C19.7772 11.5226 19.8084 11.5087 19.8293 11.5087C19.8631 11.5087 19.8944 11.5087 19.923 11.5087C19.9569 11.5041 19.9907 11.4995 20.0272 11.4995C20.3814 11.4995 20.7381 11.4972 21.1001 11.4902C21.4595 11.4856 21.8189 11.4902 22.173 11.5087C22.311 11.5342 22.4074 11.6012 22.4647 11.7122C22.4855 11.7446 22.5064 11.7955 22.5272 11.8695C22.5402 11.9019 22.548 11.9319 22.548 11.962C22.5532 11.9874 22.5636 12.0152 22.5793 12.0452C22.5923 12.0522 22.6027 12.0591 22.6105 12.0637C22.6235 12.0707 22.634 12.0822 22.6418 12.1007C22.6965 12.1516 22.7564 12.1562 22.8189 12.1192C22.8605 12.0961 22.9022 12.073 22.9439 12.0545C22.9907 12.036 23.0376 12.0152 23.0793 11.9897C23.1965 11.9111 23.3241 11.8487 23.4647 11.8047C23.6027 11.7631 23.7381 11.7169 23.8709 11.666C24.0011 11.6429 24.1314 11.6174 24.2564 11.592C24.3866 11.5619 24.5116 11.5319 24.6314 11.4995C24.6522 11.4879 24.6834 11.481 24.7251 11.481C24.9048 11.4625 25.0845 11.4532 25.2668 11.4532C25.4465 11.4486 25.6261 11.4532 25.8084 11.4717C25.884 11.4717 25.9439 11.4856 25.9855 11.5087C26.1235 11.5596 26.2407 11.6082 26.3397 11.6567C26.6105 11.7932 26.8319 11.9666 27.0064 12.1747C27.0272 12.1932 27.0428 12.2164 27.0584 12.2395C27.0715 12.2649 27.0845 12.2904 27.1001 12.3135C27.1209 12.3505 27.1418 12.3921 27.1626 12.4337C27.1834 12.4707 27.1991 12.5147 27.2147 12.5632C27.2355 12.6002 27.2485 12.6372 27.2564 12.6742C27.2694 12.7112 27.2824 12.7552 27.298 12.8037C27.3189 12.9841 27.3319 13.1691 27.3397 13.3587C27.3527 13.5507 27.3605 13.7426 27.3605 13.9322C27.3605 14.1681 27.3605 14.3947 27.3605 14.6167C27.3605 14.8341 27.3605 15.0376 27.3605 15.2272Z" fill="#773810"/>
<path d="M35.6897 8.64124C35.8824 8.64124 36.0777 8.64124 36.273 8.64124C36.4657 8.64124 36.661 8.64124 36.8564 8.64124C36.9189 8.64124 36.9814 8.65512 37.0439 8.67824C37.1116 8.69674 37.1584 8.73374 37.1793 8.78924C37.2053 8.84474 37.1897 8.89793 37.1272 8.94649C37.0907 8.97887 37.0699 8.99274 37.0647 8.99274C36.9449 9.04824 36.8277 9.10143 36.7105 9.14999C36.5699 9.21937 36.4918 9.33499 36.4709 9.50149C36.4553 9.57087 36.4449 9.64024 36.4397 9.71424C36.4319 9.78824 36.4293 9.86224 36.4293 9.93624C36.4215 10.0611 36.4189 10.186 36.4189 10.3155C36.4189 10.445 36.4189 10.5791 36.4189 10.7132C36.4189 11.1526 36.4189 11.5874 36.4189 12.0175C36.4241 12.443 36.4345 12.8777 36.4501 13.3217C36.4709 13.4651 36.4709 13.6062 36.4501 13.7472C36.4345 13.9207 36.4293 14.0941 36.4293 14.2652C36.4293 14.4387 36.4293 14.6144 36.4293 14.7925C36.4293 15.1949 36.4293 15.5972 36.4293 16.0042C36.4293 16.4112 36.4293 16.8159 36.4293 17.216C36.4293 17.3039 36.4293 17.3894 36.4293 17.475C36.4293 17.5629 36.4293 17.6484 36.4293 17.734C36.4553 17.9444 36.5543 18.0901 36.7209 18.1687C36.7756 18.1942 36.8355 18.2196 36.898 18.2427C36.9657 18.2682 37.023 18.2982 37.0647 18.3352C37.1064 18.3537 37.1324 18.3699 37.148 18.3815C37.1689 18.4139 37.1819 18.4416 37.1897 18.4647C37.2027 18.4832 37.2105 18.5087 37.2105 18.5387C37.2157 18.5942 37.1845 18.6405 37.1168 18.6775C37.0465 18.7191 36.984 18.7422 36.9293 18.7422C36.5334 18.7422 36.1402 18.7422 35.7522 18.7422C35.3694 18.7422 34.984 18.7353 34.5959 18.7237C34.484 18.7168 34.4032 18.7076 34.3564 18.696C34.3069 18.6844 34.1949 18.6497 34.023 18.5942C33.9397 18.5642 33.8459 18.5642 33.7418 18.5942C33.6923 18.6081 33.648 18.6197 33.6064 18.6312C33.5647 18.6382 33.5152 18.6497 33.4605 18.6682C33.4527 18.6682 33.4397 18.6729 33.4189 18.6775C33.4032 18.6775 33.3876 18.6775 33.3668 18.6775C33.3459 18.6914 33.3147 18.696 33.273 18.696C32.8824 18.7145 32.4866 18.7145 32.0855 18.696C32.0569 18.696 32.0256 18.6937 31.9918 18.6867C31.9631 18.6821 31.9319 18.6752 31.898 18.6682C31.6897 18.6197 31.5074 18.5711 31.3564 18.5202C31.2105 18.4647 31.0569 18.4046 30.898 18.3352C30.8069 18.2867 30.7209 18.2427 30.6376 18.2057C30.5543 18.1687 30.4657 18.1271 30.3772 18.0762C30.2574 18.0022 30.122 17.9282 29.9709 17.8542C29.7131 17.6877 29.4866 17.4819 29.2939 17.2345C29.2314 17.1489 29.1715 17.0587 29.1168 16.9662C29.0673 16.8737 29.0256 16.7812 28.9918 16.6887C28.9761 16.6402 28.9631 16.5939 28.9501 16.55C28.9423 16.5084 28.9293 16.4667 28.9084 16.4297C28.8511 16.2887 28.8251 16.1499 28.8251 16.0135C28.8251 15.8239 28.8251 15.6319 28.8251 15.44C28.8251 15.2504 28.8251 15.0654 28.8251 14.885C28.8251 14.7694 28.8303 14.6537 28.8459 14.5427C28.8668 14.4271 28.898 14.3092 28.9397 14.1912C28.9605 14.1681 28.9814 14.1149 29.0022 14.034C29.0282 13.923 29.0673 13.812 29.1168 13.701C29.1715 13.59 29.2261 13.4859 29.2834 13.3865C29.359 13.257 29.4423 13.1344 29.5334 13.0165C29.622 12.8939 29.734 12.7852 29.8668 12.6927C29.9136 12.6511 29.9605 12.6095 30.0022 12.5725C30.0491 12.5355 30.0959 12.4985 30.1376 12.4615C30.2886 12.3459 30.4553 12.2487 30.6376 12.1747C30.7886 12.1077 30.9397 12.0499 31.0855 11.999C31.2366 11.9435 31.3824 11.888 31.523 11.8325C31.5569 11.8209 31.5881 11.8117 31.6168 11.8047C31.6506 11.8001 31.6845 11.7932 31.7209 11.7862C31.8043 11.7677 31.8824 11.7562 31.9605 11.7492C32.036 11.7377 32.1116 11.7169 32.1897 11.6845C32.3694 11.6359 32.5282 11.6105 32.6689 11.6105C32.6897 11.6105 32.7053 11.6105 32.7209 11.6105C32.7418 11.6105 32.7574 11.6105 32.773 11.6105C32.9397 11.6059 33.0647 11.6012 33.148 11.6012C33.2366 11.6012 33.3355 11.6082 33.4397 11.6197C33.5491 11.6267 33.7131 11.6429 33.9293 11.666C33.9918 11.666 34.0386 11.6359 34.0751 11.5735C34.0881 11.5434 34.0959 11.5157 34.0959 11.4902C34.0959 11.4602 34.0959 11.4301 34.0959 11.3977C34.0959 11.1942 34.0959 10.9907 34.0959 10.7872C34.0959 10.5837 34.0959 10.3802 34.0959 10.1767C34.0959 10.0472 34.0881 9.91774 34.0751 9.78824C34.0673 9.65874 34.0386 9.53387 33.9918 9.40899C33.9918 9.38587 33.9918 9.36737 33.9918 9.35349C33.9918 9.34193 33.9918 9.33037 33.9918 9.31649C33.9709 9.16387 33.9944 9.02049 34.0647 8.89099C34.0855 8.85399 34.1064 8.81699 34.1272 8.77999C34.1532 8.73837 34.1923 8.71293 34.2418 8.70599C34.3043 8.66437 34.3616 8.64124 34.4189 8.64124C34.6324 8.63662 34.8485 8.63662 35.0647 8.64124C35.2782 8.64124 35.4866 8.64124 35.6897 8.64124ZM34.0959 15.3567C34.0803 14.8757 34.0751 14.4595 34.0751 14.108C34.0751 13.7565 34.0803 13.4119 34.0959 13.072C34.0959 13.0304 34.0959 12.9864 34.0959 12.9425C34.0959 12.9009 34.0959 12.8569 34.0959 12.813C34.0959 12.7945 34.0907 12.7806 34.0855 12.7667C34.0777 12.7552 34.0751 12.7436 34.0751 12.7297C34.0751 12.6927 34.0465 12.6419 33.9918 12.5725C33.9709 12.5355 33.9215 12.5031 33.8459 12.4707C33.8043 12.4661 33.7574 12.4592 33.7105 12.4522C33.661 12.4476 33.6116 12.4407 33.5647 12.4337C33.3694 12.4222 33.1715 12.4245 32.9709 12.443C32.7678 12.4569 32.5699 12.4707 32.3772 12.4892C32.3485 12.4962 32.2886 12.5216 32.2001 12.5632C32.1584 12.5817 32.1168 12.6049 32.0751 12.628C32.0386 12.6465 32.0022 12.6719 31.9605 12.702C31.661 12.9425 31.4631 13.2362 31.3668 13.5807C31.3511 13.6547 31.3251 13.7357 31.2834 13.8212C31.2418 13.9646 31.2105 14.1057 31.1897 14.2467C31.1741 14.4202 31.1402 14.5936 31.0855 14.7647C31.0569 14.8457 31.0543 14.9289 31.0751 15.0145C31.0959 15.1024 31.1194 15.1879 31.148 15.2735C31.1741 15.3544 31.2001 15.4377 31.2209 15.5232C31.2418 15.5926 31.2652 15.6597 31.2939 15.7267C31.3277 15.7961 31.3564 15.8632 31.3772 15.9302C31.4189 16.0227 31.4657 16.1152 31.523 16.2077C31.5777 16.3002 31.6376 16.3904 31.7001 16.476C31.7678 16.55 31.8381 16.6286 31.9084 16.7072C31.984 16.7812 32.0595 16.8552 32.1376 16.9292C32.2678 17.0541 32.4215 17.1651 32.5959 17.2622C32.7548 17.3547 32.9319 17.4264 33.1272 17.475C33.3485 17.5374 33.5751 17.5629 33.8043 17.549C33.8303 17.549 33.859 17.5397 33.8876 17.5212C34.0256 17.4727 34.0959 17.3802 34.0959 17.2437C34.0959 16.8876 34.0959 16.5384 34.0959 16.1985C34.0959 15.8539 34.0959 15.5741 34.0959 15.3567Z" fill="#773810"/>
<path d="M43.1511 15.0792C42.8803 15.0792 42.6146 15.0792 42.3594 15.0792C42.1094 15.0792 41.862 15.0792 41.6198 15.0792C41.5573 15.0792 41.4896 15.0792 41.4219 15.0792C41.3594 15.0792 41.2969 15.0862 41.2344 15.0977C41.1849 15.0977 41.1355 15.1024 41.0886 15.107C41.0391 15.107 40.9896 15.1139 40.9428 15.1255C40.9063 15.1394 40.875 15.1509 40.849 15.1625C40.8204 15.1764 40.7969 15.1902 40.7761 15.2087C40.7553 15.2226 40.7396 15.2596 40.7344 15.3197C40.7344 15.3822 40.737 15.4307 40.7448 15.4677C40.7787 15.5487 40.8099 15.6296 40.8386 15.7082C40.8724 15.7892 40.9011 15.8724 40.9219 15.958C40.9558 16.0274 40.9896 16.0944 41.0261 16.1615C41.0678 16.2239 41.1094 16.2864 41.1511 16.3465C41.2553 16.4899 41.3698 16.6286 41.4948 16.7627C41.6198 16.8922 41.75 17.0171 41.8907 17.1327C42 17.2322 42.1042 17.3039 42.2032 17.3455C42.25 17.3779 42.3021 17.4056 42.3594 17.4287C42.4219 17.4542 42.487 17.475 42.5573 17.4935C42.6407 17.512 42.7188 17.5351 42.7969 17.5582C42.8724 17.5837 42.948 17.6045 43.0261 17.623C43.2474 17.6785 43.474 17.6785 43.7032 17.623C43.7787 17.6045 43.8542 17.5837 43.9323 17.5582C44.0157 17.5351 44.0938 17.512 44.1719 17.4935C44.2474 17.475 44.3204 17.4542 44.3907 17.4287C44.4662 17.4056 44.5417 17.3825 44.6198 17.364C44.7084 17.3339 44.8073 17.3362 44.9115 17.3732C44.9948 17.4056 45.0495 17.4542 45.0782 17.5212C45.1042 17.5906 45.1094 17.66 45.0886 17.734C45.0469 17.8519 44.9662 17.9375 44.849 17.993C44.612 18.1364 44.3724 18.2589 44.1303 18.363C43.8855 18.4694 43.6303 18.5642 43.3594 18.6497C43.2188 18.7099 43.0625 18.7422 42.8907 18.7422C42.474 18.7469 42.0495 18.7469 41.6198 18.7422C41.4792 18.7284 41.323 18.6983 41.1511 18.6497C40.8933 18.5642 40.6224 18.4555 40.3386 18.326C40.2396 18.2774 40.1433 18.2289 40.0469 18.178C39.9558 18.1225 39.862 18.0762 39.7657 18.0392C39.6459 17.9791 39.5365 17.9097 39.4323 17.8357C39.3282 17.7617 39.2344 17.6854 39.1511 17.6045C38.9558 17.4264 38.7995 17.2414 38.6823 17.0495C38.625 16.9639 38.5782 16.8737 38.5365 16.7812C38.4948 16.6841 38.4558 16.5847 38.4219 16.4852C38.4063 16.4667 38.4011 16.439 38.4011 16.402C38.3803 16.2979 38.362 16.1962 38.349 16.0967C38.3412 15.9927 38.3386 15.8932 38.3386 15.8007C38.3308 15.5117 38.3308 15.2249 38.3386 14.9405C38.3386 14.6954 38.375 14.4641 38.4532 14.2467C38.4662 14.2236 38.4766 14.1982 38.4844 14.1727C38.4974 14.1427 38.5079 14.1149 38.5157 14.0895C38.5365 13.96 38.573 13.8374 38.6303 13.7195C38.6928 13.5969 38.7579 13.4767 38.8282 13.3587C38.9245 13.1807 39.0469 13.0142 39.1928 12.8592C39.3099 12.7552 39.4271 12.6534 39.5469 12.554C39.6641 12.4569 39.7891 12.3644 39.9219 12.2765C39.9844 12.2164 40.0625 12.1724 40.1615 12.147C40.1954 12.1285 40.2266 12.1146 40.2553 12.1007C40.2813 12.0892 40.3099 12.0799 40.3386 12.073C40.448 12.0244 40.5678 11.9805 40.6928 11.9435C40.7813 11.925 40.8646 11.9019 40.9428 11.8695C41.0183 11.8325 41.0912 11.8094 41.1615 11.7955C41.2917 11.777 41.4219 11.7562 41.5469 11.7307C41.6771 11.7007 41.8021 11.6706 41.9219 11.6382C41.9766 11.6197 42.0287 11.6105 42.0782 11.6105C42.125 11.6105 42.1719 11.6082 42.2136 11.6012C42.3438 11.5827 42.474 11.5735 42.599 11.5735C42.7292 11.5735 42.862 11.5735 42.9948 11.5735C43.237 11.592 43.4558 11.6382 43.6511 11.7122C43.7266 11.7492 43.7995 11.7839 43.8698 11.814C43.9375 11.8464 44.0053 11.8834 44.0678 11.925C44.1433 11.9689 44.2136 12.0082 44.2761 12.0452C44.3438 12.0822 44.4167 12.1192 44.4948 12.1562C44.5704 12.2071 44.6433 12.2626 44.7136 12.3227C44.7813 12.3852 44.849 12.4499 44.9115 12.517C44.9245 12.5239 44.9323 12.5332 44.9323 12.5447C44.9375 12.5586 44.948 12.5725 44.9636 12.591C44.9896 12.6604 45.0313 12.7737 45.0886 12.9332C45.1511 13.0882 45.1875 13.1922 45.2032 13.2477C45.224 13.3171 45.237 13.3865 45.2448 13.4605C45.2579 13.5299 45.2813 13.5969 45.3178 13.664C45.3724 13.8189 45.4063 13.9762 45.4219 14.1357C45.4349 14.2907 45.4375 14.4479 45.4323 14.6075C45.4167 14.6399 45.4063 14.6699 45.4011 14.7C45.4011 14.7254 45.3933 14.7532 45.3803 14.7832C45.3646 14.8526 45.3204 14.9127 45.2448 14.9682C45.1745 15.0191 45.1042 15.0469 45.0365 15.0515C44.974 15.0515 44.9115 15.0561 44.849 15.0607C44.7865 15.0677 44.7188 15.07 44.6511 15.07C44.3803 15.07 44.1198 15.0746 43.8698 15.0792C43.6198 15.0792 43.3803 15.0792 43.1511 15.0792ZM41.7761 14.5242C42.0261 14.5242 42.237 14.5242 42.4115 14.5242C42.5834 14.5242 42.75 14.5242 42.9115 14.5242C42.9375 14.5242 42.9662 14.5219 42.9948 14.515C43.0209 14.5034 43.0521 14.4965 43.0886 14.4965C43.1224 14.4849 43.1615 14.4572 43.2032 14.4132C43.25 14.3716 43.2813 14.3369 43.2969 14.3115C43.3178 14.2329 43.3308 14.1612 43.3386 14.0987C43.3516 14.0317 43.3646 13.9646 43.3803 13.8952C43.4011 13.7796 43.4115 13.664 43.4115 13.553C43.4115 13.4374 43.4037 13.3194 43.3907 13.2015C43.3829 13.1784 43.3803 13.1506 43.3803 13.1182C43.3803 13.0882 43.3698 13.0604 43.349 13.035C43.3334 12.9864 43.3204 12.9425 43.3073 12.9055C43.2995 12.8685 43.2865 12.8292 43.2657 12.7852C43.2448 12.7112 43.2058 12.6511 43.1511 12.6002C43.0938 12.5447 43.0417 12.4939 42.9948 12.443C42.8282 12.332 42.6433 12.2996 42.4428 12.3412C42.3438 12.3597 42.25 12.3829 42.1615 12.406C42.0704 12.4314 41.9766 12.4592 41.8803 12.4892C41.8308 12.4962 41.7865 12.5124 41.7448 12.5355C41.7032 12.5609 41.6641 12.5887 41.6303 12.6187C41.5105 12.6927 41.3933 12.7922 41.2761 12.9147C41.1303 13.0627 41.0209 13.2362 40.9532 13.4327C40.9245 13.5322 40.8933 13.6316 40.8594 13.7287C40.823 13.8212 40.7917 13.9137 40.7657 14.0062C40.75 14.0247 40.7448 14.0525 40.7448 14.0895C40.7448 14.1219 40.7396 14.1519 40.7344 14.182C40.7344 14.2074 40.7344 14.2352 40.7344 14.2652C40.7344 14.3161 40.7579 14.367 40.8073 14.4225C40.862 14.4734 40.9167 14.5011 40.974 14.5057C41.1329 14.5196 41.2865 14.5219 41.4323 14.515C41.5834 14.5104 41.698 14.5127 41.7761 14.5242Z" fill="#773810"/>
<path d="M49.5144 15.255C49.5144 15.5394 49.517 15.8285 49.5248 16.1245C49.53 16.4159 49.5378 16.7049 49.5456 16.994C49.5586 17.0495 49.5665 17.105 49.5665 17.1605C49.5665 17.216 49.5691 17.2761 49.5769 17.3362C49.5977 17.4287 49.6107 17.5282 49.6185 17.6322C49.6316 17.7317 49.6446 17.8334 49.6602 17.9375C49.681 18.0739 49.7461 18.1687 49.8581 18.2242C49.905 18.2497 49.9623 18.2751 50.0248 18.2982C50.0925 18.3237 50.1498 18.3537 50.1915 18.3907C50.2253 18.4162 50.2435 18.4555 50.2435 18.511C50.2488 18.5665 50.2383 18.6035 50.2123 18.622C50.155 18.659 50.0977 18.6844 50.0352 18.696C49.9363 18.696 49.8399 18.6983 49.7435 18.7052C49.6446 18.7099 49.5482 18.7145 49.4519 18.7145C49.0196 18.7145 48.5925 18.7099 48.1706 18.7052C47.754 18.6983 47.3295 18.696 46.8998 18.696C46.8633 18.696 46.8295 18.6937 46.7956 18.6867C46.767 18.6821 46.7357 18.6752 46.7019 18.6682C46.6524 18.6567 46.6107 18.6174 46.5769 18.548C46.5352 18.5064 46.5274 18.4532 46.556 18.3907C46.6107 18.2982 46.6836 18.2427 46.7748 18.2242C46.8008 18.2127 46.8295 18.2011 46.8581 18.1872C46.8842 18.1757 46.9154 18.1641 46.9519 18.1502C47.0691 18.0947 47.142 18.0069 47.1706 17.882C47.1836 17.8219 47.1941 17.7617 47.2019 17.7062C47.2149 17.6507 47.2253 17.5929 47.2331 17.5305C47.2592 17.4704 47.2774 17.401 47.2852 17.327C47.2982 17.253 47.306 17.179 47.306 17.105C47.306 16.9454 47.306 16.7859 47.306 16.624C47.3113 16.4644 47.3165 16.3095 47.3165 16.1615C47.3295 15.5949 47.3373 15.0284 47.3373 14.4595C47.3373 13.8929 47.3373 13.331 47.3373 12.776C47.3373 12.7274 47.3373 12.6812 47.3373 12.6372C47.3373 12.5887 47.3295 12.5424 47.3165 12.4985C47.3086 12.3944 47.2488 12.295 47.1394 12.2025C47.0977 12.1655 47.0456 12.1331 46.9831 12.1007C46.9258 12.0707 46.8711 12.0429 46.8165 12.0175C46.7956 11.999 46.7696 11.9805 46.7435 11.962C46.7149 11.9389 46.6915 11.9227 46.6706 11.9157C46.629 11.8787 46.6107 11.8279 46.6185 11.7585C46.6238 11.6914 46.6602 11.6429 46.7227 11.6105C46.7644 11.592 46.8086 11.5804 46.8581 11.5735C46.905 11.5619 46.9519 11.5527 46.9935 11.5457C47.0274 11.5342 47.0586 11.5249 47.0873 11.518C47.1211 11.5134 47.155 11.5087 47.1915 11.5087C47.8008 11.5041 48.4206 11.5041 49.0456 11.5087C49.1003 11.5087 49.1498 11.5157 49.1915 11.5272C49.2331 11.5411 49.2748 11.555 49.3165 11.5735C49.4128 11.6105 49.4779 11.6752 49.5144 11.7677C49.5352 11.8117 49.5482 11.851 49.556 11.888C49.5613 11.925 49.5691 11.9689 49.5769 12.0175C49.5899 12.0869 49.6394 12.1192 49.7227 12.1192C49.7435 12.1192 49.7566 12.1192 49.7644 12.1192C49.7774 12.1192 49.7904 12.1192 49.806 12.1192C49.8685 12.0961 49.9258 12.0684 49.9831 12.036C50.0456 12.0059 50.0977 11.9759 50.1394 11.9435C50.2279 11.8949 50.3191 11.8556 50.4102 11.8232C50.4988 11.7862 50.5899 11.7492 50.681 11.7122C50.7488 11.6752 50.8399 11.6475 50.9519 11.629C51.0482 11.6105 51.1446 11.5897 51.2435 11.5642C51.3399 11.5411 51.431 11.518 51.5144 11.4995C51.5691 11.4879 51.6211 11.481 51.6706 11.481C51.7175 11.4764 51.7644 11.4671 51.806 11.4532C51.8946 11.4486 51.9779 11.4417 52.056 11.4347C52.1394 11.4301 52.2175 11.4255 52.2956 11.4255C52.53 11.4209 52.7592 11.4347 52.9831 11.4717C53.0586 11.4787 53.1446 11.5134 53.2435 11.5735C53.3607 11.6475 53.4415 11.7377 53.4831 11.8417C53.53 11.9157 53.5378 11.9967 53.504 12.0822C53.4883 12.1262 53.4727 12.1701 53.4519 12.2117C53.431 12.2557 53.4102 12.295 53.3894 12.332C53.3685 12.369 53.3399 12.406 53.306 12.443C53.2774 12.4754 53.2461 12.5031 53.2123 12.5262C53.1498 12.5771 53.0821 12.6187 53.0144 12.6557C52.9441 12.6881 52.8633 12.7182 52.7748 12.7482C52.7175 12.7737 52.6602 12.7922 52.5977 12.8037C52.5352 12.8107 52.4675 12.8199 52.3998 12.8315C52.3711 12.8315 52.3399 12.8315 52.306 12.8315C52.2774 12.8315 52.2461 12.8315 52.2123 12.8315C52.1706 12.8199 52.1238 12.813 52.0769 12.813C52.0274 12.8084 51.9753 12.7945 51.9206 12.776C51.8425 12.7459 51.7696 12.7182 51.7019 12.6927C51.6316 12.6627 51.556 12.6326 51.4727 12.6002C51.3269 12.5447 51.1706 12.517 51.004 12.517C50.7878 12.517 50.5977 12.5517 50.431 12.6187C50.2149 12.6881 50.017 12.7852 49.8373 12.9147C49.7748 12.9772 49.7331 13.0211 49.7123 13.0442C49.5795 13.1437 49.5144 13.2732 49.5144 13.4327C49.5144 13.7287 49.5144 14.0317 49.5144 14.3392C49.5144 14.6422 49.5144 14.9474 49.5144 15.255Z" fill="#773810"/>
<path d="M57.9068 18.7237C57.899 18.7237 57.8599 18.7191 57.7922 18.7145C57.7219 18.7145 57.6412 18.7145 57.5526 18.7145C57.511 18.7145 57.4797 18.7075 57.4589 18.696C57.2557 18.6474 57.0578 18.5919 56.8651 18.5295C56.6698 18.4694 56.4797 18.3907 56.2922 18.2982C56.2219 18.2497 56.1516 18.2057 56.0839 18.1687C56.0214 18.1271 55.9589 18.0855 55.8964 18.0485C55.8182 17.993 55.7453 17.9375 55.6776 17.882C55.6073 17.8219 55.5266 17.7617 55.438 17.7062C55.3339 17.6207 55.2297 17.5305 55.1255 17.438C55.0214 17.3409 54.9198 17.2437 54.8235 17.1512C54.774 17.0842 54.7219 17.0125 54.6672 16.9385C54.6099 16.8645 54.5682 16.7882 54.5422 16.7072C54.5057 16.6402 54.4745 16.5731 54.4485 16.5037C54.4198 16.4367 54.4016 16.365 54.3964 16.291C54.3807 16.1869 54.3651 16.0875 54.3443 15.995C54.3235 15.8979 54.3026 15.7984 54.2818 15.699C54.2401 15.5094 54.2323 15.3082 54.261 15.0977C54.2818 14.9821 54.3052 14.8665 54.3339 14.7555C54.3599 14.6399 54.3807 14.5242 54.3964 14.4132C54.4016 14.3531 54.412 14.293 54.4276 14.2375C54.4485 14.182 54.4615 14.1311 54.4693 14.0802C54.4823 14.0617 54.4901 14.0479 54.4901 14.034C54.4953 14.0155 54.5057 14.0039 54.5214 13.997C54.5422 13.9299 54.563 13.8582 54.5839 13.7842C54.6047 13.7102 54.6307 13.6432 54.6672 13.5807C54.7714 13.3772 54.8964 13.1784 55.0422 12.9795C55.1464 12.8084 55.2557 12.6696 55.3755 12.5632C55.4302 12.5147 55.4797 12.4684 55.5214 12.4245C55.563 12.3829 55.6047 12.3412 55.6464 12.3042C55.8547 12.1377 56.0656 12.0036 56.2818 11.8972C56.3365 11.8741 56.3912 11.8487 56.4485 11.8232C56.511 11.8001 56.5656 11.7724 56.6151 11.74C56.6906 11.703 56.7714 11.6729 56.8547 11.6475C56.938 11.6244 57.0136 11.6082 57.0839 11.6012C57.1802 11.5642 57.274 11.5411 57.3651 11.5272C57.3912 11.5157 57.4224 11.5087 57.4589 11.5087C57.4927 11.5041 57.524 11.4995 57.5526 11.4995C57.7818 11.481 58.0057 11.481 58.2297 11.4995C58.2636 11.4995 58.2948 11.5041 58.3235 11.5087C58.3573 11.5087 58.3912 11.5157 58.4276 11.5272C58.5578 11.5596 58.688 11.5804 58.813 11.592C58.9432 11.6059 59.0735 11.6197 59.1985 11.6382C59.274 11.6382 59.3365 11.6544 59.386 11.6845C59.4901 11.7215 59.5943 11.7631 59.6985 11.8047C59.8078 11.8417 59.912 11.8834 60.011 11.925C60.0943 11.9689 60.1724 12.0175 60.2505 12.073C60.3261 12.1239 60.4016 12.1794 60.4797 12.2395C60.5005 12.2649 60.524 12.2857 60.5526 12.3042C60.5787 12.3227 60.5969 12.3412 60.6047 12.3597C60.7766 12.5216 60.912 12.6534 61.011 12.7575C61.1073 12.8569 61.1906 12.9679 61.261 13.0905C61.3287 13.2084 61.4198 13.3726 61.5318 13.5807C61.5787 13.6871 61.6255 13.7935 61.6672 13.9045C61.7141 14.0109 61.761 14.1149 61.8026 14.219C61.8156 14.2884 61.8261 14.3577 61.8339 14.4317C61.8469 14.5011 61.8573 14.5751 61.8651 14.6537C61.8781 14.8341 61.8755 15.0191 61.8547 15.2087C61.8391 15.3937 61.8156 15.5834 61.7818 15.773C61.7818 15.8285 61.7662 15.884 61.7401 15.9395C61.7193 16.0089 61.6985 16.0759 61.6776 16.143C61.6568 16.2124 61.6307 16.2817 61.6047 16.3557C61.5839 16.4182 61.5578 16.476 61.5318 16.5315C61.511 16.5824 61.4849 16.6286 61.4589 16.6702C61.4511 16.7026 61.4432 16.7327 61.438 16.7627C61.4302 16.7882 61.4172 16.8159 61.3964 16.846C61.3677 16.92 61.3261 16.9986 61.2714 17.0772C61.0136 17.4241 60.7193 17.7294 60.386 17.993C60.3495 18.0254 60.313 18.0554 60.2714 18.0855C60.2349 18.1109 60.1985 18.1387 60.1568 18.1687C60.037 18.2312 59.912 18.2959 59.7818 18.363C59.6568 18.4254 59.524 18.4786 59.386 18.5202C59.3287 18.5387 59.2662 18.5572 59.1985 18.5757C59.136 18.5896 59.0735 18.6035 59.011 18.622C58.8156 18.6914 58.5943 18.7237 58.3443 18.7237C58.3026 18.7237 58.2505 18.7237 58.188 18.7237C58.1255 18.7237 58.0318 18.7237 57.9068 18.7237ZM56.5526 15.329C56.5526 15.366 56.5526 15.4261 56.5526 15.5047C56.5526 15.5787 56.5526 15.6597 56.5526 15.7452C56.5526 15.9441 56.5865 16.143 56.6568 16.3465C56.6776 16.3974 56.6906 16.4482 56.6985 16.5037C56.7115 16.5592 56.7219 16.6147 56.7297 16.6702C56.7636 16.8552 56.8287 17.0194 56.9276 17.1605C56.9823 17.2599 57.0344 17.3547 57.0839 17.4472C57.1307 17.5351 57.188 17.6207 57.2505 17.7062C57.3052 17.7756 57.3599 17.8427 57.4172 17.9097C57.4797 17.9791 57.5474 18.0392 57.6255 18.0947C57.6672 18.1317 57.7193 18.1664 57.7818 18.1965C57.9537 18.2659 58.1412 18.2682 58.3443 18.2057C58.3651 18.2011 58.3807 18.1942 58.3964 18.1872C58.4094 18.1826 58.4198 18.1757 58.4276 18.1687C58.5031 18.1271 58.5682 18.0624 58.6255 17.9745C58.6724 17.919 58.7141 17.8589 58.7505 17.7895C58.7844 17.7224 58.8156 17.6577 58.8443 17.5952C58.899 17.4611 58.9589 17.327 59.0214 17.1975C59.0891 17.0634 59.1464 16.9269 59.188 16.7905C59.2427 16.6679 59.274 16.5569 59.2818 16.4575C59.3026 16.3719 59.3156 16.2864 59.3235 16.1985C59.3365 16.1129 59.3599 16.0274 59.3964 15.9395C59.4172 15.8979 59.4302 15.847 59.438 15.7915C59.4511 15.7314 59.4641 15.6712 59.4797 15.6157C59.5005 15.3937 59.537 15.1949 59.5943 15.0145C59.5995 14.9844 59.6073 14.9567 59.6151 14.9312C59.6203 14.9012 59.6255 14.8711 59.6255 14.8387C59.6307 14.7532 59.636 14.6676 59.636 14.5797C59.636 14.4942 59.6255 14.4086 59.6047 14.3207C59.5839 14.2097 59.563 14.0964 59.5422 13.9785C59.5214 13.8629 59.5005 13.7519 59.4797 13.6455C59.4641 13.5345 59.4328 13.4212 59.386 13.3032C59.3703 13.2662 59.3547 13.2269 59.3339 13.183C59.3182 13.1414 59.3026 13.0997 59.2818 13.0627C59.2401 12.9402 59.1594 12.8176 59.0422 12.6927C58.9641 12.6141 58.886 12.5401 58.8026 12.4707C58.7245 12.4037 58.6412 12.3389 58.5526 12.2765C58.4693 12.2164 58.3495 12.1655 58.1985 12.1285C58.0787 12.0984 57.9589 12.0984 57.8339 12.1285C57.6386 12.1655 57.4823 12.2626 57.3651 12.4152C57.3235 12.4661 57.2844 12.517 57.2505 12.5725C57.2141 12.6234 57.1828 12.6719 57.1568 12.7205C57.0448 12.8685 56.9693 13.0257 56.9276 13.1922C56.886 13.3171 56.8391 13.4397 56.7922 13.5622C56.7505 13.6802 56.7245 13.8027 56.7193 13.9322C56.7193 13.9762 56.7115 14.0201 56.6985 14.0617C56.6906 14.1057 56.6802 14.1496 56.6672 14.1912C56.6464 14.2606 56.6281 14.33 56.6151 14.404C56.6073 14.4734 56.5969 14.5474 56.5839 14.626C56.5761 14.7185 56.5682 14.8202 56.563 14.9312C56.5552 15.0422 56.5526 15.1764 56.5526 15.329Z" fill="#773810"/>
<path d="M68.0993 12.7575C68.0993 12.8269 68.0993 12.9032 68.0993 12.9887C68.0993 13.0766 68.0993 13.1622 68.0993 13.2477C68.0993 13.2801 68.0915 13.3102 68.0785 13.3402C68.0707 13.3657 68.0629 13.3934 68.0577 13.4235C68.0212 13.479 67.9743 13.5021 67.9118 13.4882C67.8337 13.4882 67.779 13.4674 67.7452 13.4235C67.7373 13.3934 67.7243 13.3657 67.7035 13.3402C67.6879 13.3171 67.6748 13.2917 67.6618 13.2662C67.641 13.1807 67.6097 13.0974 67.5681 13.0165C67.5264 12.9309 67.4873 12.85 67.4535 12.776C67.3754 12.6419 67.2816 12.5216 67.1722 12.4152C67.0681 12.3112 66.9431 12.2256 66.7972 12.1562C66.7399 12.1377 66.6774 12.1169 66.6097 12.0915C66.5472 12.0684 66.4899 12.0452 66.4431 12.0267C66.4066 12.0082 66.3728 11.999 66.3389 11.999C66.3103 11.999 66.279 11.9967 66.2452 11.9897C66.1462 11.9782 66.0498 11.9689 65.9535 11.962C65.8545 11.9574 65.7582 11.9666 65.6618 11.9897C65.4248 12.0152 65.2295 12.11 65.0785 12.2765C65.0368 12.3135 64.9978 12.3597 64.9639 12.4152C64.9353 12.4846 64.9066 12.5517 64.8806 12.6187C64.8519 12.6881 64.8285 12.7529 64.8077 12.813C64.792 12.8754 64.792 12.9332 64.8077 12.9887C64.8415 13.1252 64.9222 13.2477 65.0472 13.3587C65.2399 13.5622 65.4639 13.7334 65.7139 13.8675C65.8311 13.9299 65.9483 13.997 66.0681 14.071C66.1931 14.145 66.3207 14.2167 66.4535 14.2837C66.6045 14.3462 66.7478 14.4202 66.8806 14.5057C67.0186 14.5867 67.1566 14.663 67.2972 14.737C67.5733 14.9104 67.8207 15.0931 68.0368 15.2827C68.2295 15.4446 68.3754 15.6342 68.4743 15.8562C68.4952 15.8932 68.516 15.9349 68.5368 15.9765C68.5577 16.0135 68.5733 16.0505 68.5889 16.0875C68.6097 16.1245 68.6228 16.1661 68.6306 16.2077C68.6436 16.2517 68.6514 16.2979 68.6514 16.3465C68.6722 16.5199 68.6722 16.6934 68.6514 16.8645C68.6358 16.8899 68.6306 16.9177 68.6306 16.9477C68.6306 16.9801 68.6202 17.0079 68.5993 17.031C68.5004 17.29 68.3649 17.5212 68.1931 17.7247C68.1644 17.7617 68.1358 17.7987 68.1097 17.8357C68.0811 17.8681 68.0498 17.8959 68.016 17.919C67.7998 18.1479 67.5498 18.3306 67.266 18.4647C67.2165 18.4786 67.1722 18.4925 67.1306 18.511C67.0889 18.5295 67.0394 18.5434 66.9847 18.548C66.9066 18.5619 66.8285 18.5734 66.7452 18.585C66.667 18.5919 66.5889 18.6012 66.5056 18.6127C66.3519 18.6497 66.1957 18.6775 66.0368 18.696C65.8754 18.7076 65.7087 18.7076 65.5368 18.696C65.4587 18.696 65.3806 18.696 65.2972 18.696C65.2191 18.696 65.1358 18.696 65.0472 18.696C64.8858 18.696 64.7269 18.6821 64.5681 18.6497C64.4561 18.6312 64.3441 18.6197 64.2347 18.6127C64.1228 18.6012 64.0082 18.5919 63.891 18.585C63.8129 18.5619 63.7373 18.5387 63.6618 18.5202C63.5837 18.4971 63.5082 18.4694 63.4327 18.437C63.292 18.3699 63.2061 18.2844 63.1722 18.178C63.1644 18.1294 63.154 18.0855 63.141 18.0485C63.1332 18.0115 63.1228 17.9745 63.1097 17.9375C63.1019 17.8889 63.0915 17.8427 63.0785 17.7987C63.0707 17.7571 63.0603 17.7155 63.0472 17.6785C63.0316 17.5374 63.0212 17.3964 63.016 17.253C63.016 17.105 63.0056 16.9616 62.9847 16.8182C62.9847 16.7627 62.9978 16.7049 63.0264 16.6425C63.0394 16.5754 63.0837 16.5407 63.1618 16.5407C63.2452 16.5662 63.2972 16.5962 63.3181 16.6332C63.3728 16.7072 63.417 16.7859 63.4535 16.8645C63.4952 16.9385 63.5368 17.0125 63.5785 17.0865C63.6957 17.29 63.8597 17.4727 64.0681 17.6322C64.2478 17.7687 64.4457 17.8704 64.6618 17.9375C64.7452 17.9629 64.8337 17.9884 64.9327 18.0115C65.029 18.03 65.1254 18.0392 65.2243 18.0392C65.3545 18.0392 65.4847 18.0392 65.6097 18.0392C65.7399 18.0392 65.8728 18.0346 66.0056 18.0207C66.0316 18.0207 66.0629 18.0207 66.0993 18.0207C66.1332 18.0161 66.1644 18.0069 66.1931 17.993C66.4639 17.8889 66.6306 17.7224 66.6931 17.4935C66.7686 17.3224 66.779 17.1235 66.7243 16.9015C66.6957 16.7974 66.654 16.7165 66.5993 16.661C66.5004 16.5569 66.3962 16.4644 66.2868 16.3835C66.1827 16.2979 66.0629 16.2239 65.9327 16.1615C65.8077 16.0944 65.6774 16.032 65.5472 15.9765C65.4222 15.9164 65.292 15.8562 65.1618 15.8007C65.029 15.7337 64.8962 15.6759 64.766 15.625C64.6332 15.5695 64.5082 15.5094 64.391 15.44C63.9795 15.218 63.6514 14.9382 63.4014 14.5982C63.3806 14.5566 63.3597 14.5196 63.3389 14.4872C63.3181 14.4572 63.2972 14.4202 63.2764 14.3762C63.2347 14.2907 63.1983 14.2074 63.1722 14.1265C63.1306 13.8374 63.1149 13.5507 63.1306 13.2662C63.1306 13.1876 63.1358 13.1136 63.1514 13.0442C63.1644 12.9702 63.1774 12.9009 63.1931 12.8315C63.1931 12.813 63.2035 12.7852 63.2243 12.7482C63.2452 12.6997 63.2816 12.6234 63.3389 12.517C63.4014 12.4129 63.4483 12.3412 63.4847 12.3042C63.5603 12.2187 63.6358 12.1424 63.7139 12.073C63.7972 12.0059 63.8806 11.9389 63.9639 11.8695C63.9847 11.851 64.0004 11.8417 64.016 11.8417C64.029 11.8371 64.0394 11.8279 64.0472 11.814C64.1228 11.7839 64.1983 11.7539 64.2764 11.7215C64.3519 11.6845 64.4274 11.6637 64.5056 11.6567C64.6306 11.6382 64.7556 11.6174 64.8806 11.592C65.0108 11.5689 65.1436 11.5411 65.2764 11.5087C65.2972 11.5041 65.3233 11.4995 65.3597 11.4995C65.4014 11.4995 65.4379 11.4995 65.4743 11.4995C65.654 11.4995 65.8311 11.4995 66.0056 11.4995C66.1853 11.4995 66.3623 11.4995 66.5368 11.4995C66.5915 11.4995 66.6436 11.4995 66.6931 11.4995C66.7399 11.4995 66.7868 11.5087 66.8285 11.5272C66.9457 11.5411 67.0603 11.555 67.1722 11.5735C67.2816 11.592 67.3936 11.6105 67.5056 11.629C67.5889 11.6475 67.6618 11.6752 67.7243 11.7122C67.792 11.7446 67.8649 11.777 67.9431 11.814C67.9691 11.851 67.9978 11.888 68.0264 11.925C68.0524 11.9574 68.0681 11.9967 68.0681 12.0452C68.0811 12.0707 68.0889 12.0984 68.0889 12.1285C68.0941 12.1609 68.0993 12.1886 68.0993 12.2117C68.0993 12.2996 68.0993 12.3852 68.0993 12.4707C68.0993 12.5586 68.0993 12.6534 68.0993 12.7575Z" fill="#773810"/>
<path d="M76.1155 14.811C76.1155 14.9359 76.1155 15.0607 76.1155 15.1902C76.1155 15.3197 76.1077 15.4539 76.0947 15.588C76.0947 15.6435 76.0947 15.7036 76.0947 15.7637C76.0947 15.8192 76.0843 15.8747 76.0635 15.9302C76.0478 15.9857 76.0348 16.0459 76.0218 16.106C76.0062 16.1615 76.001 16.217 76.001 16.2725C76.001 16.476 76.001 16.6795 76.001 16.883C76.001 17.0865 76.0036 17.29 76.0114 17.4935C76.0114 17.5305 76.0166 17.5721 76.0322 17.6137C76.053 17.6577 76.0661 17.697 76.0739 17.734C76.1286 17.8589 76.2041 17.9514 76.303 18.0115C76.3369 18.03 76.3681 18.0485 76.3968 18.067C76.4228 18.0855 76.4411 18.1109 76.4489 18.141C76.5452 18.2335 76.5452 18.3399 76.4489 18.4555C76.4411 18.4809 76.4202 18.4994 76.3864 18.511C76.1494 18.6544 75.9072 18.7237 75.6572 18.7237C75.553 18.7353 75.4411 18.7376 75.3239 18.733C75.2119 18.7261 75.0973 18.7191 74.9801 18.7145C74.876 18.7145 74.777 18.6937 74.6885 18.6497C74.6468 18.6312 74.6051 18.6174 74.5635 18.6035C74.5218 18.5919 74.4723 18.5804 74.4176 18.5665C74.3056 18.5179 74.2249 18.4717 74.178 18.4277C74.1286 18.3977 74.0869 18.3699 74.053 18.3445C74.0244 18.3144 73.9931 18.2844 73.9593 18.252C73.8551 18.1479 73.777 18.0994 73.7301 18.104C73.6885 18.104 73.626 18.1271 73.5426 18.1687C73.4801 18.1872 73.4176 18.2127 73.3551 18.2427C73.2978 18.2682 73.2431 18.2959 73.1885 18.326C73.0556 18.3954 72.9228 18.4532 72.7926 18.5017C72.6676 18.5457 72.527 18.5757 72.376 18.5942C72.3343 18.6081 72.2874 18.6197 72.2405 18.6312C72.1911 18.6451 72.1416 18.659 72.0947 18.6775C72.0244 18.7006 71.9645 18.7145 71.9176 18.7145C71.7718 18.7191 71.6312 18.7191 71.501 18.7145C71.376 18.7145 71.251 18.7076 71.126 18.696C71.0895 18.696 71.0556 18.6937 71.0218 18.6867C70.9931 18.6821 70.9619 18.6752 70.928 18.6682C70.8707 18.6497 70.8135 18.6312 70.751 18.6127C70.6885 18.5942 70.6207 18.5804 70.553 18.5665C70.4124 18.5179 70.2874 18.4509 70.178 18.363C70.0739 18.2774 69.9827 18.178 69.9072 18.067C69.8864 18.03 69.8655 17.993 69.8447 17.956C69.8239 17.9144 69.803 17.8727 69.7822 17.8357C69.7405 17.7502 69.7119 17.6692 69.6989 17.5952C69.6702 17.3247 69.6702 17.0587 69.6989 16.7997C69.7119 16.7581 69.7223 16.7165 69.7301 16.6795C69.7431 16.6379 69.7536 16.5962 69.7614 16.5592C69.7822 16.5107 69.803 16.4667 69.8239 16.4297C69.8499 16.3927 69.8681 16.3557 69.876 16.3187C69.9306 16.2031 69.9931 16.0967 70.0635 16.0042C70.1312 15.9071 70.2119 15.8146 70.303 15.7267C70.4697 15.5741 70.6468 15.4492 70.8343 15.3567C70.9801 15.2712 71.1312 15.1972 71.2926 15.1347C71.4593 15.0746 71.6286 15.0122 71.803 14.9497C71.8291 14.9451 71.8603 14.9382 71.8968 14.9312C71.9306 14.9266 71.9619 14.922 71.9905 14.922C72.1077 14.9035 72.2223 14.8919 72.3343 14.885C72.4515 14.8734 72.5635 14.8642 72.6676 14.8572C72.764 14.8572 72.8603 14.8572 72.9593 14.8572C73.0556 14.8572 73.152 14.8526 73.251 14.8387C73.2718 14.8387 73.2874 14.8364 73.303 14.8295C73.3239 14.8249 73.3369 14.8202 73.3447 14.8202C73.4202 14.8017 73.4749 14.774 73.5114 14.737C73.553 14.7 73.5843 14.6491 73.6051 14.5797C73.639 14.4572 73.6468 14.3161 73.626 14.1542C73.626 14.0386 73.6207 13.923 73.6155 13.812C73.6077 13.6964 73.5999 13.5784 73.5947 13.4605C73.5791 13.4119 73.5687 13.368 73.5635 13.331C73.5635 13.2894 73.553 13.2454 73.5322 13.2015C73.5166 13.146 73.501 13.0951 73.4801 13.0442C73.4593 12.9887 73.4385 12.9332 73.4176 12.8777C73.3968 12.8176 73.3655 12.7644 73.3239 12.7205C73.2874 12.6719 73.2431 12.628 73.1885 12.591C73.1103 12.5309 73.027 12.48 72.9385 12.443C72.8551 12.406 72.7718 12.3736 72.6885 12.3412C72.652 12.3227 72.6181 12.3135 72.5843 12.3135C72.5556 12.3135 72.5244 12.3112 72.4905 12.3042C72.4489 12.3042 72.402 12.3042 72.3551 12.3042C72.3056 12.3042 72.2536 12.3089 72.1989 12.3135C72.0999 12.3135 72.0062 12.3297 71.9176 12.3597C71.8681 12.3782 71.8343 12.3875 71.8135 12.3875C71.4228 12.5239 71.1077 12.7621 70.8655 13.0997C70.8239 13.1437 70.7874 13.1922 70.7614 13.2477C70.7327 13.2986 70.6989 13.3449 70.6572 13.3865C70.6416 13.4119 70.6181 13.4374 70.5843 13.4605C70.5426 13.5114 70.4749 13.5345 70.3864 13.5345C70.2952 13.5345 70.2223 13.5114 70.1676 13.4605C70.1103 13.4119 70.0843 13.3587 70.0843 13.3032C70.0973 13.2547 70.1051 13.2107 70.1051 13.1737C70.1103 13.1367 70.1286 13.0997 70.1572 13.0627C70.178 13.0142 70.1989 12.9749 70.2197 12.9425C70.2457 12.9055 70.2666 12.8685 70.2822 12.8315C70.3577 12.7159 70.4541 12.5956 70.5739 12.4707C70.5791 12.4661 70.5895 12.4592 70.6051 12.4522C70.6181 12.4407 70.6286 12.4291 70.6364 12.4152C70.8707 12.1886 71.1416 12.0244 71.4489 11.925C71.5322 11.9019 71.6181 11.8741 71.7093 11.8417C71.7978 11.8047 71.8916 11.777 71.9905 11.7585C72.0452 11.7469 72.0947 11.7307 72.1364 11.7122C72.178 11.6937 72.2223 11.6799 72.2718 11.666C72.3968 11.6244 72.5218 11.5966 72.6468 11.5827C72.777 11.5642 72.9098 11.555 73.0426 11.555C73.1598 11.555 73.2744 11.5596 73.3864 11.5642C73.5036 11.5712 73.6155 11.5781 73.7197 11.5827C73.8916 11.5827 74.0478 11.6105 74.1885 11.666C74.251 11.6984 74.3082 11.7215 74.3655 11.74C74.428 11.7585 74.4931 11.777 74.5635 11.7955C74.6103 11.8209 74.652 11.8464 74.6885 11.8695C74.7301 11.888 74.7744 11.9065 74.8239 11.925C74.8707 11.9689 74.9228 12.0059 74.9801 12.036C75.0348 12.0684 75.0843 12.1054 75.126 12.147C75.3056 12.2719 75.4645 12.4129 75.6051 12.5725C75.6806 12.6419 75.7562 12.7344 75.8343 12.85C75.8551 12.887 75.876 12.924 75.8968 12.961C75.9176 12.998 75.9332 13.0419 75.9489 13.0905C75.9697 13.1599 75.9905 13.2292 76.0114 13.3032C76.0322 13.3726 76.0478 13.4397 76.0635 13.5067C76.0973 13.6177 76.1155 13.7334 76.1155 13.849C76.1155 14.0039 76.1155 14.1635 76.1155 14.33C76.1155 14.4919 76.1155 14.6514 76.1155 14.811ZM73.6364 16.3742C73.6286 16.2887 73.626 16.2031 73.626 16.1152C73.6312 16.0297 73.6312 15.9441 73.626 15.8562C73.6051 15.7152 73.5244 15.6342 73.3864 15.6157C73.3707 15.6157 73.3551 15.6134 73.3343 15.6065C73.3187 15.6019 73.303 15.5972 73.2822 15.5972C73.0582 15.5787 72.8291 15.5787 72.5947 15.5972C72.4957 15.5972 72.402 15.6134 72.3135 15.6435C72.2353 15.6689 72.1598 15.6967 72.0843 15.7267C72.014 15.7591 71.9332 15.7822 71.8447 15.8007C71.8239 15.8192 71.7978 15.8377 71.7718 15.8562C71.7431 15.8747 71.7197 15.8932 71.6989 15.9117C71.6702 15.9626 71.6416 16.0135 71.6155 16.069C71.5869 16.1199 71.5635 16.1707 71.5426 16.2262C71.5062 16.3141 71.4957 16.3974 71.5114 16.476C71.5374 16.6679 71.6077 16.8275 71.7197 16.957C71.8994 17.1975 72.1468 17.3177 72.4593 17.3177C72.7926 17.2992 73.1103 17.2437 73.4176 17.1512C73.5426 17.1096 73.6155 17.0217 73.6364 16.8922C73.6364 16.8737 73.6364 16.8599 73.6364 16.846C73.6364 16.8275 73.6364 16.8136 73.6364 16.7997C73.6364 16.7257 73.6364 16.6564 73.6364 16.587C73.6364 16.513 73.6364 16.4436 73.6364 16.3742Z" fill="#773810"/>
<mask id="mask0_1_506" style="mask-type:luminance" maskUnits="userSpaceOnUse" x="12" y="0" width="17" height="9">
<path d="M12.3333 0.0639954H29V8.944H12.3333V0.0639954Z" fill="white"/>
</mask>
<g mask="url(#mask0_1_506)">
<mask id="mask1_1_506" style="mask-type:luminance" maskUnits="userSpaceOnUse" x="11" y="-1" width="19" height="12">
<path d="M26.6562 -0.544189L29.3438 6.61762L14.6406 10.9697L11.9531 3.81025L26.6562 -0.544189Z" fill="white"/>
</mask>
<g mask="url(#mask1_1_506)">
<mask id="mask2_1_506" style="mask-type:luminance" maskUnits="userSpaceOnUse" x="11" y="-1" width="19" height="12">
<path d="M26.6562 -0.544189L29.3438 6.61762L14.6406 10.9697L11.9531 3.81025L26.6562 -0.544189Z" fill="white"/>
</mask>
<g mask="url(#mask2_1_506)">
<mask id="mask3_1_506" style="mask-type:luminance" maskUnits="userSpaceOnUse" x="11" y="-1" width="19" height="12">
<path d="M26.6562 -0.544189L29.3438 6.61762L14.6406 10.9697L11.9531 3.81025L26.6562 -0.544189Z" fill="white"/>
</mask>
<g mask="url(#mask3_1_506)">
<path d="M15.5937 6.46731C14.9609 6.65462 13.599 6.17131 12.9974 5.90768C12.4297 5.54462 12.6771 5.47293 13.1745 5.70649C14.6797 6.41412 15.6745 6.23606 15.9844 6.05799C16.388 4.79306 18.5026 1.72899 18.7422 1.80531C18.9323 1.86774 18.375 3.09568 18.0729 3.70387C19.0807 2.10593 19.5573 1.78681 19.6693 1.82612C20.1953 2.33487 17.013 5.90074 17.2135 5.98862C17.375 6.06031 18.0859 5.78049 18.4193 5.63249C18.1901 5.46368 20.1615 2.72799 21.1771 1.37981C21.6302 1.24799 21.3724 1.79143 21.1875 2.07818C22.0547 0.995932 22.2943 0.938119 22.3073 1.04681C22.4583 1.44456 20.724 4.03918 19.8385 5.28562L21.0573 4.85087C21.7526 3.13731 23.2344 1.28962 23.8906 0.577369C24.1094 0.630556 23.9896 1.06531 23.901 1.27574C24.2031 0.565807 24.6224 0.33687 24.7943 0.311432C25.276 0.433994 23.3568 3.13731 22.3385 4.47162L23.0911 4.24962C24.8125 2.23312 26.474 0.995932 27.0885 0.628244C27.25 1.14162 24.9661 3.11418 23.8073 4.03687L26.6693 3.19049C27.2734 3.01243 27.2396 3.21824 27.1458 3.34312L25.5651 3.81256C28.7734 4.78381 28.724 5.13068 28.2969 5.18156C28.8281 5.43824 28.5859 5.46599 28.3958 5.44749C26.3776 5.60243 23.9089 4.94337 22.9271 4.59418L21.6849 4.96187C23.7161 5.20931 27.5052 5.77124 26.401 6.03949C25.2943 6.30774 22.1927 5.61168 20.7786 5.22781L19.7995 5.51918C21.5885 6.04874 25.0807 7.18418 24.7292 7.49406C24.375 7.80624 20.8698 6.43262 19.1589 5.70881L18.2552 5.97474C22.0417 7.25587 22.8958 7.63049 23.0339 7.99587C23.1693 8.36124 21.7292 7.75537 21.7526 7.82243C21.7734 7.87562 21.987 8.14618 22.0911 8.27568C21.6172 8.43524 20.1354 7.94268 18.7292 7.38306C20.8177 8.31268 22.6927 9.24462 20.8724 8.82143C17.7995 8.10456 16.3854 6.23374 15.5937 6.46731Z" fill="#7FA95B"/>
</g>
</g>
</g>
</g>
<path d="M58.9439 24.7085C58.9439 24.8195 58.9439 24.9305 58.9439 25.0415C58.9439 25.1525 58.9465 25.2635 58.9543 25.3745C58.9595 25.393 58.9647 25.4161 58.9647 25.4392C58.9647 25.4577 58.9647 25.4809 58.9647 25.504C58.9699 25.541 58.9777 25.578 58.9856 25.615C58.9908 25.652 58.996 25.6936 58.996 25.7352C59.0012 25.7861 59.0272 25.8231 59.0689 25.8462C59.0897 25.8532 59.1106 25.8624 59.1314 25.874C59.1574 25.8809 59.1835 25.8925 59.2043 25.911C59.2095 25.9179 59.2147 25.9341 59.2147 25.9572C59.2199 25.9757 59.2173 25.9896 59.2043 25.9942C59.1835 26.0081 59.1626 26.0174 59.1418 26.022C59.1001 26.022 59.0611 26.022 59.0272 26.022C58.9908 26.0266 58.9543 26.0312 58.9126 26.0312C58.7512 26.0312 58.5923 26.0266 58.4335 26.022C58.272 26.022 58.1106 26.022 57.9439 26.022C57.9283 26.022 57.9152 26.022 57.9022 26.022C57.8944 26.0174 57.884 26.0127 57.871 26.0127C57.8501 26.0081 57.8319 25.9919 57.8189 25.9665C57.8033 25.948 57.8033 25.9295 57.8189 25.911C57.8397 25.874 57.8632 25.8532 57.8918 25.8462C57.9048 25.8416 57.9152 25.8347 57.9231 25.8277C57.9361 25.8231 57.9491 25.8185 57.9647 25.8185C58.0064 25.7954 58.0324 25.7584 58.0481 25.7075C58.0533 25.689 58.0585 25.6705 58.0585 25.652C58.0637 25.6289 58.0715 25.6034 58.0793 25.578C58.0845 25.5549 58.0897 25.5294 58.0897 25.504C58.0949 25.4739 58.1001 25.4462 58.1001 25.4207C58.1001 25.3537 58.1001 25.2912 58.1001 25.2357C58.1054 25.1756 58.1106 25.1155 58.1106 25.06C58.1106 24.8449 58.1106 24.6299 58.1106 24.4125C58.1106 24.1974 58.1106 23.9824 58.1106 23.765C58.1106 23.7465 58.1106 23.728 58.1106 23.7095C58.1106 23.691 58.1106 23.6771 58.1106 23.6632C58.1027 23.6262 58.0793 23.5892 58.0376 23.5522C58.022 23.5337 58.0012 23.5222 57.9751 23.5152C57.9543 23.5037 57.9335 23.4921 57.9126 23.4782C57.9048 23.4736 57.8944 23.4667 57.8814 23.4597C57.8736 23.4551 57.8658 23.4482 57.8606 23.4412C57.8449 23.4297 57.8397 23.4112 57.8397 23.3857C57.8397 23.3557 57.8527 23.3372 57.8814 23.3302C57.8944 23.3187 57.9074 23.3117 57.9231 23.3117C57.9439 23.3071 57.9647 23.3025 57.9856 23.3025C57.9986 23.2979 58.009 23.2932 58.0168 23.2932C58.0298 23.2886 58.0429 23.284 58.0585 23.284C58.2876 23.284 58.522 23.284 58.7668 23.284C58.7876 23.284 58.8033 23.2886 58.8189 23.2932C58.8319 23.3002 58.8501 23.3071 58.871 23.3117C58.9048 23.3256 58.9283 23.3487 58.9439 23.3857C58.9491 23.3996 58.9543 23.4135 58.9543 23.432C58.9595 23.4459 58.9647 23.4597 58.9647 23.4782C58.9699 23.5037 58.9882 23.5152 59.0168 23.5152C59.0298 23.5152 59.0376 23.5152 59.0376 23.5152C59.0429 23.5152 59.0481 23.5152 59.0481 23.5152C59.0741 23.5106 59.1001 23.5014 59.121 23.4875C59.1418 23.4759 59.1626 23.4644 59.1835 23.4505C59.2173 23.432 59.2512 23.4181 59.2876 23.4042C59.3215 23.3927 59.3527 23.3811 59.3814 23.3672C59.4074 23.3487 59.4439 23.3372 59.4856 23.3302C59.5272 23.3256 59.5637 23.3187 59.6001 23.3117C59.634 23.3002 59.6679 23.2909 59.7043 23.284C59.7251 23.2794 59.7408 23.2747 59.7564 23.2747C59.7772 23.2747 59.7981 23.2724 59.8189 23.2655C59.8449 23.2609 59.8736 23.2562 59.9022 23.2562C59.9361 23.2562 59.9673 23.2562 59.996 23.2562C60.0845 23.2516 60.1757 23.2562 60.2668 23.2747C60.2929 23.2747 60.3241 23.2886 60.3606 23.3117C60.4074 23.3372 60.4387 23.3719 60.4543 23.4135C60.4673 23.4459 60.4699 23.4759 60.4647 23.506C60.4569 23.5199 60.4491 23.5337 60.4439 23.5522C60.4361 23.5707 60.4257 23.5869 60.4126 23.5985C60.4048 23.6124 60.3944 23.6262 60.3814 23.6447C60.3736 23.6586 60.3632 23.6679 60.3501 23.6725C60.3215 23.691 60.2929 23.7072 60.2668 23.7187C60.246 23.7326 60.2173 23.7442 60.1835 23.7557C60.1626 23.7696 60.1366 23.7789 60.1106 23.7835C60.0897 23.7835 60.0637 23.7881 60.0376 23.7927C60.0298 23.7927 60.0194 23.7927 60.0064 23.7927C59.9908 23.7927 59.9777 23.7927 59.9647 23.7927C59.9491 23.7881 59.9335 23.7835 59.9126 23.7835C59.897 23.7835 59.8814 23.7789 59.8606 23.765C59.8319 23.7604 59.8033 23.7511 59.7772 23.7372C59.7486 23.7257 59.7173 23.7141 59.6835 23.7002C59.634 23.6817 59.5741 23.6725 59.5064 23.6725C59.4231 23.6725 59.3501 23.6864 59.2876 23.7095C59.2095 23.7349 59.1366 23.7719 59.0689 23.8205C59.0402 23.8459 59.022 23.8644 59.0168 23.876C58.9673 23.9084 58.9439 23.9546 58.9439 24.0147C58.9439 24.1327 58.9439 24.2506 58.9439 24.3662C58.9439 24.4842 58.9439 24.5975 58.9439 24.7085Z" fill="#773810"/>
<path d="M62.5784 24.6437C62.4794 24.6437 62.3831 24.6437 62.2867 24.6437C62.1877 24.6437 62.0914 24.6437 61.995 24.6437C61.9742 24.6437 61.9482 24.6437 61.9221 24.6437C61.9013 24.6437 61.8752 24.6484 61.8492 24.653C61.8336 24.653 61.818 24.6576 61.7971 24.6622C61.7763 24.6622 61.7555 24.6622 61.7346 24.6622C61.7268 24.6692 61.7164 24.6761 61.7034 24.6807C61.6956 24.6807 61.6877 24.6877 61.6825 24.6992C61.6669 24.6992 61.6617 24.7131 61.6617 24.7362C61.6617 24.7617 61.6617 24.7802 61.6617 24.7917C61.6747 24.8241 61.6877 24.8542 61.7034 24.8842C61.7164 24.9166 61.7268 24.9467 61.7346 24.9767C61.7476 25.0022 61.7607 25.0299 61.7763 25.06C61.7893 25.0854 61.8023 25.1062 61.818 25.1247C61.8596 25.1802 61.9039 25.2357 61.9534 25.2912C62.0002 25.3421 62.0497 25.3884 62.0992 25.43C62.1409 25.467 62.1773 25.4947 62.2138 25.5132C62.2346 25.5202 62.2555 25.5294 62.2763 25.541C62.3023 25.5479 62.3284 25.5549 62.3492 25.5595C62.3831 25.5734 62.4143 25.5849 62.443 25.5965C62.469 25.6034 62.5002 25.6104 62.5367 25.615C62.62 25.6335 62.7034 25.6335 62.7867 25.615C62.8127 25.6104 62.8414 25.6034 62.87 25.5965C62.9039 25.5849 62.9351 25.5734 62.9638 25.5595C62.9976 25.5549 63.0289 25.5479 63.0575 25.541C63.0836 25.5294 63.1122 25.5202 63.1409 25.5132C63.1747 25.5017 63.2138 25.504 63.2555 25.5225C63.2815 25.5294 63.2997 25.5479 63.3075 25.578C63.3206 25.6034 63.3232 25.6289 63.318 25.652C63.3023 25.7029 63.2711 25.7352 63.2242 25.7537C63.1331 25.8092 63.0419 25.8601 62.9534 25.9017C62.8622 25.9387 62.7659 25.9734 62.6617 26.0035C62.6044 26.0266 62.5471 26.0405 62.4846 26.0405C62.3232 26.0405 62.1617 26.0405 61.995 26.0405C61.9456 26.0335 61.8857 26.022 61.818 26.0035C61.719 25.9734 61.62 25.9341 61.5159 25.8832C61.4742 25.8647 61.4351 25.8462 61.4013 25.8277C61.3648 25.8046 61.3284 25.7861 61.2867 25.7722C61.245 25.7491 61.2034 25.7237 61.1617 25.6982C61.1252 25.6682 61.0914 25.6381 61.0575 25.6057C60.9794 25.5387 60.9221 25.467 60.8805 25.393C60.8596 25.3629 60.8388 25.3282 60.818 25.2912C60.8023 25.2542 60.7893 25.2172 60.7763 25.1802C60.7763 25.1756 60.7763 25.1664 60.7763 25.1525C60.7685 25.1109 60.7607 25.0692 60.7555 25.0322C60.7476 24.9952 60.745 24.9582 60.745 24.9212C60.745 24.8102 60.745 24.6992 60.745 24.5882C60.745 24.4957 60.7607 24.4102 60.7971 24.3292C60.7971 24.3177 60.7971 24.3084 60.7971 24.3015C60.8023 24.2899 60.8101 24.2807 60.818 24.2737C60.8232 24.2182 60.8388 24.1697 60.8596 24.1257C60.8857 24.0841 60.9117 24.0402 60.9325 23.9962C60.9664 23.9222 61.0159 23.8575 61.0784 23.802C61.12 23.7604 61.1617 23.7187 61.2034 23.6817C61.2502 23.6447 61.2997 23.6124 61.3492 23.58C61.3752 23.5569 61.4065 23.5384 61.443 23.5245C61.456 23.5199 61.4664 23.5152 61.4742 23.5152C61.4872 23.5106 61.5002 23.5037 61.5159 23.4967C61.5575 23.4782 61.6018 23.4644 61.6513 23.4505C61.6773 23.4459 61.706 23.4366 61.7346 23.4227C61.7685 23.4112 61.7997 23.4019 61.8284 23.395C61.8752 23.3904 61.9247 23.3811 61.9742 23.3672C62.0211 23.3557 62.068 23.3464 62.1096 23.3395C62.1305 23.3349 62.1513 23.3302 62.1721 23.3302C62.193 23.3302 62.2086 23.3279 62.2242 23.321C62.2711 23.3164 62.3206 23.3117 62.37 23.3117C62.4169 23.3117 62.4664 23.3117 62.5159 23.3117C62.6122 23.3187 62.6982 23.3372 62.7763 23.3672C62.8023 23.3811 62.8284 23.3927 62.8492 23.4042C62.8752 23.4181 62.9039 23.432 62.9325 23.4505C62.9586 23.4644 62.9846 23.4782 63.0055 23.4967C63.0315 23.5106 63.0601 23.5222 63.0888 23.5337C63.1148 23.5522 63.1435 23.5754 63.1721 23.5985C63.1982 23.6239 63.2268 23.6494 63.2555 23.6725C63.2555 23.6725 63.2555 23.6771 63.2555 23.6817C63.2607 23.6817 63.2659 23.6887 63.2659 23.7002C63.2789 23.7257 63.2971 23.7696 63.318 23.8297C63.344 23.8852 63.3596 23.9269 63.3596 23.95C63.3648 23.9754 63.3726 24.0032 63.3805 24.0332C63.3857 24.0587 63.3935 24.0841 63.4013 24.1072C63.4221 24.1627 63.4351 24.2229 63.443 24.283C63.4482 24.3454 63.4482 24.4079 63.443 24.468C63.443 24.4819 63.4377 24.4934 63.4325 24.505C63.4325 24.5119 63.4325 24.5212 63.4325 24.5327C63.4247 24.5582 63.4065 24.5836 63.3805 24.6067C63.3518 24.6252 63.3232 24.6345 63.2971 24.6345C63.2763 24.6345 63.2502 24.6391 63.2242 24.6437C63.2034 24.6437 63.1773 24.6437 63.1513 24.6437C63.0471 24.6437 62.9456 24.6437 62.8492 24.6437C62.7581 24.6437 62.6669 24.6437 62.5784 24.6437ZM62.0575 24.431C62.1539 24.431 62.2346 24.431 62.2971 24.431C62.3648 24.431 62.4273 24.431 62.4846 24.431C62.4976 24.431 62.5081 24.431 62.5159 24.431C62.5289 24.4264 62.5419 24.4217 62.5575 24.4217C62.5706 24.4217 62.5836 24.4125 62.5992 24.394C62.62 24.3755 62.6331 24.3616 62.6409 24.3477C62.6461 24.3246 62.6513 24.2992 62.6513 24.2737C62.6565 24.2437 62.6643 24.2159 62.6721 24.1905C62.6773 24.1489 62.6825 24.1049 62.6825 24.061C62.6825 24.0194 62.6773 23.9754 62.6721 23.9315C62.6721 23.9199 62.6721 23.9107 62.6721 23.9037C62.6721 23.8922 62.6643 23.8806 62.6513 23.8667C62.6513 23.8482 62.6461 23.8344 62.6409 23.8205C62.6409 23.802 62.6331 23.7881 62.62 23.7742C62.6122 23.7442 62.5992 23.7187 62.5784 23.7002C62.5575 23.6817 62.5367 23.6632 62.5159 23.6447C62.4586 23.6031 62.3909 23.5892 62.3075 23.6077C62.2711 23.6147 62.2372 23.6239 62.2034 23.6355C62.1669 23.6424 62.1331 23.6517 62.0992 23.6632C62.0784 23.6632 62.0601 23.6702 62.0471 23.6817C62.0315 23.6887 62.0185 23.6979 62.0055 23.7095C61.956 23.7419 61.9117 23.7789 61.87 23.8205C61.8127 23.876 61.7711 23.9407 61.745 24.0147C61.7294 24.0517 61.7164 24.0887 61.7034 24.1257C61.6956 24.1627 61.6851 24.1997 61.6721 24.2367C61.6643 24.2437 61.6617 24.2552 61.6617 24.2737C61.6617 24.2807 61.6617 24.2899 61.6617 24.3015C61.6617 24.3154 61.6617 24.3269 61.6617 24.3385C61.6617 24.357 61.6721 24.3755 61.693 24.394C61.7138 24.4125 61.7346 24.4264 61.7555 24.431C61.8101 24.431 61.8648 24.431 61.9221 24.431C61.9846 24.431 62.0289 24.431 62.0575 24.431Z" fill="#773810"/>
<path d="M64.5479 22.211C64.6156 22.211 64.6859 22.211 64.7563 22.211C64.824 22.211 64.8943 22.211 64.9646 22.211C65.0063 22.211 65.0401 22.2249 65.0688 22.248C65.074 22.2619 65.0818 22.2757 65.0896 22.2942C65.1026 22.3081 65.1104 22.3197 65.1104 22.3312C65.1104 22.3382 65.1104 22.3451 65.1104 22.3497C65.1104 22.3567 65.1104 22.3636 65.1104 22.3682C65.1156 22.3867 65.1208 22.4099 65.1208 22.433C65.1208 22.4584 65.1208 22.4792 65.1208 22.4977C65.1208 22.7521 65.1261 23.0042 65.1417 23.2562C65.1417 23.2886 65.1521 23.3117 65.1729 23.3302C65.199 23.3487 65.2276 23.3626 65.2563 23.3672C65.2693 23.3672 65.2797 23.3719 65.2875 23.3765C65.3005 23.3765 65.3136 23.3765 65.3292 23.3765C65.363 23.3765 65.3969 23.3765 65.4333 23.3765C65.475 23.3765 65.5167 23.3765 65.5583 23.3765C65.5792 23.3765 65.5948 23.3765 65.6104 23.3765C65.6313 23.3765 65.6521 23.3811 65.6729 23.3857C65.686 23.3927 65.7042 23.4042 65.725 23.4227C65.7458 23.4482 65.7511 23.4782 65.7458 23.5152C65.738 23.5337 65.7276 23.5499 65.7146 23.5615C65.699 23.5684 65.686 23.5754 65.6729 23.58C65.6573 23.58 65.6443 23.58 65.6313 23.58C65.6156 23.58 65.6 23.5846 65.5792 23.5892C65.5583 23.5892 65.5375 23.5892 65.5167 23.5892C65.4802 23.5892 65.4438 23.5892 65.4021 23.5892C65.3656 23.5892 65.3318 23.5892 65.2979 23.5892C65.2823 23.5892 65.2693 23.5892 65.2563 23.5892C65.2406 23.5892 65.2276 23.5892 65.2146 23.5892C65.1938 23.5962 65.1729 23.6077 65.1521 23.6262C65.1365 23.6401 65.1313 23.6586 65.1313 23.6817C65.1313 23.6956 65.1261 23.7072 65.1208 23.7187C65.1208 23.7257 65.1208 23.7349 65.1208 23.7465C65.113 23.7904 65.1104 23.8344 65.1104 23.876C65.1104 23.9199 65.1104 23.9639 65.1104 24.0055C65.1104 24.0425 65.1104 24.0795 65.1104 24.1165C65.1104 24.1489 65.1052 24.1789 65.1 24.209C65.1 24.2229 65.0948 24.2367 65.0896 24.2552C65.0896 24.2737 65.0896 24.2922 65.0896 24.3107C65.0896 24.3547 65.0844 24.4009 65.0792 24.4495C65.0792 24.5004 65.0792 24.5512 65.0792 24.6067C65.0714 24.6692 65.0688 24.7339 65.0688 24.801C65.074 24.8704 65.0792 24.9374 65.0792 25.0045C65.0844 25.0415 65.0896 25.0785 65.0896 25.1155C65.0948 25.1525 65.1026 25.1895 65.1104 25.2265C65.1235 25.2635 65.1313 25.2982 65.1313 25.3282C65.1365 25.3606 65.1417 25.393 65.1417 25.43C65.1547 25.4924 65.186 25.5387 65.2354 25.5687C65.2823 25.6127 65.3396 25.6335 65.4021 25.6335C65.4438 25.6335 65.4854 25.6335 65.5271 25.6335C65.5688 25.6335 65.6104 25.6335 65.6521 25.6335C65.6651 25.6404 65.6781 25.6427 65.6938 25.6427C65.7068 25.6427 65.7172 25.6474 65.725 25.652C65.738 25.6589 65.7485 25.6751 65.7563 25.6982C65.7693 25.7167 65.7771 25.7306 65.7771 25.7352C65.7693 25.7722 65.7511 25.8046 65.725 25.8277C65.6964 25.8532 65.6677 25.874 65.6417 25.8925C65.6208 25.8994 65.6 25.9064 65.5792 25.911C65.5636 25.9179 65.5505 25.9272 65.5375 25.9387C65.5219 25.9457 65.5063 25.9526 65.4854 25.9572C65.4698 25.9642 65.4542 25.9711 65.4333 25.9757C65.4125 25.9757 65.3865 25.9804 65.3604 25.985C65.3318 25.9919 65.311 25.9989 65.2979 26.0035C65.2406 26.0174 65.1886 26.022 65.1417 26.022C65.1261 26.022 65.1104 26.022 65.0896 26.022C65.074 26.022 65.0583 26.022 65.0375 26.022C65.0167 26.022 65.0011 26.0197 64.9958 26.0127C64.9542 26.0081 64.9125 26.0012 64.8708 25.9942C64.8292 25.9827 64.7823 25.9734 64.7354 25.9665C64.7276 25.9665 64.7172 25.9642 64.7042 25.9572C64.6964 25.9526 64.6859 25.9457 64.6729 25.9387C64.6313 25.9202 64.5896 25.9064 64.5479 25.8925C64.5115 25.874 64.4776 25.8532 64.4438 25.8277C64.3813 25.8046 64.3292 25.7607 64.2875 25.6982C64.2667 25.6682 64.2484 25.6381 64.2354 25.6057C64.2198 25.5757 64.2068 25.5456 64.1938 25.5132C64.1859 25.5017 64.1833 25.4924 64.1833 25.4855C64.1833 25.4739 64.1833 25.4624 64.1833 25.4485C64.1755 25.4115 64.1729 25.3745 64.1729 25.3375C64.1729 25.2959 64.1729 25.2542 64.1729 25.2172C64.1729 25.1502 64.1677 25.0854 64.1625 25.023C64.1625 24.9559 64.1625 24.8889 64.1625 24.8195C64.1625 24.7594 64.1547 24.7062 64.1417 24.6622C64.1261 24.6322 64.1208 24.6044 64.1208 24.579C64.1208 24.5489 64.1156 24.5212 64.1104 24.4957C64.1104 24.3732 64.1104 24.2529 64.1104 24.135C64.1104 24.0124 64.1104 23.8899 64.1104 23.765C64.1104 23.7465 64.1104 23.7326 64.1104 23.7187C64.1104 23.7002 64.1052 23.6864 64.1 23.6725C64.0922 23.6309 64.0714 23.6054 64.0375 23.5985C64.0089 23.5939 63.9802 23.5892 63.9542 23.5892C63.9333 23.5846 63.9073 23.58 63.8813 23.58C63.8604 23.5754 63.8422 23.5615 63.8292 23.543C63.8083 23.5199 63.8005 23.4875 63.8083 23.4505C63.8214 23.4135 63.8448 23.3904 63.8813 23.3765C63.9151 23.358 63.949 23.3487 63.9854 23.3487C63.9984 23.3441 64.0089 23.3395 64.0167 23.3395C64.0297 23.3395 64.0427 23.3372 64.0583 23.3302C64.0636 23.3256 64.0714 23.3187 64.0792 23.3117C64.0844 23.3002 64.0896 23.2886 64.0896 23.2747C64.1026 23.2632 64.1104 23.2539 64.1104 23.247C64.1104 23.2354 64.1104 23.2239 64.1104 23.21C64.1104 23.0944 64.1104 22.9741 64.1104 22.8492C64.1104 22.7267 64.1104 22.6064 64.1104 22.4885C64.1104 22.4284 64.0818 22.3775 64.0271 22.3405C64.0193 22.3359 64.0167 22.3312 64.0167 22.3312C64.0167 22.3266 64.0115 22.3197 64.0063 22.3127C63.9984 22.3081 63.9984 22.2942 64.0063 22.2757C64.0115 22.2526 64.0219 22.2387 64.0375 22.2387C64.0636 22.2202 64.0896 22.211 64.1104 22.211C64.1781 22.211 64.2511 22.211 64.3292 22.211C64.4047 22.211 64.4776 22.211 64.5479 22.211Z" fill="#773810"/>
<path d="M67.2381 24.7085C67.2381 24.8195 67.2381 24.9305 67.2381 25.0415C67.2381 25.1525 67.2407 25.2635 67.2486 25.3745C67.2538 25.393 67.259 25.4161 67.259 25.4392C67.259 25.4577 67.259 25.4809 67.259 25.504C67.2642 25.541 67.272 25.578 67.2798 25.615C67.285 25.652 67.2902 25.6936 67.2902 25.7352C67.2954 25.7861 67.3215 25.8231 67.3631 25.8462C67.384 25.8532 67.4048 25.8624 67.4256 25.874C67.4517 25.8809 67.4777 25.8925 67.4986 25.911C67.5038 25.9179 67.509 25.9341 67.509 25.9572C67.5142 25.9757 67.5116 25.9896 67.4986 25.9942C67.4777 26.0081 67.4569 26.0174 67.4361 26.022C67.3944 26.022 67.3553 26.022 67.3215 26.022C67.285 26.0266 67.2486 26.0312 67.2069 26.0312C67.0454 26.0312 66.8866 26.0266 66.7277 26.022C66.5663 26.022 66.4048 26.022 66.2381 26.022C66.2225 26.022 66.2095 26.022 66.1965 26.022C66.1887 26.0174 66.1782 26.0127 66.1652 26.0127C66.1444 26.0081 66.1262 25.9919 66.1131 25.9665C66.0975 25.948 66.0975 25.9295 66.1131 25.911C66.134 25.874 66.1574 25.8532 66.1861 25.8462C66.1991 25.8416 66.2095 25.8347 66.2173 25.8277C66.2303 25.8231 66.2434 25.8185 66.259 25.8185C66.3006 25.7954 66.3267 25.7584 66.3423 25.7075C66.3475 25.689 66.3527 25.6705 66.3527 25.652C66.3579 25.6289 66.3657 25.6034 66.3736 25.578C66.3788 25.5549 66.384 25.5294 66.384 25.504C66.3892 25.4739 66.3944 25.4462 66.3944 25.4207C66.3944 25.3537 66.3944 25.2912 66.3944 25.2357C66.3996 25.1756 66.4048 25.1155 66.4048 25.06C66.4048 24.8449 66.4048 24.6299 66.4048 24.4125C66.4048 24.1974 66.4048 23.9824 66.4048 23.765C66.4048 23.7465 66.4048 23.728 66.4048 23.7095C66.4048 23.691 66.4048 23.6771 66.4048 23.6632C66.397 23.6262 66.3736 23.5892 66.3319 23.5522C66.3163 23.5337 66.2954 23.5222 66.2694 23.5152C66.2486 23.5037 66.2277 23.4921 66.2069 23.4782C66.1991 23.4736 66.1887 23.4667 66.1756 23.4597C66.1678 23.4551 66.16 23.4482 66.1548 23.4412C66.1392 23.4297 66.134 23.4112 66.134 23.3857C66.134 23.3557 66.147 23.3372 66.1756 23.3302C66.1887 23.3187 66.2017 23.3117 66.2173 23.3117C66.2381 23.3071 66.259 23.3025 66.2798 23.3025C66.2928 23.2979 66.3032 23.2932 66.3111 23.2932C66.3241 23.2886 66.3371 23.284 66.3527 23.284C66.5819 23.284 66.8163 23.284 67.0611 23.284C67.0819 23.284 67.0975 23.2886 67.1131 23.2932C67.1262 23.3002 67.1444 23.3071 67.1652 23.3117C67.1991 23.3256 67.2225 23.3487 67.2381 23.3857C67.2434 23.3996 67.2486 23.4135 67.2486 23.432C67.2538 23.4459 67.259 23.4597 67.259 23.4782C67.2642 23.5037 67.2824 23.5152 67.3111 23.5152C67.3241 23.5152 67.3319 23.5152 67.3319 23.5152C67.3371 23.5152 67.3423 23.5152 67.3423 23.5152C67.3684 23.5106 67.3944 23.5014 67.4152 23.4875C67.4361 23.4759 67.4569 23.4644 67.4777 23.4505C67.5116 23.432 67.5454 23.4181 67.5819 23.4042C67.6157 23.3927 67.647 23.3811 67.6756 23.3672C67.7017 23.3487 67.7381 23.3372 67.7798 23.3302C67.8215 23.3256 67.8579 23.3187 67.8944 23.3117C67.9282 23.3002 67.9621 23.2909 67.9986 23.284C68.0194 23.2794 68.035 23.2747 68.0506 23.2747C68.0715 23.2747 68.0923 23.2724 68.1131 23.2655C68.1392 23.2609 68.1678 23.2562 68.1965 23.2562C68.2303 23.2562 68.2616 23.2562 68.2902 23.2562C68.3788 23.2516 68.4699 23.2562 68.5611 23.2747C68.5871 23.2747 68.6184 23.2886 68.6548 23.3117C68.7017 23.3372 68.7329 23.3719 68.7486 23.4135C68.7616 23.4459 68.7642 23.4759 68.759 23.506C68.7512 23.5199 68.7434 23.5337 68.7381 23.5522C68.7303 23.5707 68.7199 23.5869 68.7069 23.5985C68.6991 23.6124 68.6887 23.6262 68.6756 23.6447C68.6678 23.6586 68.6574 23.6679 68.6444 23.6725C68.6157 23.691 68.5871 23.7072 68.5611 23.7187C68.5402 23.7326 68.5116 23.7442 68.4777 23.7557C68.4569 23.7696 68.4309 23.7789 68.4048 23.7835C68.384 23.7835 68.3579 23.7881 68.3319 23.7927C68.3241 23.7927 68.3137 23.7927 68.3006 23.7927C68.285 23.7927 68.272 23.7927 68.259 23.7927C68.2434 23.7881 68.2277 23.7835 68.2069 23.7835C68.1913 23.7835 68.1756 23.7789 68.1548 23.765C68.1262 23.7604 68.0975 23.7511 68.0715 23.7372C68.0428 23.7257 68.0116 23.7141 67.9777 23.7002C67.9282 23.6817 67.8684 23.6725 67.8006 23.6725C67.7173 23.6725 67.6444 23.6864 67.5819 23.7095C67.5038 23.7349 67.4309 23.7719 67.3631 23.8205C67.3345 23.8459 67.3163 23.8644 67.3111 23.876C67.2616 23.9084 67.2381 23.9546 67.2381 24.0147C67.2381 24.1327 67.2381 24.2506 67.2381 24.3662C67.2381 24.4842 67.2381 24.5975 67.2381 24.7085Z" fill="#773810"/>
<path d="M70.8726 24.6437C70.7737 24.6437 70.6773 24.6437 70.581 24.6437C70.482 24.6437 70.3857 24.6437 70.2893 24.6437C70.2685 24.6437 70.2424 24.6437 70.2164 24.6437C70.1956 24.6437 70.1695 24.6484 70.1435 24.653C70.1278 24.653 70.1122 24.6576 70.0914 24.6622C70.0706 24.6622 70.0497 24.6622 70.0289 24.6622C70.0211 24.6692 70.0107 24.6761 69.9976 24.6807C69.9898 24.6807 69.982 24.6877 69.9768 24.6992C69.9612 24.6992 69.956 24.7131 69.956 24.7362C69.956 24.7617 69.956 24.7802 69.956 24.7917C69.969 24.8241 69.982 24.8542 69.9976 24.8842C70.0107 24.9166 70.0211 24.9467 70.0289 24.9767C70.0419 25.0022 70.0549 25.0299 70.0706 25.06C70.0836 25.0854 70.0966 25.1062 70.1122 25.1247C70.1539 25.1802 70.1982 25.2357 70.2476 25.2912C70.2945 25.3421 70.344 25.3884 70.3935 25.43C70.4351 25.467 70.4716 25.4947 70.5081 25.5132C70.5289 25.5202 70.5497 25.5294 70.5706 25.541C70.5966 25.5479 70.6226 25.5549 70.6435 25.5595C70.6773 25.5734 70.7086 25.5849 70.7372 25.5965C70.7633 25.6034 70.7945 25.6104 70.831 25.615C70.9143 25.6335 70.9976 25.6335 71.081 25.615C71.107 25.6104 71.1357 25.6034 71.1643 25.5965C71.1982 25.5849 71.2294 25.5734 71.2581 25.5595C71.2919 25.5549 71.3232 25.5479 71.3518 25.541C71.3778 25.5294 71.4065 25.5202 71.4351 25.5132C71.469 25.5017 71.5081 25.504 71.5497 25.5225C71.5758 25.5294 71.594 25.5479 71.6018 25.578C71.6148 25.6034 71.6174 25.6289 71.6122 25.652C71.5966 25.7029 71.5653 25.7352 71.5185 25.7537C71.4273 25.8092 71.3362 25.8601 71.2476 25.9017C71.1565 25.9387 71.0601 25.9734 70.956 26.0035C70.8987 26.0266 70.8414 26.0405 70.7789 26.0405C70.6174 26.0405 70.456 26.0405 70.2893 26.0405C70.2398 26.0335 70.1799 26.022 70.1122 26.0035C70.0133 25.9734 69.9143 25.9341 69.8101 25.8832C69.7685 25.8647 69.7294 25.8462 69.6956 25.8277C69.6591 25.8046 69.6226 25.7861 69.581 25.7722C69.5393 25.7491 69.4976 25.7237 69.456 25.6982C69.4195 25.6682 69.3857 25.6381 69.3518 25.6057C69.2737 25.5387 69.2164 25.467 69.1747 25.393C69.1539 25.3629 69.1331 25.3282 69.1122 25.2912C69.0966 25.2542 69.0836 25.2172 69.0706 25.1802C69.0706 25.1756 69.0706 25.1664 69.0706 25.1525C69.0627 25.1109 69.0549 25.0692 69.0497 25.0322C69.0419 24.9952 69.0393 24.9582 69.0393 24.9212C69.0393 24.8102 69.0393 24.6992 69.0393 24.5882C69.0393 24.4957 69.0549 24.4102 69.0914 24.3292C69.0914 24.3177 69.0914 24.3084 69.0914 24.3015C69.0966 24.2899 69.1044 24.2807 69.1122 24.2737C69.1174 24.2182 69.1331 24.1697 69.1539 24.1257C69.1799 24.0841 69.206 24.0402 69.2268 23.9962C69.2607 23.9222 69.3101 23.8575 69.3726 23.802C69.4143 23.7604 69.456 23.7187 69.4976 23.6817C69.5445 23.6447 69.594 23.6124 69.6435 23.58C69.6695 23.5569 69.7008 23.5384 69.7372 23.5245C69.7502 23.5199 69.7607 23.5152 69.7685 23.5152C69.7815 23.5106 69.7945 23.5037 69.8101 23.4967C69.8518 23.4782 69.8961 23.4644 69.9456 23.4505C69.9716 23.4459 70.0002 23.4366 70.0289 23.4227C70.0627 23.4112 70.094 23.4019 70.1226 23.395C70.1695 23.3904 70.219 23.3811 70.2685 23.3672C70.3153 23.3557 70.3622 23.3464 70.4039 23.3395C70.4247 23.3349 70.4456 23.3302 70.4664 23.3302C70.4872 23.3302 70.5028 23.3279 70.5185 23.321C70.5653 23.3164 70.6148 23.3117 70.6643 23.3117C70.7112 23.3117 70.7607 23.3117 70.8101 23.3117C70.9065 23.3187 70.9924 23.3372 71.0706 23.3672C71.0966 23.3811 71.1226 23.3927 71.1435 23.4042C71.1695 23.4181 71.1982 23.432 71.2268 23.4505C71.2528 23.4644 71.2789 23.4782 71.2997 23.4967C71.3258 23.5106 71.3544 23.5222 71.3831 23.5337C71.4091 23.5522 71.4377 23.5754 71.4664 23.5985C71.4924 23.6239 71.5211 23.6494 71.5497 23.6725C71.5497 23.6725 71.5497 23.6771 71.5497 23.6817C71.5549 23.6817 71.5601 23.6887 71.5601 23.7002C71.5732 23.7257 71.5914 23.7696 71.6122 23.8297C71.6383 23.8852 71.6539 23.9269 71.6539 23.95C71.6591 23.9754 71.6669 24.0032 71.6747 24.0332C71.6799 24.0587 71.6877 24.0841 71.6956 24.1072C71.7164 24.1627 71.7294 24.2229 71.7372 24.283C71.7424 24.3454 71.7424 24.4079 71.7372 24.468C71.7372 24.4819 71.732 24.4934 71.7268 24.505C71.7268 24.5119 71.7268 24.5212 71.7268 24.5327C71.719 24.5582 71.7008 24.5836 71.6747 24.6067C71.6461 24.6252 71.6174 24.6345 71.5914 24.6345C71.5706 24.6345 71.5445 24.6391 71.5185 24.6437C71.4976 24.6437 71.4716 24.6437 71.4456 24.6437C71.3414 24.6437 71.2398 24.6437 71.1435 24.6437C71.0523 24.6437 70.9612 24.6437 70.8726 24.6437ZM70.3518 24.431C70.4482 24.431 70.5289 24.431 70.5914 24.431C70.6591 24.431 70.7216 24.431 70.7789 24.431C70.7919 24.431 70.8023 24.431 70.8101 24.431C70.8232 24.4264 70.8362 24.4217 70.8518 24.4217C70.8648 24.4217 70.8778 24.4125 70.8935 24.394C70.9143 24.3755 70.9273 24.3616 70.9351 24.3477C70.9403 24.3246 70.9456 24.2992 70.9456 24.2737C70.9508 24.2437 70.9586 24.2159 70.9664 24.1905C70.9716 24.1489 70.9768 24.1049 70.9768 24.061C70.9768 24.0194 70.9716 23.9754 70.9664 23.9315C70.9664 23.9199 70.9664 23.9107 70.9664 23.9037C70.9664 23.8922 70.9586 23.8806 70.9456 23.8667C70.9456 23.8482 70.9403 23.8344 70.9351 23.8205C70.9351 23.802 70.9273 23.7881 70.9143 23.7742C70.9065 23.7442 70.8935 23.7187 70.8726 23.7002C70.8518 23.6817 70.831 23.6632 70.8101 23.6447C70.7528 23.6031 70.6851 23.5892 70.6018 23.6077C70.5653 23.6147 70.5315 23.6239 70.4976 23.6355C70.4612 23.6424 70.4273 23.6517 70.3935 23.6632C70.3726 23.6632 70.3544 23.6702 70.3414 23.6817C70.3258 23.6887 70.3127 23.6979 70.2997 23.7095C70.2502 23.7419 70.206 23.7789 70.1643 23.8205C70.107 23.876 70.0653 23.9407 70.0393 24.0147C70.0237 24.0517 70.0107 24.0887 69.9976 24.1257C69.9898 24.1627 69.9794 24.1997 69.9664 24.2367C69.9586 24.2437 69.956 24.2552 69.956 24.2737C69.956 24.2807 69.956 24.2899 69.956 24.3015C69.956 24.3154 69.956 24.3269 69.956 24.3385C69.956 24.357 69.9664 24.3755 69.9872 24.394C70.0081 24.4125 70.0289 24.4264 70.0497 24.431C70.1044 24.431 70.1591 24.431 70.2164 24.431C70.2789 24.431 70.3232 24.431 70.3518 24.431Z" fill="#773810"/>
<path d="M74.5922 24.542C74.5922 24.5929 74.5922 24.6414 74.5922 24.69C74.5922 24.7409 74.587 24.7894 74.5818 24.838C74.5818 24.8634 74.5818 24.8889 74.5818 24.912C74.5818 24.9305 74.5766 24.949 74.5714 24.9675C74.5635 24.9929 74.5557 25.0184 74.5505 25.0415C74.5505 25.06 74.5505 25.0785 74.5505 25.097C74.5505 25.1779 74.5505 25.2589 74.5505 25.3375C74.5505 25.4115 74.5505 25.4855 74.5505 25.5595C74.5505 25.578 74.5531 25.5965 74.5609 25.615C74.5661 25.6289 74.574 25.6404 74.5818 25.652C74.5948 25.7029 74.6234 25.7399 74.6651 25.763C74.6781 25.7699 74.6885 25.7769 74.6964 25.7815C74.7016 25.7884 74.7094 25.7977 74.7172 25.8092C74.751 25.8462 74.751 25.8879 74.7172 25.9295C74.7094 25.9434 74.7016 25.948 74.6964 25.948C74.6052 26.0035 74.5115 26.0312 74.4151 26.0312C74.3734 26.0359 74.3318 26.0359 74.2901 26.0312C74.2484 26.0312 74.2016 26.0312 74.1547 26.0312C74.113 26.0312 74.0766 26.022 74.0505 26.0035C74.0297 25.9989 74.0115 25.9919 73.9984 25.985C73.9828 25.9804 73.9672 25.9757 73.9464 25.9757C73.9047 25.9572 73.8734 25.9387 73.8526 25.9202C73.837 25.9087 73.824 25.8971 73.8109 25.8832C73.7953 25.8717 73.7823 25.8624 73.7693 25.8555C73.7276 25.8139 73.699 25.7954 73.6859 25.8C73.6703 25.8 73.6469 25.8069 73.613 25.8185C73.5844 25.8254 73.5609 25.8347 73.5401 25.8462C73.5193 25.8601 73.4984 25.8717 73.4776 25.8832C73.4281 25.9087 73.3786 25.9295 73.3318 25.948C73.2823 25.9665 73.2276 25.9804 73.1651 25.985C73.1495 25.985 73.1339 25.9896 73.113 25.9942C73.0974 26.0012 73.0818 26.0081 73.0609 26.0127C73.0323 26.0243 73.0089 26.0312 72.988 26.0312C72.9385 26.0312 72.8865 26.0312 72.8318 26.0312C72.7823 26.0312 72.7328 26.0266 72.6859 26.022C72.6781 26.022 72.6677 26.022 72.6547 26.022C72.6391 26.0174 72.626 26.0127 72.613 26.0127C72.5922 26.0081 72.5661 26.0012 72.5401 25.9942C72.5193 25.9827 72.4984 25.9757 72.4776 25.9757C72.4203 25.9572 72.3734 25.9341 72.3318 25.9017C72.2901 25.8647 72.2536 25.8254 72.2276 25.7815C72.2198 25.7699 72.212 25.7584 72.2068 25.7445C72.199 25.726 72.1885 25.7121 72.1755 25.6982C72.1599 25.6612 72.1495 25.6312 72.1443 25.6057C72.1365 25.5017 72.1365 25.3999 72.1443 25.3005C72.1495 25.282 72.1547 25.2681 72.1547 25.2542C72.1599 25.2357 72.1677 25.2219 72.1755 25.208C72.1807 25.1895 72.1885 25.1756 72.1964 25.1617C72.2016 25.1432 72.2094 25.1294 72.2172 25.1155C72.238 25.0739 72.2615 25.0322 72.2901 24.9952C72.3161 24.9582 72.3448 24.9259 72.3734 24.8935C72.4411 24.8334 72.5115 24.7871 72.5818 24.7547C72.6365 24.7177 72.6964 24.69 72.7589 24.6715C72.8214 24.6484 72.8839 24.6229 72.9464 24.5975C72.9594 24.5929 72.9698 24.5882 72.9776 24.5882C72.9906 24.5882 73.0036 24.5882 73.0193 24.5882C73.0661 24.5836 73.113 24.5767 73.1547 24.5697C73.1964 24.5651 73.238 24.5605 73.2797 24.5605C73.3135 24.5605 73.3474 24.5605 73.3839 24.5605C73.4255 24.5605 73.462 24.5582 73.4984 24.5512C73.5036 24.5512 73.5115 24.5512 73.5193 24.5512C73.5245 24.5512 73.5323 24.5512 73.5401 24.5512C73.5661 24.5466 73.587 24.5327 73.6026 24.5142C73.6156 24.5027 73.626 24.4842 73.6339 24.4587C73.6469 24.4102 73.6495 24.3547 73.6443 24.2922C73.6443 24.2506 73.6391 24.2067 73.6339 24.1627C73.6339 24.1211 73.6339 24.0772 73.6339 24.0332C73.626 24.0147 73.6182 23.9962 73.613 23.9777C73.613 23.9592 73.6078 23.9454 73.6026 23.9315C73.6026 23.9084 73.5948 23.8852 73.5818 23.8667C73.574 23.8482 73.5661 23.8274 73.5609 23.802C73.5531 23.7835 73.5427 23.765 73.5297 23.7465C73.5141 23.728 73.4984 23.7141 73.4776 23.7002C73.449 23.6771 73.4177 23.6586 73.3839 23.6447C73.3474 23.6262 73.3161 23.6147 73.2901 23.6077C73.2745 23.5962 73.2615 23.5892 73.2484 23.5892C73.2328 23.5892 73.2224 23.5892 73.2172 23.5892C73.1964 23.5892 73.1755 23.5892 73.1547 23.5892C73.1391 23.5892 73.1234 23.5892 73.1026 23.5892C73.0661 23.5892 73.0297 23.5962 72.988 23.6077C72.9724 23.6147 72.962 23.617 72.9568 23.617C72.8109 23.6725 72.6885 23.765 72.5922 23.8945C72.5766 23.9084 72.5635 23.9269 72.5505 23.95C72.5427 23.9685 72.5297 23.987 72.5089 24.0055C72.5089 24.0124 72.501 24.0217 72.488 24.0332C72.4724 24.0517 72.449 24.061 72.4151 24.061C72.3786 24.061 72.3526 24.0517 72.3318 24.0332C72.3109 24.0147 72.3005 23.9939 72.3005 23.9685C72.3005 23.95 72.3005 23.9361 72.3005 23.9222C72.3057 23.9037 72.3135 23.8899 72.3214 23.876C72.3266 23.8575 72.3344 23.8436 72.3422 23.8297C72.3552 23.8182 72.3656 23.8066 72.3734 23.7927C72.3995 23.7511 72.4359 23.7049 72.4776 23.654C72.4828 23.6494 72.488 23.6447 72.488 23.6447C72.4932 23.6401 72.501 23.6355 72.5089 23.6355C72.5974 23.543 72.699 23.4829 72.8109 23.4505C72.8448 23.4389 72.8786 23.4274 72.9151 23.4135C72.949 23.4019 72.9828 23.3904 73.0193 23.3765C73.0401 23.3765 73.0557 23.3742 73.0714 23.3672C73.0922 23.3557 73.1078 23.3487 73.1234 23.3487C73.1703 23.3302 73.2198 23.3187 73.2693 23.3117C73.324 23.3071 73.376 23.3025 73.4255 23.3025C73.4672 23.3025 73.5089 23.3071 73.5505 23.3117C73.5922 23.3117 73.6339 23.3117 73.6755 23.3117C73.7432 23.3117 73.8031 23.3256 73.8526 23.3487C73.8786 23.3626 73.9047 23.3719 73.9255 23.3765C73.9516 23.3834 73.9776 23.3904 73.9984 23.395C74.0193 23.4019 74.0349 23.4112 74.0505 23.4227C74.0635 23.4297 74.0766 23.4389 74.0922 23.4505C74.113 23.4644 74.1339 23.4759 74.1547 23.4875C74.1755 23.5014 74.1964 23.5129 74.2172 23.5245C74.2849 23.5754 74.3448 23.6309 74.3943 23.691C74.4281 23.7164 74.4594 23.7511 74.488 23.7927C74.4932 23.8112 74.501 23.8274 74.5089 23.839C74.5141 23.8529 74.5219 23.8667 74.5297 23.8852C74.5349 23.9107 74.5427 23.9384 74.5505 23.9685C74.5557 23.9939 74.5635 24.0194 74.5714 24.0425C74.5844 24.0934 74.5922 24.1396 74.5922 24.1812C74.5922 24.2367 74.5922 24.2969 74.5922 24.357C74.5922 24.4194 74.5922 24.4819 74.5922 24.542ZM73.6443 25.134C73.6443 25.1039 73.6443 25.0739 73.6443 25.0415C73.6443 25.0045 73.6443 24.9721 73.6443 24.9397C73.6365 24.8842 73.6052 24.8542 73.5505 24.8472C73.5427 24.8472 73.5349 24.8472 73.5297 24.8472C73.5297 24.8472 73.5219 24.8472 73.5089 24.8472C73.4255 24.8357 73.337 24.8357 73.2484 24.8472C73.212 24.8472 73.1781 24.8519 73.1443 24.8565C73.1156 24.8704 73.087 24.8819 73.0609 24.8935C73.0323 24.9074 73.001 24.9166 72.9672 24.9212C72.9594 24.9282 72.949 24.9351 72.9359 24.9397C72.9281 24.9467 72.9203 24.9559 72.9151 24.9675C72.8995 24.9814 72.8865 24.9999 72.8734 25.023C72.8656 25.0415 72.8578 25.0646 72.8526 25.0877C72.837 25.1201 72.8344 25.1502 72.8422 25.1802C72.8474 25.2496 72.8734 25.3097 72.9151 25.3652C72.9828 25.4531 73.0766 25.4947 73.1964 25.4947C73.3266 25.4901 73.449 25.467 73.5609 25.43C73.6078 25.4184 73.6365 25.3884 73.6443 25.3375C73.6443 25.3259 73.6443 25.319 73.6443 25.319C73.6443 25.3144 73.6443 25.3074 73.6443 25.3005C73.6443 25.2704 73.6443 25.2427 73.6443 25.2172C73.6443 25.1941 73.6443 25.1664 73.6443 25.134Z" fill="#773810"/>
<path d="M75.8549 22.211C75.9226 22.211 75.993 22.211 76.0633 22.211C76.131 22.211 76.2013 22.211 76.2716 22.211C76.3133 22.211 76.3471 22.2249 76.3758 22.248C76.381 22.2619 76.3888 22.2757 76.3966 22.2942C76.4096 22.3081 76.4174 22.3197 76.4174 22.3312C76.4174 22.3382 76.4174 22.3451 76.4174 22.3497C76.4174 22.3567 76.4174 22.3636 76.4174 22.3682C76.4226 22.3867 76.4279 22.4099 76.4279 22.433C76.4279 22.4584 76.4279 22.4792 76.4279 22.4977C76.4279 22.7521 76.4331 23.0042 76.4487 23.2562C76.4487 23.2886 76.4591 23.3117 76.4799 23.3302C76.506 23.3487 76.5346 23.3626 76.5633 23.3672C76.5763 23.3672 76.5867 23.3719 76.5945 23.3765C76.6075 23.3765 76.6206 23.3765 76.6362 23.3765C76.67 23.3765 76.7039 23.3765 76.7404 23.3765C76.782 23.3765 76.8237 23.3765 76.8654 23.3765C76.8862 23.3765 76.9018 23.3765 76.9174 23.3765C76.9383 23.3765 76.9591 23.3811 76.9799 23.3857C76.993 23.3927 77.0112 23.4042 77.032 23.4227C77.0529 23.4482 77.0581 23.4782 77.0529 23.5152C77.045 23.5337 77.0346 23.5499 77.0216 23.5615C77.006 23.5684 76.993 23.5754 76.9799 23.58C76.9643 23.58 76.9513 23.58 76.9383 23.58C76.9226 23.58 76.907 23.5846 76.8862 23.5892C76.8654 23.5892 76.8445 23.5892 76.8237 23.5892C76.7872 23.5892 76.7508 23.5892 76.7091 23.5892C76.6726 23.5892 76.6388 23.5892 76.6049 23.5892C76.5893 23.5892 76.5763 23.5892 76.5633 23.5892C76.5476 23.5892 76.5346 23.5892 76.5216 23.5892C76.5008 23.5962 76.4799 23.6077 76.4591 23.6262C76.4435 23.6401 76.4383 23.6586 76.4383 23.6817C76.4383 23.6956 76.4331 23.7072 76.4279 23.7187C76.4279 23.7257 76.4279 23.7349 76.4279 23.7465C76.42 23.7904 76.4174 23.8344 76.4174 23.876C76.4174 23.9199 76.4174 23.9639 76.4174 24.0055C76.4174 24.0425 76.4174 24.0795 76.4174 24.1165C76.4174 24.1489 76.4122 24.1789 76.407 24.209C76.407 24.2229 76.4018 24.2367 76.3966 24.2552C76.3966 24.2737 76.3966 24.2922 76.3966 24.3107C76.3966 24.3547 76.3914 24.4009 76.3862 24.4495C76.3862 24.5004 76.3862 24.5512 76.3862 24.6067C76.3784 24.6692 76.3758 24.7339 76.3758 24.801C76.381 24.8704 76.3862 24.9374 76.3862 25.0045C76.3914 25.0415 76.3966 25.0785 76.3966 25.1155C76.4018 25.1525 76.4096 25.1895 76.4174 25.2265C76.4305 25.2635 76.4383 25.2982 76.4383 25.3282C76.4435 25.3606 76.4487 25.393 76.4487 25.43C76.4617 25.4924 76.493 25.5387 76.5424 25.5687C76.5893 25.6127 76.6466 25.6335 76.7091 25.6335C76.7508 25.6335 76.7924 25.6335 76.8341 25.6335C76.8758 25.6335 76.9174 25.6335 76.9591 25.6335C76.9721 25.6404 76.9851 25.6427 77.0008 25.6427C77.0138 25.6427 77.0242 25.6474 77.032 25.652C77.045 25.6589 77.0555 25.6751 77.0633 25.6982C77.0763 25.7167 77.0841 25.7306 77.0841 25.7352C77.0763 25.7722 77.0581 25.8046 77.032 25.8277C77.0034 25.8532 76.9747 25.874 76.9487 25.8925C76.9279 25.8994 76.907 25.9064 76.8862 25.911C76.8706 25.9179 76.8575 25.9272 76.8445 25.9387C76.8289 25.9457 76.8133 25.9526 76.7924 25.9572C76.7768 25.9642 76.7612 25.9711 76.7404 25.9757C76.7195 25.9757 76.6935 25.9804 76.6674 25.985C76.6388 25.9919 76.618 25.9989 76.6049 26.0035C76.5476 26.0174 76.4956 26.022 76.4487 26.022C76.4331 26.022 76.4174 26.022 76.3966 26.022C76.381 26.022 76.3654 26.022 76.3445 26.022C76.3237 26.022 76.3081 26.0197 76.3029 26.0127C76.2612 26.0081 76.2195 26.0012 76.1779 25.9942C76.1362 25.9827 76.0893 25.9734 76.0424 25.9665C76.0346 25.9665 76.0242 25.9642 76.0112 25.9572C76.0034 25.9526 75.993 25.9457 75.9799 25.9387C75.9383 25.9202 75.8966 25.9064 75.8549 25.8925C75.8185 25.874 75.7846 25.8532 75.7508 25.8277C75.6883 25.8046 75.6362 25.7607 75.5945 25.6982C75.5737 25.6682 75.5555 25.6381 75.5424 25.6057C75.5268 25.5757 75.5138 25.5456 75.5008 25.5132C75.493 25.5017 75.4904 25.4924 75.4904 25.4855C75.4904 25.4739 75.4904 25.4624 75.4904 25.4485C75.4825 25.4115 75.4799 25.3745 75.4799 25.3375C75.4799 25.2959 75.4799 25.2542 75.4799 25.2172C75.4799 25.1502 75.4747 25.0854 75.4695 25.023C75.4695 24.9559 75.4695 24.8889 75.4695 24.8195C75.4695 24.7594 75.4617 24.7062 75.4487 24.6622C75.4331 24.6322 75.4279 24.6044 75.4279 24.579C75.4279 24.5489 75.4226 24.5212 75.4174 24.4957C75.4174 24.3732 75.4174 24.2529 75.4174 24.135C75.4174 24.0124 75.4174 23.8899 75.4174 23.765C75.4174 23.7465 75.4174 23.7326 75.4174 23.7187C75.4174 23.7002 75.4122 23.6864 75.407 23.6725C75.3992 23.6309 75.3784 23.6054 75.3445 23.5985C75.3159 23.5939 75.2872 23.5892 75.2612 23.5892C75.2404 23.5846 75.2143 23.58 75.1883 23.58C75.1674 23.5754 75.1492 23.5615 75.1362 23.543C75.1154 23.5199 75.1075 23.4875 75.1154 23.4505C75.1284 23.4135 75.1518 23.3904 75.1883 23.3765C75.2221 23.358 75.256 23.3487 75.2924 23.3487C75.3055 23.3441 75.3159 23.3395 75.3237 23.3395C75.3367 23.3395 75.3497 23.3372 75.3654 23.3302C75.3706 23.3256 75.3784 23.3187 75.3862 23.3117C75.3914 23.3002 75.3966 23.2886 75.3966 23.2747C75.4096 23.2632 75.4174 23.2539 75.4174 23.247C75.4174 23.2354 75.4174 23.2239 75.4174 23.21C75.4174 23.0944 75.4174 22.9741 75.4174 22.8492C75.4174 22.7267 75.4174 22.6064 75.4174 22.4885C75.4174 22.4284 75.3888 22.3775 75.3341 22.3405C75.3263 22.3359 75.3237 22.3312 75.3237 22.3312C75.3237 22.3266 75.3185 22.3197 75.3133 22.3127C75.3055 22.3081 75.3055 22.2942 75.3133 22.2757C75.3185 22.2526 75.3289 22.2387 75.3445 22.2387C75.3706 22.2202 75.3966 22.211 75.4174 22.211C75.4851 22.211 75.5581 22.211 75.6362 22.211C75.7117 22.211 75.7846 22.211 75.8549 22.211Z" fill="#773810"/>
</svg>
