<svg width="159" height="12" viewBox="0 0 159 12" fill="none" xmlns="http://www.w3.org/2000/svg">
<path d="M1.47389 5.53955C1.47389 4.96142 1.47389 4.38098 1.47389 3.80055C1.47389 3.22242 1.47389 2.64198 1.47389 2.06155C1.47389 2.00142 1.47389 1.9413 1.47389 1.8858C1.47389 1.8303 1.46607 1.77248 1.45305 1.71005C1.44524 1.63605 1.4166 1.55742 1.36972 1.46955C1.32024 1.38398 1.21868 1.32155 1.06764 1.28455C1.02597 1.26605 0.979095 1.25217 0.93222 1.2383C0.882741 1.2198 0.83847 1.20823 0.796804 1.2013C0.747324 1.17817 0.718679 1.15505 0.71347 1.13655C0.643158 1.11342 0.611908 1.0718 0.61972 1.0163C0.624928 0.956171 0.661387 0.905296 0.723887 0.868296C0.757741 0.849796 0.788991 0.838234 0.817637 0.831296C0.843679 0.819734 0.872324 0.812796 0.90097 0.812796C0.989513 0.801234 1.07285 0.794296 1.15097 0.794296C1.2343 0.794296 1.31764 0.794296 1.40097 0.794296C1.78899 0.794296 2.17701 0.794296 2.56764 0.794296C2.95566 0.794296 3.34889 0.794296 3.74472 0.794296C4.11972 0.794296 4.49472 0.794296 4.86972 0.794296C5.24993 0.794296 5.62493 0.794296 5.99472 0.794296C6.09107 0.794296 6.18482 0.794296 6.27597 0.794296C6.37232 0.794296 6.46868 0.803546 6.56764 0.822046C6.63535 0.835922 6.70305 0.845171 6.76555 0.849796C6.82805 0.849796 6.89316 0.859046 6.96347 0.877546C7.01035 0.891422 7.05722 0.905296 7.09889 0.923796C7.14576 0.937671 7.19264 0.951546 7.2343 0.970046C7.36451 0.995484 7.48691 1.0348 7.59889 1.0903C7.70826 1.14117 7.82024 1.19898 7.93222 1.26605C7.9791 1.30998 8.03118 1.34698 8.08847 1.37705C8.14316 1.40942 8.19785 1.44642 8.25514 1.48805C8.28118 1.50655 8.33066 1.54355 8.40097 1.59905C8.51816 1.69155 8.63014 1.7933 8.7343 1.9043C8.84368 2.0153 8.94785 2.13092 9.0468 2.24655C9.06764 2.26505 9.08326 2.29048 9.09889 2.32055C9.11191 2.34598 9.12493 2.37373 9.14055 2.4038C9.16139 2.4408 9.17701 2.4778 9.19264 2.5148C9.21347 2.5518 9.22649 2.59573 9.2343 2.6443C9.26816 2.6813 9.28639 2.73448 9.28639 2.80155C9.32805 3.00505 9.35149 3.20855 9.3593 3.41205C9.36451 3.61092 9.3541 3.81442 9.32805 4.02255C9.30722 4.18442 9.27076 4.32317 9.22389 4.4388C9.17441 4.5128 9.13274 4.59373 9.09889 4.6793C9.06243 4.76023 9.01816 4.83655 8.96347 4.91055C8.90618 5.01692 8.83847 5.11405 8.75514 5.20655C8.67701 5.29905 8.59368 5.38692 8.50514 5.46555C8.36451 5.59505 8.21868 5.71298 8.06764 5.81705C7.9218 5.92342 7.76035 6.01823 7.58847 6.1038C7.50514 6.1408 7.41399 6.17548 7.31764 6.20555C7.21868 6.23098 7.12493 6.26105 7.03639 6.29805C7.00774 6.31192 6.97649 6.32348 6.94264 6.33505C6.90618 6.34198 6.88014 6.3443 6.8593 6.3443C6.76035 6.35817 6.66399 6.37205 6.56764 6.39055C6.46868 6.40905 6.37493 6.43217 6.28639 6.4553C6.23691 6.46917 6.18743 6.47842 6.14055 6.48305C6.09107 6.48998 6.0416 6.49692 5.99472 6.50155C5.89576 6.51542 5.79941 6.52698 5.70305 6.53855C5.6041 6.54548 5.50774 6.55242 5.41139 6.55705C5.34889 6.57092 5.28118 6.58017 5.21347 6.5848C5.15097 6.5848 5.08847 6.59405 5.02597 6.61255C4.91399 6.64492 4.78118 6.6588 4.63014 6.6588C4.55982 6.67267 4.4843 6.6773 4.40097 6.6773C4.31764 6.6773 4.2343 6.68192 4.15097 6.68655C4.1093 6.70042 4.05722 6.73048 3.99472 6.77905C3.93743 6.82298 3.90357 6.86923 3.89055 6.9178C3.89055 6.93167 3.88535 6.94323 3.88014 6.9548C3.88014 6.96867 3.88014 6.98255 3.88014 7.00105C3.88014 7.04498 3.88014 7.09123 3.88014 7.1398C3.88014 7.18373 3.88014 7.22998 3.88014 7.27855C3.86451 7.45892 3.8593 7.64392 3.8593 7.83355C3.8593 8.01855 3.85149 8.20817 3.83847 8.3978C3.81764 8.80017 3.81764 9.20255 3.83847 9.60955C3.85149 9.65349 3.86191 9.69742 3.86972 9.73905C3.87493 9.78298 3.88274 9.82692 3.89055 9.86855C3.92441 9.97492 3.99993 10.0674 4.11972 10.146C4.21607 10.1969 4.31764 10.2362 4.4218 10.2663C4.53118 10.2917 4.64055 10.331 4.74472 10.3865C4.77857 10.4004 4.80201 10.4374 4.81764 10.4975C4.83847 10.56 4.83326 10.5993 4.80722 10.6178C4.76555 10.6363 4.72389 10.6594 4.68222 10.6825C4.64055 10.708 4.59107 10.7195 4.53639 10.7195C4.52857 10.7195 4.51555 10.7195 4.49472 10.7195C4.4791 10.7195 4.46347 10.7195 4.44264 10.7195C4.42701 10.7195 4.41399 10.7195 4.40097 10.7195C4.38535 10.7195 4.36972 10.7195 4.34889 10.7195C3.7291 10.7265 3.11191 10.7288 2.49472 10.7288C1.87493 10.7288 1.25514 10.7357 0.630137 10.7473C0.58847 10.7473 0.541595 10.745 0.49472 10.738C0.445241 10.7334 0.393158 10.7265 0.33847 10.7195C0.27597 10.701 0.223887 10.671 0.18222 10.627C0.18222 10.553 0.195241 10.5022 0.223887 10.4698C0.24472 10.4328 0.265554 10.412 0.286387 10.405C0.43222 10.3565 0.572846 10.3125 0.71347 10.2755C0.851491 10.2385 0.986908 10.1969 1.11972 10.146C1.14055 10.1275 1.16139 10.109 1.18222 10.0905C1.20826 10.0674 1.2343 10.0443 1.25514 10.0258C1.28118 9.9888 1.2968 9.96105 1.2968 9.94255C1.31764 9.88705 1.33326 9.83617 1.34889 9.7853C1.36191 9.7298 1.37493 9.67198 1.39055 9.60955C1.42441 9.52398 1.44264 9.44073 1.44264 9.3598C1.44785 9.1933 1.45305 9.03374 1.45305 8.8788C1.45305 8.71923 1.45305 8.55967 1.45305 8.3978C1.46607 7.9168 1.47389 7.44042 1.47389 6.96405C1.47389 6.48305 1.47389 6.00898 1.47389 5.53955ZM3.8593 3.83755C3.8593 3.83755 3.86191 3.83755 3.86972 3.83755C3.87493 3.83755 3.88014 3.83755 3.88014 3.83755C3.88014 4.06648 3.88014 4.29542 3.88014 4.52205C3.88014 4.75098 3.88014 4.98455 3.88014 5.22505C3.88014 5.32448 3.88014 5.42392 3.88014 5.52105C3.88014 5.62048 3.88274 5.72223 3.89055 5.8263C3.89055 5.84017 3.89316 5.85173 3.90097 5.8633C3.90618 5.87717 3.91139 5.89567 3.91139 5.9188C3.93222 5.96273 3.96868 6.00667 4.02597 6.0483C4.08847 6.09223 4.14576 6.11305 4.20305 6.11305C4.24993 6.11305 4.29941 6.11305 4.34889 6.11305C4.39576 6.11305 4.44264 6.11073 4.4843 6.1038C4.57285 6.09223 4.65618 6.07605 4.7343 6.05755C4.80982 6.03905 4.88274 6.02517 4.95305 6.0113C5.06243 5.9928 5.15618 5.96505 5.2343 5.92805C5.31764 5.87948 5.40357 5.83555 5.49472 5.79855C5.59107 5.76155 5.67441 5.71992 5.74472 5.66905C5.83326 5.62048 5.91139 5.56498 5.97389 5.50255C6.05722 5.41698 6.13535 5.3268 6.21347 5.2343C6.28899 5.13717 6.3593 5.03773 6.4218 4.9383C6.45566 4.87123 6.49472 4.8088 6.53639 4.7533C6.58326 4.6978 6.63014 4.63767 6.6718 4.5683C6.69264 4.53823 6.70566 4.51048 6.71347 4.48505C6.72649 4.46192 6.73691 4.43648 6.74472 4.41105C6.77076 4.33242 6.79941 4.26073 6.82805 4.1983C6.86191 4.13123 6.89055 4.06417 6.91139 3.9948C6.92441 3.96473 6.93222 3.93698 6.93222 3.91155C6.93222 3.88148 6.93482 3.85142 6.94264 3.81905C6.97649 3.59242 6.97649 3.36348 6.94264 3.13455C6.93482 3.10448 6.93222 3.07673 6.93222 3.0513C6.93222 3.02123 6.9166 2.99117 6.89055 2.9588C6.86972 2.89173 6.84368 2.82698 6.81764 2.76455C6.7968 2.69748 6.77076 2.63042 6.74472 2.56105C6.73691 2.53098 6.72389 2.50323 6.70305 2.4778C6.68743 2.45467 6.6718 2.42923 6.65097 2.4038C6.57285 2.26273 6.46607 2.11705 6.32805 1.96905C6.30722 1.94592 6.26555 1.90198 6.20305 1.83955C6.14576 1.80255 6.09107 1.77248 6.03639 1.74705C5.98691 1.71698 5.92701 1.69155 5.8593 1.67305C5.81764 1.65455 5.77076 1.64067 5.72389 1.6268C5.67441 1.6083 5.63014 1.59442 5.58847 1.58055C5.51035 1.55742 5.43222 1.54123 5.34889 1.5343C5.27076 1.52273 5.18743 1.51117 5.09889 1.4973C4.97389 1.4973 4.84368 1.4973 4.71347 1.4973C4.58847 1.4973 4.45826 1.50423 4.32805 1.5158C4.18743 1.5343 4.08066 1.5898 4.00514 1.6823C3.94785 1.77017 3.91139 1.88117 3.89055 2.0153C3.89055 2.0523 3.88535 2.09392 3.88014 2.13555C3.88014 2.17948 3.88014 2.22573 3.88014 2.2743C3.88014 2.5333 3.88014 2.79692 3.88014 3.06055C3.88014 3.31955 3.87232 3.57855 3.8593 3.83755Z" fill="#773810"/>
<path d="M13.7859 10.8028C13.7781 10.8028 13.739 10.7982 13.6713 10.7935C13.601 10.7935 13.5203 10.7935 13.4317 10.7935C13.3901 10.7935 13.3588 10.7866 13.338 10.775C13.1349 10.7265 12.9369 10.671 12.7442 10.6085C12.5489 10.5484 12.3588 10.4698 12.1713 10.3773C12.101 10.3287 12.0307 10.2848 11.963 10.2478C11.9005 10.2062 11.838 10.1645 11.7755 10.1275C11.6974 10.072 11.6244 10.0165 11.5567 9.96104C11.4864 9.90092 11.4057 9.84079 11.3172 9.78529C11.213 9.69973 11.1088 9.60954 11.0047 9.51704C10.9005 9.41992 10.7989 9.32279 10.7026 9.23029C10.6531 9.16323 10.601 9.09154 10.5463 9.01754C10.489 8.94354 10.4474 8.86723 10.4213 8.78629C10.3849 8.71923 10.3536 8.65217 10.3276 8.58279C10.2989 8.51573 10.2807 8.44404 10.2755 8.37004C10.2599 8.26598 10.2442 8.16654 10.2234 8.07404C10.2026 7.97692 10.1817 7.87748 10.1609 7.77804C10.1192 7.58842 10.1114 7.38723 10.1401 7.17679C10.1609 7.06117 10.1843 6.94554 10.213 6.83454C10.239 6.71892 10.2599 6.60329 10.2755 6.49229C10.2807 6.43217 10.2911 6.37204 10.3067 6.31654C10.3276 6.26104 10.3406 6.21017 10.3484 6.15929C10.3614 6.14079 10.3692 6.12692 10.3692 6.11304C10.3744 6.09454 10.3849 6.08298 10.4005 6.07604C10.4213 6.00898 10.4422 5.93729 10.463 5.86329C10.4838 5.78929 10.5099 5.72223 10.5463 5.65979C10.6505 5.45629 10.7755 5.25742 10.9213 5.05854C11.0255 4.88742 11.1349 4.74867 11.2547 4.64229C11.3093 4.59373 11.3588 4.54748 11.4005 4.50354C11.4422 4.46192 11.4838 4.42029 11.5255 4.38329C11.7338 4.21679 11.9448 4.08267 12.1609 3.97629C12.2156 3.95317 12.2703 3.92773 12.3276 3.90229C12.3901 3.87917 12.4448 3.85142 12.4942 3.81904C12.5698 3.78204 12.6505 3.75198 12.7338 3.72654C12.8172 3.70342 12.8927 3.68723 12.963 3.68029C13.0593 3.64329 13.1531 3.62017 13.2442 3.60629C13.2703 3.59473 13.3015 3.58779 13.338 3.58779C13.3718 3.58317 13.4031 3.57854 13.4317 3.57854C13.6609 3.56004 13.8849 3.56004 14.1088 3.57854C14.1427 3.57854 14.1739 3.58317 14.2026 3.58779C14.2364 3.58779 14.2703 3.59473 14.3067 3.60629C14.4369 3.63867 14.5672 3.65948 14.6922 3.67104C14.8224 3.68492 14.9526 3.69879 15.0776 3.71729C15.1531 3.71729 15.2156 3.73348 15.2651 3.76354C15.3692 3.80054 15.4734 3.84217 15.5776 3.88379C15.6869 3.92079 15.7911 3.96242 15.8901 4.00404C15.9734 4.04798 16.0515 4.09654 16.1297 4.15204C16.2052 4.20292 16.2807 4.25842 16.3588 4.31854C16.3797 4.34398 16.4031 4.36479 16.4317 4.38329C16.4578 4.40179 16.476 4.42029 16.4838 4.43879C16.6557 4.60067 16.7911 4.73248 16.8901 4.83654C16.9864 4.93598 17.0698 5.04698 17.1401 5.16954C17.2078 5.28748 17.2989 5.45167 17.4109 5.65979C17.4578 5.76617 17.5047 5.87254 17.5463 5.98354C17.5932 6.08992 17.6401 6.19398 17.6817 6.29804C17.6948 6.36742 17.7052 6.43679 17.713 6.51079C17.726 6.58017 17.7364 6.65417 17.7442 6.73279C17.7573 6.91317 17.7547 7.09817 17.7338 7.28779C17.7182 7.47279 17.6948 7.66242 17.6609 7.85204C17.6609 7.90754 17.6453 7.96304 17.6192 8.01854C17.5984 8.08792 17.5776 8.15498 17.5567 8.22204C17.5359 8.29142 17.5099 8.36079 17.4838 8.43479C17.463 8.49723 17.4369 8.55504 17.4109 8.61054C17.3901 8.66142 17.364 8.70767 17.338 8.74929C17.3302 8.78167 17.3224 8.81173 17.3172 8.84179C17.3093 8.86723 17.2963 8.89498 17.2755 8.92504C17.2468 8.99904 17.2052 9.07767 17.1505 9.15629C16.8927 9.50317 16.5984 9.80842 16.2651 10.072C16.2286 10.1044 16.1922 10.1345 16.1505 10.1645C16.114 10.19 16.0776 10.2177 16.0359 10.2478C15.9161 10.3102 15.7911 10.375 15.6609 10.442C15.5359 10.5045 15.4031 10.5577 15.2651 10.5993C15.2078 10.6178 15.1453 10.6363 15.0776 10.6548C15.0151 10.6687 14.9526 10.6825 14.8901 10.701C14.6948 10.7704 14.4734 10.8028 14.2234 10.8028C14.1817 10.8028 14.1297 10.8028 14.0672 10.8028C14.0047 10.8028 13.9109 10.8028 13.7859 10.8028ZM12.4317 7.40804C12.4317 7.44504 12.4317 7.50517 12.4317 7.58379C12.4317 7.65779 12.4317 7.73873 12.4317 7.82429C12.4317 8.02317 12.4656 8.22204 12.5359 8.42554C12.5567 8.47642 12.5698 8.52729 12.5776 8.58279C12.5906 8.63829 12.601 8.69379 12.6088 8.74929C12.6427 8.93429 12.7078 9.09848 12.8067 9.23954C12.8614 9.33898 12.9135 9.43379 12.963 9.52629C13.0099 9.61417 13.0672 9.69973 13.1297 9.78529C13.1843 9.85467 13.239 9.92173 13.2963 9.98879C13.3588 10.0582 13.4265 10.1183 13.5047 10.1738C13.5463 10.2108 13.5984 10.2455 13.6609 10.2755C13.8328 10.3449 14.0203 10.3472 14.2234 10.2848C14.2442 10.2802 14.2599 10.2732 14.2755 10.2663C14.2885 10.2617 14.2989 10.2547 14.3067 10.2478C14.3823 10.2062 14.4474 10.1414 14.5047 10.0535C14.5515 9.99804 14.5932 9.93792 14.6297 9.86854C14.6635 9.80148 14.6948 9.73673 14.7234 9.67429C14.7781 9.54017 14.838 9.40604 14.9005 9.27654C14.9682 9.14242 15.0255 9.00598 15.0672 8.86954C15.1218 8.74698 15.1531 8.63598 15.1609 8.53654C15.1817 8.45098 15.1948 8.36542 15.2026 8.27754C15.2156 8.19198 15.239 8.10642 15.2755 8.01854C15.2963 7.97692 15.3093 7.92604 15.3172 7.87054C15.3302 7.81042 15.3432 7.75029 15.3588 7.69479C15.3797 7.47279 15.4161 7.27392 15.4734 7.09354C15.4786 7.06348 15.4864 7.03573 15.4942 7.01029C15.4994 6.98023 15.5047 6.95017 15.5047 6.91779C15.5099 6.83223 15.5151 6.74667 15.5151 6.65879C15.5151 6.57323 15.5047 6.48767 15.4838 6.39979C15.463 6.28879 15.4422 6.17548 15.4213 6.05754C15.4005 5.94192 15.3797 5.83092 15.3588 5.72454C15.3432 5.61354 15.3119 5.50023 15.2651 5.38229C15.2494 5.34529 15.2338 5.30598 15.213 5.26204C15.1974 5.22042 15.1817 5.17879 15.1609 5.14179C15.1192 5.01923 15.0385 4.89667 14.9213 4.77179C14.8432 4.69317 14.7651 4.61917 14.6817 4.54979C14.6036 4.48273 14.5203 4.41798 14.4317 4.35554C14.3484 4.29542 14.2286 4.24454 14.0776 4.20754C13.9578 4.17748 13.838 4.17748 13.713 4.20754C13.5177 4.24454 13.3614 4.34167 13.2442 4.49429C13.2026 4.54517 13.1635 4.59604 13.1297 4.65154C13.0932 4.70242 13.0619 4.75098 13.0359 4.79954C12.9239 4.94754 12.8484 5.10479 12.8067 5.27129C12.7651 5.39617 12.7182 5.51873 12.6713 5.64129C12.6297 5.75923 12.6036 5.88179 12.5984 6.01129C12.5984 6.05523 12.5906 6.09917 12.5776 6.14079C12.5698 6.18473 12.5593 6.22867 12.5463 6.27029C12.5255 6.33967 12.5073 6.40904 12.4942 6.48304C12.4864 6.55242 12.476 6.62642 12.463 6.70504C12.4552 6.79754 12.4474 6.89929 12.4422 7.01029C12.4343 7.12129 12.4317 7.25542 12.4317 7.40804Z" fill="#773810"/>
<path d="M26.7597 7.30629C26.7441 7.57223 26.7337 7.81504 26.7285 8.03704C26.7285 8.25904 26.7311 8.47873 26.7389 8.69379C26.7389 8.86723 26.7389 9.04298 26.7389 9.22104C26.7389 9.39448 26.7441 9.56792 26.7597 9.73904C26.7805 9.92404 26.8665 10.072 27.0201 10.183C27.0618 10.2154 27.0983 10.2432 27.1347 10.2663C27.1764 10.2917 27.218 10.3125 27.2597 10.331C27.2858 10.3634 27.3066 10.3865 27.3222 10.405C27.3769 10.449 27.3977 10.5022 27.3847 10.5623C27.3769 10.5993 27.3274 10.627 27.2389 10.6455C27.2102 10.6594 27.179 10.664 27.1451 10.664C27.1087 10.664 27.0774 10.664 27.0514 10.664C26.9108 10.671 26.7649 10.6733 26.6139 10.6733C26.4602 10.6733 26.3066 10.6733 26.1555 10.6733C25.8352 10.6733 25.5123 10.6733 25.1868 10.6733C24.8665 10.6733 24.541 10.671 24.2076 10.664C24.1712 10.664 24.1373 10.664 24.1035 10.664C24.0748 10.664 24.0436 10.6594 24.0097 10.6455C23.9264 10.627 23.8847 10.5993 23.8847 10.5623C23.8691 10.5022 23.8899 10.449 23.9472 10.405C23.9889 10.375 24.0305 10.3495 24.0722 10.331C24.1191 10.3125 24.166 10.294 24.2076 10.2755C24.291 10.227 24.3535 10.1645 24.3951 10.0905C24.4498 9.96104 24.4785 9.84542 24.4785 9.73904C24.4785 9.69742 24.4811 9.65348 24.4889 9.60954C24.4941 9.56792 24.4993 9.52398 24.4993 9.48004C24.4993 8.90192 24.4993 8.32379 24.4993 7.75029C24.5045 7.17679 24.5097 6.59867 24.5097 6.01129C24.5227 5.95579 24.5253 5.90029 24.5201 5.84479C24.5123 5.78467 24.5045 5.72454 24.4993 5.66904C24.4993 5.63204 24.4915 5.60429 24.4785 5.58579C24.4212 5.40079 24.3535 5.23892 24.2701 5.09554C24.2623 5.07704 24.2493 5.05623 24.2285 5.03079C24.2128 5.00073 24.1972 4.97529 24.1764 4.95679C24.1399 4.90823 24.0957 4.86429 24.041 4.82729C23.9915 4.79029 23.9394 4.75792 23.8847 4.72554C23.8483 4.71398 23.817 4.70473 23.791 4.69779C23.7623 4.68623 23.7337 4.67698 23.7076 4.67004C23.5332 4.60298 23.3378 4.59373 23.1243 4.64229C22.9707 4.66773 22.8222 4.71167 22.6764 4.77179C22.5774 4.80879 22.4889 4.85273 22.4055 4.90129C22.3222 4.94523 22.2441 4.99842 22.1764 5.05854C22.0227 5.16492 21.929 5.31292 21.8951 5.50254C21.8873 5.52798 21.8847 5.55573 21.8847 5.58579C21.8847 5.61817 21.8847 5.64592 21.8847 5.66904C21.8691 6.10148 21.8639 6.53623 21.8639 6.97329C21.8639 7.40573 21.8691 7.83817 21.8847 8.26829C21.8847 8.29373 21.8847 8.32148 21.8847 8.35154C21.8847 8.38392 21.8873 8.41167 21.8951 8.43479C21.929 8.58279 21.9472 8.73079 21.9472 8.87879C21.9472 9.02679 21.9472 9.17248 21.9472 9.31354C21.9524 9.42454 21.9628 9.54017 21.9785 9.65579C21.9915 9.77373 22.0097 9.88704 22.0305 9.99804C22.0566 10.116 22.1373 10.2015 22.2701 10.257C22.3118 10.2709 22.3535 10.2848 22.3951 10.3033C22.4368 10.3218 22.4811 10.3403 22.5305 10.3588C22.5514 10.3727 22.5748 10.3912 22.6035 10.4143C22.6582 10.4467 22.6868 10.4952 22.6868 10.5623C22.6295 10.6062 22.5774 10.634 22.5305 10.6455C22.5097 10.6594 22.4733 10.664 22.4264 10.664C21.8977 10.664 21.3639 10.664 20.8222 10.664C20.2805 10.664 19.7389 10.664 19.1972 10.664C19.1894 10.664 19.1764 10.664 19.1555 10.664C19.1399 10.664 19.1243 10.664 19.1035 10.664C18.9837 10.6409 18.916 10.59 18.8951 10.516C18.8951 10.4975 18.8899 10.4837 18.8847 10.4698C18.8769 10.4513 18.8795 10.4397 18.8951 10.4328C18.9003 10.4027 18.916 10.375 18.9368 10.3495C18.9628 10.3264 18.9889 10.3033 19.0097 10.2848C19.0358 10.2617 19.0644 10.2478 19.093 10.2478C19.1347 10.2293 19.1764 10.2108 19.218 10.1923C19.2597 10.1692 19.3014 10.146 19.343 10.1275C19.3899 10.109 19.4316 10.0859 19.468 10.0535C19.5019 10.0165 19.5253 9.97954 19.541 9.94254C19.5618 9.90554 19.5748 9.86623 19.5826 9.82229C19.5957 9.78067 19.6035 9.73904 19.6035 9.70204C19.6035 9.68354 19.6061 9.66967 19.6139 9.65579C19.6191 9.63729 19.6243 9.62342 19.6243 9.60954C19.6451 9.16554 19.6582 8.68223 19.666 8.15729C19.679 7.62773 19.6868 7.10279 19.6868 6.58479C19.692 6.06217 19.692 5.59273 19.6868 5.17879C19.6868 5.10017 19.6868 5.01692 19.6868 4.92904C19.6868 4.84348 19.6764 4.75792 19.6555 4.67004C19.6555 4.63998 19.6503 4.61223 19.6451 4.58679C19.6373 4.55673 19.6295 4.52667 19.6243 4.49429C19.5878 4.37173 19.5227 4.27692 19.4264 4.20754C19.3847 4.17054 19.343 4.14048 19.3014 4.11504C19.2649 4.09192 19.2285 4.06879 19.1868 4.05029C19.1243 4.02023 19.0748 3.98554 19.041 3.94854C18.9993 3.91154 18.968 3.86067 18.9472 3.79129C18.9472 3.77279 18.9707 3.74273 19.0201 3.69879C19.067 3.65717 19.1061 3.63173 19.1347 3.62479C19.1764 3.60167 19.2076 3.58779 19.2285 3.58779C19.2623 3.58779 19.2936 3.58779 19.3222 3.58779C19.3561 3.58317 19.3899 3.57854 19.4264 3.57854C19.7805 3.57854 20.1373 3.57623 20.4993 3.56929C20.8587 3.56467 21.218 3.56929 21.5722 3.58779C21.7102 3.61323 21.8066 3.68029 21.8639 3.79129C21.8847 3.82367 21.9055 3.87454 21.9264 3.94854C21.9394 3.98092 21.9472 4.01098 21.9472 4.04104C21.9524 4.06648 21.9628 4.09423 21.9785 4.12429C21.9915 4.13123 22.0019 4.13817 22.0097 4.14279C22.0227 4.14973 22.0332 4.16129 22.041 4.17979C22.0957 4.23067 22.1555 4.23529 22.218 4.19829C22.2597 4.17517 22.3014 4.15204 22.343 4.13354C22.3899 4.11504 22.4368 4.09423 22.4785 4.06879C22.5957 3.99017 22.7233 3.92773 22.8639 3.88379C23.0019 3.84217 23.1373 3.79592 23.2701 3.74504C23.4003 3.72192 23.5305 3.69648 23.6555 3.67104C23.7858 3.64098 23.9108 3.61092 24.0305 3.57854C24.0514 3.56698 24.0826 3.56004 24.1243 3.56004C24.304 3.54154 24.4837 3.53229 24.666 3.53229C24.8457 3.52767 25.0253 3.53229 25.2076 3.55079C25.2832 3.55079 25.343 3.56467 25.3847 3.58779C25.5227 3.63867 25.6399 3.68723 25.7389 3.73579C26.0097 3.87223 26.2311 4.04567 26.4055 4.25379C26.4264 4.27229 26.442 4.29542 26.4576 4.31854C26.4707 4.34398 26.4837 4.36942 26.4993 4.39254C26.5201 4.42954 26.541 4.47117 26.5618 4.51279C26.5826 4.54979 26.5983 4.59373 26.6139 4.64229C26.6347 4.67929 26.6477 4.71629 26.6555 4.75329C26.6686 4.79029 26.6816 4.83423 26.6972 4.88279C26.718 5.06317 26.7311 5.24817 26.7389 5.43779C26.7519 5.62973 26.7597 5.82167 26.7597 6.01129C26.7597 6.24717 26.7597 6.47379 26.7597 6.69579C26.7597 6.91317 26.7597 7.11667 26.7597 7.30629Z" fill="#773810"/>
<path d="M35.0889 0.720289C35.2816 0.720289 35.4769 0.720289 35.6722 0.720289C35.8649 0.720289 36.0602 0.720289 36.2555 0.720289C36.318 0.720289 36.3805 0.734163 36.443 0.757289C36.5108 0.775789 36.5576 0.812789 36.5785 0.868289C36.6045 0.923789 36.5889 0.976976 36.5264 1.02554C36.4899 1.05791 36.4691 1.07179 36.4639 1.07179C36.3441 1.12729 36.2269 1.18048 36.1097 1.22904C35.9691 1.29841 35.891 1.41404 35.8701 1.58054C35.8545 1.64991 35.8441 1.71929 35.8389 1.79329C35.8311 1.86729 35.8285 1.94129 35.8285 2.01529C35.8207 2.14016 35.818 2.26504 35.818 2.39454C35.818 2.52404 35.818 2.65816 35.818 2.79229C35.818 3.23166 35.818 3.66641 35.818 4.09654C35.8233 4.52204 35.8337 4.95679 35.8493 5.40079C35.8701 5.54416 35.8701 5.68523 35.8493 5.82629C35.8337 5.99973 35.8285 6.17316 35.8285 6.34429C35.8285 6.51773 35.8285 6.69348 35.8285 6.87154C35.8285 7.27391 35.8285 7.67629 35.8285 8.08329C35.8285 8.49029 35.8285 8.89498 35.8285 9.29504C35.8285 9.38291 35.8285 9.46848 35.8285 9.55404C35.8285 9.64191 35.8285 9.72748 35.8285 9.81304C35.8545 10.0235 35.9535 10.1692 36.1201 10.2478C36.1748 10.2732 36.2347 10.2987 36.2972 10.3218C36.3649 10.3472 36.4222 10.3773 36.4639 10.4143C36.5055 10.4328 36.5316 10.449 36.5472 10.4605C36.568 10.4929 36.5811 10.5207 36.5889 10.5438C36.6019 10.5623 36.6097 10.5877 36.6097 10.6178C36.6149 10.6733 36.5837 10.7195 36.516 10.7565C36.4457 10.7982 36.3832 10.8213 36.3285 10.8213C35.9326 10.8213 35.5394 10.8213 35.1514 10.8213C34.7686 10.8213 34.3832 10.8144 33.9951 10.8028C33.8832 10.7958 33.8024 10.7866 33.7555 10.775C33.7061 10.7635 33.5941 10.7288 33.4222 10.6733C33.3389 10.6432 33.2451 10.6432 33.141 10.6733C33.0915 10.6872 33.0472 10.6987 33.0055 10.7103C32.9639 10.7172 32.9144 10.7288 32.8597 10.7473C32.8519 10.7473 32.8389 10.7519 32.818 10.7565C32.8024 10.7565 32.7868 10.7565 32.766 10.7565C32.7451 10.7704 32.7139 10.775 32.6722 10.775C32.2816 10.7935 31.8858 10.7935 31.4847 10.775C31.4561 10.775 31.4248 10.7727 31.391 10.7658C31.3623 10.7612 31.3311 10.7542 31.2972 10.7473C31.0889 10.6987 30.9066 10.6502 30.7555 10.5993C30.6097 10.5438 30.4561 10.4837 30.2972 10.4143C30.2061 10.3657 30.1201 10.3218 30.0368 10.2848C29.9535 10.2478 29.8649 10.2062 29.7764 10.1553C29.6566 10.0813 29.5212 10.0073 29.3701 9.93329C29.1123 9.76679 28.8858 9.56098 28.693 9.31354C28.6305 9.22798 28.5707 9.13779 28.516 9.04529C28.4665 8.95279 28.4248 8.86029 28.391 8.76779C28.3753 8.71923 28.3623 8.67298 28.3493 8.62904C28.3415 8.58741 28.3285 8.54579 28.3076 8.50879C28.2503 8.36773 28.2243 8.22898 28.2243 8.09254C28.2243 7.90291 28.2243 7.71098 28.2243 7.51904C28.2243 7.32941 28.2243 7.14441 28.2243 6.96404C28.2243 6.84841 28.2295 6.73279 28.2451 6.62179C28.266 6.50616 28.2972 6.38823 28.3389 6.27029C28.3597 6.24716 28.3805 6.19398 28.4014 6.11304C28.4274 6.00204 28.4665 5.89104 28.516 5.78004C28.5707 5.66904 28.6253 5.56498 28.6826 5.46554C28.7582 5.33604 28.8415 5.21348 28.9326 5.09554C29.0212 4.97298 29.1332 4.86429 29.266 4.77179C29.3128 4.73016 29.3597 4.68854 29.4014 4.65154C29.4483 4.61454 29.4951 4.57754 29.5368 4.54054C29.6878 4.42491 29.8545 4.32779 30.0368 4.25379C30.1878 4.18673 30.3389 4.12891 30.4847 4.07804C30.6358 4.02254 30.7816 3.96704 30.9222 3.91154C30.9561 3.89998 30.9873 3.89073 31.016 3.88379C31.0498 3.87916 31.0837 3.87223 31.1201 3.86529C31.2035 3.84679 31.2816 3.83523 31.3597 3.82829C31.4352 3.81673 31.5108 3.79591 31.5889 3.76354C31.7686 3.71498 31.9274 3.68954 32.068 3.68954C32.0889 3.68954 32.1045 3.68954 32.1201 3.68954C32.141 3.68954 32.1566 3.68954 32.1722 3.68954C32.3389 3.68491 32.4639 3.68029 32.5472 3.68029C32.6358 3.68029 32.7347 3.68723 32.8389 3.69879C32.9483 3.70573 33.1123 3.72191 33.3285 3.74504C33.391 3.74504 33.4378 3.71498 33.4743 3.65254C33.4873 3.62248 33.4951 3.59473 33.4951 3.56929C33.4951 3.53923 33.4951 3.50916 33.4951 3.47679C33.4951 3.27329 33.4951 3.06979 33.4951 2.86629C33.4951 2.66279 33.4951 2.45929 33.4951 2.25579C33.4951 2.12629 33.4873 1.99679 33.4743 1.86729C33.4665 1.73779 33.4378 1.61291 33.391 1.48804C33.391 1.46491 33.391 1.44641 33.391 1.43254C33.391 1.42098 33.391 1.40941 33.391 1.39554C33.3701 1.24291 33.3936 1.09954 33.4639 0.970039C33.4847 0.933039 33.5055 0.896039 33.5264 0.859039C33.5524 0.817414 33.5915 0.791976 33.641 0.785039C33.7035 0.743414 33.7608 0.720289 33.818 0.720289C34.0316 0.715663 34.2477 0.715663 34.4639 0.720289C34.6774 0.720289 34.8858 0.720289 35.0889 0.720289ZM33.4951 7.43579C33.4795 6.95479 33.4743 6.53854 33.4743 6.18704C33.4743 5.83554 33.4795 5.49098 33.4951 5.15104C33.4951 5.10941 33.4951 5.06548 33.4951 5.02154C33.4951 4.97991 33.4951 4.93598 33.4951 4.89204C33.4951 4.87354 33.4899 4.85966 33.4847 4.84579C33.4769 4.83423 33.4743 4.82266 33.4743 4.80879C33.4743 4.77179 33.4457 4.72091 33.391 4.65154C33.3701 4.61454 33.3207 4.58216 33.2451 4.54979C33.2035 4.54516 33.1566 4.53823 33.1097 4.53129C33.0602 4.52666 33.0108 4.51973 32.9639 4.51279C32.7686 4.50123 32.5707 4.50354 32.3701 4.52204C32.167 4.53591 31.9691 4.54979 31.7764 4.56829C31.7477 4.57523 31.6878 4.60066 31.5993 4.64229C31.5576 4.66079 31.516 4.68391 31.4743 4.70704C31.4378 4.72554 31.4014 4.75098 31.3597 4.78104C31.0602 5.02154 30.8623 5.31523 30.766 5.65979C30.7503 5.73379 30.7243 5.81473 30.6826 5.90029C30.641 6.04366 30.6097 6.18473 30.5889 6.32579C30.5733 6.49923 30.5394 6.67266 30.4847 6.84379C30.4561 6.92473 30.4535 7.00798 30.4743 7.09354C30.4951 7.18141 30.5186 7.26698 30.5472 7.35254C30.5733 7.43348 30.5993 7.51673 30.6201 7.60229C30.641 7.67166 30.6644 7.73873 30.693 7.80579C30.7269 7.87516 30.7555 7.94223 30.7764 8.00929C30.818 8.10179 30.8649 8.19429 30.9222 8.28679C30.9769 8.37929 31.0368 8.46948 31.0993 8.55504C31.167 8.62904 31.2373 8.70766 31.3076 8.78629C31.3832 8.86029 31.4587 8.93429 31.5368 9.00829C31.667 9.13316 31.8207 9.24416 31.9951 9.34129C32.154 9.43379 32.3311 9.50548 32.5264 9.55404C32.7477 9.61648 32.9743 9.64191 33.2035 9.62804C33.2295 9.62804 33.2582 9.61879 33.2868 9.60029C33.4248 9.55173 33.4951 9.45923 33.4951 9.32279C33.4951 8.96666 33.4951 8.61748 33.4951 8.27754C33.4951 7.93298 33.4951 7.65316 33.4951 7.43579Z" fill="#773810"/>
<path d="M42.5503 7.15829C42.2794 7.15829 42.0138 7.15829 41.7586 7.15829C41.5086 7.15829 41.2612 7.15829 41.019 7.15829C40.9565 7.15829 40.8888 7.15829 40.8211 7.15829C40.7586 7.15829 40.6961 7.16523 40.6336 7.17679C40.5841 7.17679 40.5347 7.18142 40.4878 7.18604C40.4383 7.18604 40.3888 7.19298 40.3419 7.20454C40.3055 7.21842 40.2742 7.22998 40.2482 7.24154C40.2195 7.25542 40.1961 7.26929 40.1753 7.28779C40.1544 7.30167 40.1388 7.33867 40.1336 7.39879C40.1336 7.46123 40.1362 7.50979 40.144 7.54679C40.1779 7.62773 40.2091 7.70867 40.2378 7.78729C40.2716 7.86823 40.3003 7.95148 40.3211 8.03704C40.355 8.10642 40.3888 8.17348 40.4253 8.24054C40.4669 8.30298 40.5086 8.36542 40.5503 8.42554C40.6544 8.56892 40.769 8.70767 40.894 8.84179C41.019 8.97129 41.1492 9.09617 41.2899 9.21179C41.3992 9.31123 41.5034 9.38292 41.6024 9.42454C41.6492 9.45692 41.7013 9.48467 41.7586 9.50779C41.8211 9.53323 41.8862 9.55404 41.9565 9.57254C42.0399 9.59104 42.118 9.61417 42.1961 9.63729C42.2716 9.66273 42.3472 9.68354 42.4253 9.70204C42.6466 9.75754 42.8732 9.75754 43.1024 9.70204C43.1779 9.68354 43.2534 9.66273 43.3315 9.63729C43.4149 9.61417 43.493 9.59104 43.5711 9.57254C43.6466 9.55404 43.7195 9.53323 43.7899 9.50779C43.8654 9.48467 43.9409 9.46154 44.019 9.44304C44.1076 9.41298 44.2065 9.41529 44.3107 9.45229C44.394 9.48467 44.4487 9.53323 44.4774 9.60029C44.5034 9.66967 44.5086 9.73904 44.4878 9.81304C44.4461 9.93098 44.3654 10.0165 44.2482 10.072C44.0112 10.2154 43.7716 10.338 43.5294 10.442C43.2847 10.5484 43.0294 10.6432 42.7586 10.7288C42.618 10.7889 42.4617 10.8213 42.2899 10.8213C41.8732 10.8259 41.4487 10.8259 41.019 10.8213C40.8784 10.8074 40.7222 10.7774 40.5503 10.7288C40.2925 10.6432 40.0216 10.5345 39.7378 10.405C39.6388 10.3565 39.5425 10.3079 39.4461 10.257C39.355 10.2015 39.2612 10.1553 39.1649 10.1183C39.0451 10.0582 38.9357 9.98879 38.8315 9.91479C38.7274 9.84079 38.6336 9.76448 38.5503 9.68354C38.355 9.50548 38.1987 9.32048 38.0815 9.12854C38.0242 9.04298 37.9774 8.95279 37.9357 8.86029C37.894 8.76317 37.855 8.66373 37.8211 8.56429C37.8055 8.54579 37.8003 8.51804 37.8003 8.48104C37.7794 8.37698 37.7612 8.27523 37.7482 8.17579C37.7404 8.07173 37.7378 7.97229 37.7378 7.87979C37.73 7.59073 37.73 7.30398 37.7378 7.01954C37.7378 6.77442 37.7742 6.54317 37.8524 6.32579C37.8654 6.30267 37.8758 6.27723 37.8836 6.25179C37.8966 6.22173 37.907 6.19398 37.9149 6.16854C37.9357 6.03904 37.9722 5.91648 38.0294 5.79854C38.0919 5.67598 38.157 5.55573 38.2274 5.43779C38.3237 5.25973 38.4461 5.09323 38.5919 4.93829C38.7091 4.83423 38.8263 4.73248 38.9461 4.63304C39.0633 4.53592 39.1883 4.44342 39.3211 4.35554C39.3836 4.29542 39.4617 4.25148 39.5607 4.22604C39.5945 4.20754 39.6258 4.19367 39.6544 4.17979C39.6805 4.16823 39.7091 4.15898 39.7378 4.15204C39.8472 4.10348 39.9669 4.05954 40.0919 4.02254C40.1805 4.00404 40.2638 3.98092 40.3419 3.94854C40.4175 3.91154 40.4904 3.88842 40.5607 3.87454C40.6909 3.85604 40.8211 3.83523 40.9461 3.80979C41.0763 3.77973 41.2013 3.74967 41.3211 3.71729C41.3758 3.69879 41.4279 3.68954 41.4774 3.68954C41.5242 3.68954 41.5711 3.68723 41.6128 3.68029C41.743 3.66179 41.8732 3.65254 41.9982 3.65254C42.1284 3.65254 42.2612 3.65254 42.394 3.65254C42.6362 3.67104 42.855 3.71729 43.0503 3.79129C43.1258 3.82829 43.1987 3.86298 43.269 3.89304C43.3367 3.92542 43.4044 3.96242 43.4669 4.00404C43.5425 4.04798 43.6128 4.08729 43.6753 4.12429C43.743 4.16129 43.8159 4.19829 43.894 4.23529C43.9695 4.28617 44.0425 4.34167 44.1128 4.40179C44.1805 4.46423 44.2482 4.52898 44.3107 4.59604C44.3237 4.60298 44.3315 4.61223 44.3315 4.62379C44.3367 4.63767 44.3472 4.65154 44.3628 4.67004C44.3888 4.73942 44.4305 4.85273 44.4878 5.01229C44.5503 5.16723 44.5867 5.27129 44.6024 5.32679C44.6232 5.39617 44.6362 5.46554 44.644 5.53954C44.657 5.60892 44.6805 5.67598 44.7169 5.74304C44.7716 5.89798 44.8055 6.05523 44.8211 6.21479C44.8341 6.36973 44.8367 6.52698 44.8315 6.68654C44.8159 6.71892 44.8055 6.74898 44.8003 6.77904C44.8003 6.80448 44.7925 6.83223 44.7794 6.86229C44.7638 6.93167 44.7195 6.99179 44.644 7.04729C44.5737 7.09817 44.5034 7.12592 44.4357 7.13054C44.3732 7.13054 44.3107 7.13517 44.2482 7.13979C44.1857 7.14673 44.118 7.14904 44.0503 7.14904C43.7794 7.14904 43.519 7.15367 43.269 7.15829C43.019 7.15829 42.7794 7.15829 42.5503 7.15829ZM41.1753 6.60329C41.4253 6.60329 41.6362 6.60329 41.8107 6.60329C41.9826 6.60329 42.1492 6.60329 42.3107 6.60329C42.3367 6.60329 42.3654 6.60098 42.394 6.59404C42.4201 6.58248 42.4513 6.57554 42.4878 6.57554C42.5216 6.56398 42.5607 6.53623 42.6024 6.49229C42.6492 6.45067 42.6805 6.41598 42.6961 6.39054C42.7169 6.31192 42.73 6.24023 42.7378 6.17779C42.7508 6.11073 42.7638 6.04367 42.7794 5.97429C42.8003 5.85867 42.8107 5.74304 42.8107 5.63204C42.8107 5.51642 42.8029 5.39848 42.7899 5.28054C42.782 5.25742 42.7794 5.22967 42.7794 5.19729C42.7794 5.16723 42.769 5.13948 42.7482 5.11404C42.7326 5.06548 42.7195 5.02154 42.7065 4.98454C42.6987 4.94754 42.6857 4.90823 42.6649 4.86429C42.644 4.79029 42.605 4.73017 42.5503 4.67929C42.493 4.62379 42.4409 4.57292 42.394 4.52204C42.2274 4.41104 42.0425 4.37867 41.8419 4.42029C41.743 4.43879 41.6492 4.46192 41.5607 4.48504C41.4695 4.51048 41.3758 4.53823 41.2794 4.56829C41.23 4.57523 41.1857 4.59142 41.144 4.61454C41.1024 4.63998 41.0633 4.66773 41.0294 4.69779C40.9097 4.77179 40.7925 4.87123 40.6753 4.99379C40.5294 5.14179 40.4201 5.31523 40.3524 5.51179C40.3237 5.61123 40.2925 5.71067 40.2586 5.80779C40.2222 5.90029 40.1909 5.99279 40.1649 6.08529C40.1492 6.10379 40.144 6.13154 40.144 6.16854C40.144 6.20092 40.1388 6.23098 40.1336 6.26104C40.1336 6.28648 40.1336 6.31423 40.1336 6.34429C40.1336 6.39517 40.157 6.44604 40.2065 6.50154C40.2612 6.55242 40.3159 6.58017 40.3732 6.58479C40.532 6.59867 40.6857 6.60098 40.8315 6.59404C40.9826 6.58942 41.0972 6.59173 41.1753 6.60329Z" fill="#773810"/>
<path d="M48.9136 7.33404C48.9136 7.61848 48.9162 7.90754 48.924 8.20354C48.9292 8.49492 48.937 8.78398 48.9448 9.07304C48.9578 9.12854 48.9657 9.18404 48.9657 9.23954C48.9657 9.29504 48.9683 9.35517 48.9761 9.41529C48.9969 9.50779 49.0099 9.60723 49.0177 9.71129C49.0308 9.81073 49.0438 9.91248 49.0594 10.0165C49.0802 10.153 49.1453 10.2478 49.2573 10.3033C49.3042 10.3287 49.3615 10.3542 49.424 10.3773C49.4917 10.4027 49.549 10.4328 49.5907 10.4698C49.6245 10.4952 49.6427 10.5345 49.6427 10.59C49.648 10.6455 49.6375 10.6825 49.6115 10.701C49.5542 10.738 49.4969 10.7635 49.4344 10.775C49.3355 10.775 49.2391 10.7774 49.1427 10.7843C49.0438 10.7889 48.9474 10.7935 48.8511 10.7935C48.4188 10.7935 47.9917 10.7889 47.5698 10.7843C47.1532 10.7774 46.7287 10.775 46.299 10.775C46.2625 10.775 46.2287 10.7727 46.1948 10.7658C46.1662 10.7612 46.1349 10.7542 46.1011 10.7473C46.0516 10.7357 46.0099 10.6964 45.9761 10.627C45.9344 10.5854 45.9266 10.5322 45.9552 10.4698C46.0099 10.3773 46.0828 10.3218 46.174 10.3033C46.2 10.2917 46.2287 10.2802 46.2573 10.2663C46.2834 10.2547 46.3146 10.2432 46.3511 10.2293C46.4683 10.1738 46.5412 10.0859 46.5698 9.96104C46.5828 9.90092 46.5933 9.84079 46.6011 9.78529C46.6141 9.72979 46.6245 9.67198 46.6323 9.60954C46.6584 9.54942 46.6766 9.48004 46.6844 9.40604C46.6974 9.33204 46.7052 9.25804 46.7052 9.18404C46.7052 9.02448 46.7052 8.86492 46.7052 8.70304C46.7105 8.54348 46.7157 8.38854 46.7157 8.24054C46.7287 7.67398 46.7365 7.10742 46.7365 6.53854C46.7365 5.97198 46.7365 5.41004 46.7365 4.85504C46.7365 4.80648 46.7365 4.76023 46.7365 4.71629C46.7365 4.66773 46.7287 4.62148 46.7157 4.57754C46.7078 4.47348 46.648 4.37404 46.5386 4.28154C46.4969 4.24454 46.4448 4.21217 46.3823 4.17979C46.325 4.14973 46.2703 4.12198 46.2157 4.09654C46.1948 4.07804 46.1688 4.05954 46.1427 4.04104C46.1141 4.01792 46.0907 4.00173 46.0698 3.99479C46.0282 3.95779 46.0099 3.90692 46.0177 3.83754C46.023 3.77048 46.0594 3.72192 46.1219 3.68954C46.1636 3.67104 46.2078 3.65948 46.2573 3.65254C46.3042 3.64098 46.3511 3.63173 46.3927 3.62479C46.4266 3.61323 46.4578 3.60398 46.4865 3.59704C46.5203 3.59242 46.5542 3.58779 46.5907 3.58779C47.2 3.58317 47.8198 3.58317 48.4448 3.58779C48.4995 3.58779 48.549 3.59473 48.5907 3.60629C48.6323 3.62017 48.674 3.63404 48.7157 3.65254C48.812 3.68954 48.8771 3.75429 48.9136 3.84679C48.9344 3.89073 48.9474 3.93004 48.9552 3.96704C48.9605 4.00404 48.9683 4.04798 48.9761 4.09654C48.9891 4.16592 49.0386 4.19829 49.1219 4.19829C49.1427 4.19829 49.1558 4.19829 49.1636 4.19829C49.1766 4.19829 49.1896 4.19829 49.2052 4.19829C49.2677 4.17517 49.325 4.14742 49.3823 4.11504C49.4448 4.08498 49.4969 4.05492 49.5386 4.02254C49.6271 3.97398 49.7183 3.93467 49.8094 3.90229C49.898 3.86529 49.9891 3.82829 50.0802 3.79129C50.148 3.75429 50.2391 3.72654 50.3511 3.70804C50.4474 3.68954 50.5438 3.66873 50.6427 3.64329C50.7391 3.62017 50.8302 3.59704 50.9136 3.57854C50.9683 3.56698 51.0203 3.56004 51.0698 3.56004C51.1167 3.55542 51.1636 3.54617 51.2052 3.53229C51.2938 3.52767 51.3771 3.52073 51.4552 3.51379C51.5386 3.50917 51.6167 3.50454 51.6948 3.50454C51.9292 3.49992 52.1584 3.51379 52.3823 3.55079C52.4578 3.55773 52.5438 3.59242 52.6427 3.65254C52.7599 3.72654 52.8407 3.81673 52.8823 3.92079C52.9292 3.99479 52.937 4.07573 52.9032 4.16129C52.8875 4.20523 52.8719 4.24917 52.8511 4.29079C52.8302 4.33473 52.8094 4.37404 52.7886 4.41104C52.7677 4.44804 52.7391 4.48504 52.7052 4.52204C52.6766 4.55442 52.6453 4.58217 52.6115 4.60529C52.549 4.65617 52.4813 4.69779 52.4136 4.73479C52.3433 4.76717 52.2625 4.79723 52.174 4.82729C52.1167 4.85273 52.0594 4.87123 51.9969 4.88279C51.9344 4.88973 51.8667 4.89898 51.799 4.91054C51.7703 4.91054 51.7391 4.91054 51.7052 4.91054C51.6766 4.91054 51.6453 4.91054 51.6115 4.91054C51.5698 4.89898 51.523 4.89204 51.4761 4.89204C51.4266 4.88742 51.3745 4.87354 51.3198 4.85504C51.2417 4.82498 51.1688 4.79723 51.1011 4.77179C51.0308 4.74173 50.9552 4.71167 50.8719 4.67929C50.7261 4.62379 50.5698 4.59604 50.4032 4.59604C50.187 4.59604 49.9969 4.63073 49.8302 4.69779C49.6141 4.76717 49.4162 4.86429 49.2365 4.99379C49.174 5.05623 49.1323 5.10017 49.1115 5.12329C48.9787 5.22273 48.9136 5.35223 48.9136 5.51179C48.9136 5.80779 48.9136 6.11073 48.9136 6.41829C48.9136 6.72123 48.9136 7.02648 48.9136 7.33404Z" fill="#773810"/>
<path d="M57.306 10.8028C57.2982 10.8028 57.2591 10.7982 57.1914 10.7935C57.1211 10.7935 57.0404 10.7935 56.9518 10.7935C56.9101 10.7935 56.8789 10.7866 56.8581 10.775C56.6549 10.7265 56.457 10.671 56.2643 10.6085C56.069 10.5484 55.8789 10.4698 55.6914 10.3773C55.6211 10.3287 55.5508 10.2848 55.4831 10.2478C55.4206 10.2062 55.3581 10.1645 55.2956 10.1275C55.2174 10.072 55.1445 10.0165 55.0768 9.96104C55.0065 9.90092 54.9258 9.84079 54.8372 9.78529C54.7331 9.69973 54.6289 9.60954 54.5247 9.51704C54.4206 9.41992 54.319 9.32279 54.2226 9.23029C54.1732 9.16323 54.1211 9.09154 54.0664 9.01754C54.0091 8.94354 53.9674 8.86723 53.9414 8.78629C53.9049 8.71923 53.8737 8.65217 53.8476 8.58279C53.819 8.51573 53.8008 8.44404 53.7956 8.37004C53.7799 8.26598 53.7643 8.16654 53.7435 8.07404C53.7226 7.97692 53.7018 7.87748 53.681 7.77804C53.6393 7.58842 53.6315 7.38723 53.6601 7.17679C53.681 7.06117 53.7044 6.94554 53.7331 6.83454C53.7591 6.71892 53.7799 6.60329 53.7956 6.49229C53.8008 6.43217 53.8112 6.37204 53.8268 6.31654C53.8476 6.26104 53.8607 6.21017 53.8685 6.15929C53.8815 6.14079 53.8893 6.12692 53.8893 6.11304C53.8945 6.09454 53.9049 6.08298 53.9206 6.07604C53.9414 6.00898 53.9622 5.93729 53.9831 5.86329C54.0039 5.78929 54.0299 5.72223 54.0664 5.65979C54.1706 5.45629 54.2956 5.25742 54.4414 5.05854C54.5456 4.88742 54.6549 4.74867 54.7747 4.64229C54.8294 4.59373 54.8789 4.54748 54.9206 4.50354C54.9622 4.46192 55.0039 4.42029 55.0456 4.38329C55.2539 4.21679 55.4648 4.08267 55.681 3.97629C55.7357 3.95317 55.7904 3.92773 55.8476 3.90229C55.9101 3.87917 55.9648 3.85142 56.0143 3.81904C56.0898 3.78204 56.1706 3.75198 56.2539 3.72654C56.3372 3.70342 56.4128 3.68723 56.4831 3.68029C56.5794 3.64329 56.6732 3.62017 56.7643 3.60629C56.7904 3.59473 56.8216 3.58779 56.8581 3.58779C56.8919 3.58317 56.9232 3.57854 56.9518 3.57854C57.181 3.56004 57.4049 3.56004 57.6289 3.57854C57.6628 3.57854 57.694 3.58317 57.7226 3.58779C57.7565 3.58779 57.7904 3.59473 57.8268 3.60629C57.957 3.63867 58.0872 3.65948 58.2122 3.67104C58.3424 3.68492 58.4726 3.69879 58.5976 3.71729C58.6732 3.71729 58.7357 3.73348 58.7851 3.76354C58.8893 3.80054 58.9935 3.84217 59.0976 3.88379C59.207 3.92079 59.3112 3.96242 59.4101 4.00404C59.4935 4.04798 59.5716 4.09654 59.6497 4.15204C59.7253 4.20292 59.8008 4.25842 59.8789 4.31854C59.8997 4.34398 59.9232 4.36479 59.9518 4.38329C59.9779 4.40179 59.9961 4.42029 60.0039 4.43879C60.1758 4.60067 60.3112 4.73248 60.4101 4.83654C60.5065 4.93598 60.5898 5.04698 60.6601 5.16954C60.7279 5.28748 60.819 5.45167 60.931 5.65979C60.9779 5.76617 61.0247 5.87254 61.0664 5.98354C61.1133 6.08992 61.1601 6.19398 61.2018 6.29804C61.2148 6.36742 61.2253 6.43679 61.2331 6.51079C61.2461 6.58017 61.2565 6.65417 61.2643 6.73279C61.2773 6.91317 61.2747 7.09817 61.2539 7.28779C61.2383 7.47279 61.2148 7.66242 61.181 7.85204C61.181 7.90754 61.1654 7.96304 61.1393 8.01854C61.1185 8.08792 61.0976 8.15498 61.0768 8.22204C61.056 8.29142 61.0299 8.36079 61.0039 8.43479C60.9831 8.49723 60.957 8.55504 60.931 8.61054C60.9101 8.66142 60.8841 8.70767 60.8581 8.74929C60.8503 8.78167 60.8424 8.81173 60.8372 8.84179C60.8294 8.86723 60.8164 8.89498 60.7956 8.92504C60.7669 8.99904 60.7253 9.07767 60.6706 9.15629C60.4128 9.50317 60.1185 9.80842 59.7851 10.072C59.7487 10.1044 59.7122 10.1345 59.6706 10.1645C59.6341 10.19 59.5976 10.2177 59.556 10.2478C59.4362 10.3102 59.3112 10.375 59.181 10.442C59.056 10.5045 58.9232 10.5577 58.7851 10.5993C58.7279 10.6178 58.6654 10.6363 58.5976 10.6548C58.5351 10.6687 58.4726 10.6825 58.4101 10.701C58.2148 10.7704 57.9935 10.8028 57.7435 10.8028C57.7018 10.8028 57.6497 10.8028 57.5872 10.8028C57.5247 10.8028 57.431 10.8028 57.306 10.8028ZM55.9518 7.40804C55.9518 7.44504 55.9518 7.50517 55.9518 7.58379C55.9518 7.65779 55.9518 7.73873 55.9518 7.82429C55.9518 8.02317 55.9857 8.22204 56.056 8.42554C56.0768 8.47642 56.0898 8.52729 56.0976 8.58279C56.1107 8.63829 56.1211 8.69379 56.1289 8.74929C56.1628 8.93429 56.2279 9.09848 56.3268 9.23954C56.3815 9.33898 56.4336 9.43379 56.4831 9.52629C56.5299 9.61417 56.5872 9.69973 56.6497 9.78529C56.7044 9.85467 56.7591 9.92173 56.8164 9.98879C56.8789 10.0582 56.9466 10.1183 57.0247 10.1738C57.0664 10.2108 57.1185 10.2455 57.181 10.2755C57.3529 10.3449 57.5404 10.3472 57.7435 10.2848C57.7643 10.2802 57.7799 10.2732 57.7956 10.2663C57.8086 10.2617 57.819 10.2547 57.8268 10.2478C57.9023 10.2062 57.9674 10.1414 58.0247 10.0535C58.0716 9.99804 58.1133 9.93792 58.1497 9.86854C58.1836 9.80148 58.2148 9.73673 58.2435 9.67429C58.2982 9.54017 58.3581 9.40604 58.4206 9.27654C58.4883 9.14242 58.5456 9.00598 58.5872 8.86954C58.6419 8.74698 58.6732 8.63598 58.681 8.53654C58.7018 8.45098 58.7148 8.36542 58.7226 8.27754C58.7357 8.19198 58.7591 8.10642 58.7956 8.01854C58.8164 7.97692 58.8294 7.92604 58.8372 7.87054C58.8503 7.81042 58.8633 7.75029 58.8789 7.69479C58.8997 7.47279 58.9362 7.27392 58.9935 7.09354C58.9987 7.06348 59.0065 7.03573 59.0143 7.01029C59.0195 6.98023 59.0247 6.95017 59.0247 6.91779C59.0299 6.83223 59.0351 6.74667 59.0351 6.65879C59.0351 6.57323 59.0247 6.48767 59.0039 6.39979C58.9831 6.28879 58.9622 6.17548 58.9414 6.05754C58.9206 5.94192 58.8997 5.83092 58.8789 5.72454C58.8633 5.61354 58.832 5.50023 58.7851 5.38229C58.7695 5.34529 58.7539 5.30598 58.7331 5.26204C58.7174 5.22042 58.7018 5.17879 58.681 5.14179C58.6393 5.01923 58.5586 4.89667 58.4414 4.77179C58.3633 4.69317 58.2851 4.61917 58.2018 4.54979C58.1237 4.48273 58.0404 4.41798 57.9518 4.35554C57.8685 4.29542 57.7487 4.24454 57.5976 4.20754C57.4779 4.17748 57.3581 4.17748 57.2331 4.20754C57.0378 4.24454 56.8815 4.34167 56.7643 4.49429C56.7226 4.54517 56.6836 4.59604 56.6497 4.65154C56.6133 4.70242 56.582 4.75098 56.556 4.79954C56.444 4.94754 56.3685 5.10479 56.3268 5.27129C56.2851 5.39617 56.2383 5.51873 56.1914 5.64129C56.1497 5.75923 56.1237 5.88179 56.1185 6.01129C56.1185 6.05523 56.1107 6.09917 56.0976 6.14079C56.0898 6.18473 56.0794 6.22867 56.0664 6.27029C56.0456 6.33967 56.0273 6.40904 56.0143 6.48304C56.0065 6.55242 55.9961 6.62642 55.9831 6.70504C55.9753 6.79754 55.9674 6.89929 55.9622 7.01029C55.9544 7.12129 55.9518 7.25542 55.9518 7.40804Z" fill="#773810"/>
<path d="M67.4985 4.83654C67.4985 4.90591 67.4985 4.98222 67.4985 5.06779C67.4985 5.15566 67.4985 5.24122 67.4985 5.32679C67.4985 5.35916 67.4907 5.38922 67.4777 5.41929C67.4699 5.44472 67.4621 5.47247 67.4569 5.50254C67.4204 5.55804 67.3735 5.58116 67.311 5.56729C67.2329 5.56729 67.1782 5.54647 67.1444 5.50254C67.1365 5.47247 67.1235 5.44472 67.1027 5.41929C67.0871 5.39616 67.074 5.37072 67.061 5.34529C67.0402 5.25972 67.0089 5.17647 66.9673 5.09554C66.9256 5.00997 66.8865 4.92904 66.8527 4.85504C66.7746 4.72091 66.6808 4.60066 66.5714 4.49429C66.4673 4.39022 66.3423 4.30466 66.1964 4.23529C66.1391 4.21679 66.0766 4.19597 66.0089 4.17054C65.9464 4.14741 65.8891 4.12429 65.8423 4.10579C65.8058 4.08729 65.772 4.07804 65.7381 4.07804C65.7095 4.07804 65.6782 4.07572 65.6444 4.06879C65.5454 4.05722 65.449 4.04797 65.3527 4.04104C65.2537 4.03641 65.1574 4.04566 65.061 4.06879C64.824 4.09422 64.6287 4.18904 64.4777 4.35554C64.436 4.39254 64.397 4.43879 64.3631 4.49429C64.3345 4.56366 64.3058 4.63072 64.2798 4.69779C64.2511 4.76716 64.2277 4.83191 64.2069 4.89204C64.1912 4.95447 64.1912 5.01229 64.2069 5.06779C64.2407 5.20422 64.3214 5.32679 64.4464 5.43779C64.6391 5.64129 64.8631 5.81241 65.1131 5.94654C65.2303 6.00897 65.3475 6.07604 65.4673 6.15004C65.5923 6.22404 65.7199 6.29572 65.8527 6.36279C66.0037 6.42522 66.147 6.49922 66.2798 6.58479C66.4178 6.66572 66.5558 6.74204 66.6964 6.81604C66.9725 6.98947 67.2199 7.17216 67.436 7.36179C67.6287 7.52366 67.7746 7.71329 67.8735 7.93529C67.8944 7.97229 67.9152 8.01391 67.936 8.05554C67.9569 8.09254 67.9725 8.12954 67.9881 8.16654C68.0089 8.20354 68.022 8.24516 68.0298 8.28679C68.0428 8.33072 68.0506 8.37697 68.0506 8.42554C68.0714 8.59897 68.0714 8.77241 68.0506 8.94354C68.035 8.96897 68.0298 8.99672 68.0298 9.02679C68.0298 9.05916 68.0194 9.08691 67.9985 9.11004C67.8996 9.36904 67.7641 9.60029 67.5923 9.80379C67.5636 9.84079 67.535 9.87779 67.5089 9.91479C67.4803 9.94716 67.449 9.97491 67.4152 9.99804C67.199 10.227 66.949 10.4097 66.6652 10.5438C66.6157 10.5577 66.5714 10.5715 66.5298 10.59C66.4881 10.6085 66.4386 10.6224 66.3839 10.627C66.3058 10.6409 66.2277 10.6525 66.1444 10.664C66.0662 10.671 65.9881 10.6802 65.9048 10.6918C65.7511 10.7288 65.5949 10.7565 65.436 10.775C65.2746 10.7866 65.1079 10.7866 64.936 10.775C64.8579 10.775 64.7798 10.775 64.6964 10.775C64.6183 10.775 64.535 10.775 64.4464 10.775C64.285 10.775 64.1261 10.7612 63.9673 10.7288C63.8553 10.7103 63.7433 10.6987 63.6339 10.6918C63.522 10.6802 63.4074 10.671 63.2902 10.664C63.2121 10.6409 63.1365 10.6178 63.061 10.5993C62.9829 10.5762 62.9074 10.5484 62.8319 10.516C62.6912 10.449 62.6053 10.3634 62.5714 10.257C62.5636 10.2085 62.5532 10.1645 62.5402 10.1275C62.5324 10.0905 62.522 10.0535 62.5089 10.0165C62.5011 9.96797 62.4907 9.92172 62.4777 9.87779C62.4699 9.83616 62.4595 9.79454 62.4464 9.75754C62.4308 9.61647 62.4204 9.47541 62.4152 9.33204C62.4152 9.18404 62.4048 9.04066 62.3839 8.89729C62.3839 8.84179 62.397 8.78397 62.4256 8.72154C62.4386 8.65447 62.4829 8.61979 62.561 8.61979C62.6444 8.64522 62.6964 8.67529 62.7173 8.71229C62.772 8.78629 62.8162 8.86491 62.8527 8.94354C62.8944 9.01754 62.936 9.09154 62.9777 9.16554C63.0949 9.36904 63.2589 9.55172 63.4673 9.71129C63.647 9.84772 63.8449 9.94947 64.061 10.0165C64.1444 10.042 64.2329 10.0674 64.3319 10.0905C64.4282 10.109 64.5246 10.1183 64.6235 10.1183C64.7537 10.1183 64.8839 10.1183 65.0089 10.1183C65.1391 10.1183 65.272 10.1137 65.4048 10.0998C65.4308 10.0998 65.4621 10.0998 65.4985 10.0998C65.5324 10.0952 65.5636 10.0859 65.5923 10.072C65.8631 9.96797 66.0298 9.80147 66.0923 9.57254C66.1678 9.40141 66.1782 9.20254 66.1235 8.98054C66.0949 8.87647 66.0532 8.79554 65.9985 8.74004C65.8996 8.63597 65.7954 8.54347 65.686 8.46254C65.5819 8.37697 65.4621 8.30297 65.3319 8.24054C65.2069 8.17347 65.0766 8.11104 64.9464 8.05554C64.8214 7.99541 64.6912 7.93529 64.561 7.87979C64.4282 7.81272 64.2954 7.75491 64.1652 7.70404C64.0324 7.64854 63.9074 7.58841 63.7902 7.51904C63.3787 7.29704 63.0506 7.01722 62.8006 6.67729C62.7798 6.63566 62.7589 6.59866 62.7381 6.56629C62.7173 6.53622 62.6964 6.49922 62.6756 6.45529C62.6339 6.36972 62.5975 6.28647 62.5714 6.20554C62.5298 5.91647 62.5141 5.62972 62.5298 5.34529C62.5298 5.26666 62.535 5.19266 62.5506 5.12329C62.5636 5.04929 62.5766 4.97991 62.5923 4.91054C62.5923 4.89204 62.6027 4.86429 62.6235 4.82729C62.6444 4.77872 62.6808 4.70241 62.7381 4.59604C62.8006 4.49197 62.8475 4.42029 62.8839 4.38329C62.9595 4.29772 63.035 4.22141 63.1131 4.15204C63.1964 4.08497 63.2798 4.01791 63.3631 3.94854C63.3839 3.93004 63.3996 3.92079 63.4152 3.92079C63.4282 3.91616 63.4386 3.90691 63.4464 3.89304C63.522 3.86297 63.5975 3.83291 63.6756 3.80054C63.7511 3.76354 63.8266 3.74272 63.9048 3.73579C64.0298 3.71729 64.1548 3.69647 64.2798 3.67104C64.41 3.64791 64.5428 3.62016 64.6756 3.58779C64.6964 3.58316 64.7225 3.57854 64.7589 3.57854C64.8006 3.57854 64.8371 3.57854 64.8735 3.57854C65.0532 3.57854 65.2303 3.57854 65.4048 3.57854C65.5845 3.57854 65.7615 3.57854 65.936 3.57854C65.9907 3.57854 66.0428 3.57854 66.0923 3.57854C66.1391 3.57854 66.186 3.58779 66.2277 3.60629C66.3449 3.62016 66.4595 3.63404 66.5714 3.65254C66.6808 3.67104 66.7928 3.68954 66.9048 3.70804C66.9881 3.72654 67.061 3.75429 67.1235 3.79129C67.1912 3.82366 67.2641 3.85604 67.3423 3.89304C67.3683 3.93004 67.397 3.96704 67.4256 4.00404C67.4516 4.03641 67.4673 4.07572 67.4673 4.12429C67.4803 4.14972 67.4881 4.17747 67.4881 4.20754C67.4933 4.23991 67.4985 4.26766 67.4985 4.29079C67.4985 4.37866 67.4985 4.46422 67.4985 4.54979C67.4985 4.63766 67.4985 4.73247 67.4985 4.83654Z" fill="#773810"/>
<path d="M75.5147 6.89004C75.5147 7.01492 75.5147 7.13979 75.5147 7.26929C75.5147 7.39879 75.5069 7.53292 75.4939 7.66704C75.4939 7.72254 75.4939 7.78267 75.4939 7.84279C75.4939 7.89829 75.4835 7.95379 75.4626 8.00929C75.447 8.06479 75.434 8.12492 75.421 8.18504C75.4053 8.24054 75.4001 8.29604 75.4001 8.35154C75.4001 8.55504 75.4001 8.75854 75.4001 8.96204C75.4001 9.16554 75.4027 9.36904 75.4106 9.57254C75.4106 9.60954 75.4158 9.65117 75.4314 9.69279C75.4522 9.73673 75.4652 9.77604 75.4731 9.81304C75.5277 9.93792 75.6033 10.0304 75.7022 10.0905C75.7361 10.109 75.7673 10.1275 75.796 10.146C75.822 10.1645 75.8402 10.19 75.8481 10.22C75.9444 10.3125 75.9444 10.4189 75.8481 10.5345C75.8402 10.56 75.8194 10.5785 75.7856 10.59C75.5486 10.7334 75.3064 10.8028 75.0564 10.8028C74.9522 10.8144 74.8402 10.8167 74.7231 10.812C74.6111 10.8051 74.4965 10.7982 74.3793 10.7935C74.2751 10.7935 74.1762 10.7727 74.0876 10.7288C74.046 10.7103 74.0043 10.6964 73.9626 10.6825C73.921 10.671 73.8715 10.6594 73.8168 10.6455C73.7048 10.597 73.6241 10.5507 73.5772 10.5068C73.5277 10.4767 73.4861 10.449 73.4522 10.4235C73.4236 10.3935 73.3923 10.3634 73.3585 10.331C73.2543 10.227 73.1762 10.1784 73.1293 10.183C73.0876 10.183 73.0251 10.2062 72.9418 10.2478C72.8793 10.2663 72.8168 10.2917 72.7543 10.3218C72.697 10.3472 72.6423 10.375 72.5876 10.405C72.4548 10.4744 72.322 10.5322 72.1918 10.5808C72.0668 10.6247 71.9262 10.6548 71.7751 10.6733C71.7335 10.6872 71.6866 10.6987 71.6397 10.7103C71.5902 10.7242 71.5408 10.738 71.4939 10.7565C71.4236 10.7797 71.3637 10.7935 71.3168 10.7935C71.171 10.7982 71.0303 10.7982 70.9001 10.7935C70.7751 10.7935 70.6501 10.7866 70.5251 10.775C70.4887 10.775 70.4548 10.7727 70.421 10.7658C70.3923 10.7612 70.3611 10.7542 70.3272 10.7473C70.2699 10.7288 70.2126 10.7103 70.1501 10.6918C70.0876 10.6733 70.0199 10.6594 69.9522 10.6455C69.8116 10.597 69.6866 10.5299 69.5772 10.442C69.4731 10.3565 69.3819 10.257 69.3064 10.146C69.2856 10.109 69.2647 10.072 69.2439 10.035C69.2231 9.99342 69.2022 9.95179 69.1814 9.91479C69.1397 9.82923 69.1111 9.74829 69.0981 9.67429C69.0694 9.40373 69.0694 9.13779 69.0981 8.87879C69.1111 8.83717 69.1215 8.79554 69.1293 8.75854C69.1423 8.71692 69.1527 8.67529 69.1606 8.63829C69.1814 8.58973 69.2022 8.54579 69.2231 8.50879C69.2491 8.47179 69.2673 8.43479 69.2751 8.39779C69.3298 8.28217 69.3923 8.17579 69.4626 8.08329C69.5303 7.98617 69.6111 7.89367 69.7022 7.80579C69.8689 7.65317 70.046 7.52829 70.2335 7.43579C70.3793 7.35023 70.5303 7.27623 70.6918 7.21379C70.8585 7.15367 71.0277 7.09123 71.2022 7.02879C71.2283 7.02417 71.2595 7.01723 71.296 7.01029C71.3298 7.00567 71.3611 7.00104 71.3897 7.00104C71.5069 6.98254 71.6215 6.97098 71.7335 6.96404C71.8507 6.95248 71.9626 6.94323 72.0668 6.93629C72.1632 6.93629 72.2595 6.93629 72.3585 6.93629C72.4548 6.93629 72.5512 6.93167 72.6501 6.91779C72.671 6.91779 72.6866 6.91548 72.7022 6.90854C72.7231 6.90392 72.7361 6.89929 72.7439 6.89929C72.8194 6.88079 72.8741 6.85304 72.9106 6.81604C72.9522 6.77904 72.9835 6.72817 73.0043 6.65879C73.0382 6.53623 73.046 6.39517 73.0251 6.23329C73.0251 6.11767 73.0199 6.00204 73.0147 5.89104C73.0069 5.77542 72.9991 5.65748 72.9939 5.53954C72.9783 5.49098 72.9678 5.44704 72.9626 5.41004C72.9626 5.36842 72.9522 5.32448 72.9314 5.28054C72.9158 5.22504 72.9001 5.17417 72.8793 5.12329C72.8585 5.06779 72.8376 5.01229 72.8168 4.95679C72.796 4.89667 72.7647 4.84348 72.7231 4.79954C72.6866 4.75098 72.6423 4.70704 72.5876 4.67004C72.5095 4.60992 72.4262 4.55904 72.3376 4.52204C72.2543 4.48504 72.171 4.45267 72.0876 4.42029C72.0512 4.40179 72.0173 4.39254 71.9835 4.39254C71.9548 4.39254 71.9236 4.39023 71.8897 4.38329C71.8481 4.38329 71.8012 4.38329 71.7543 4.38329C71.7048 4.38329 71.6527 4.38792 71.5981 4.39254C71.4991 4.39254 71.4053 4.40873 71.3168 4.43879C71.2673 4.45729 71.2335 4.46654 71.2126 4.46654C70.822 4.60298 70.5069 4.84117 70.2647 5.17879C70.2231 5.22273 70.1866 5.27129 70.1606 5.32679C70.1319 5.37767 70.0981 5.42392 70.0564 5.46554C70.0408 5.49098 70.0173 5.51642 69.9835 5.53954C69.9418 5.59042 69.8741 5.61354 69.7856 5.61354C69.6944 5.61354 69.6215 5.59042 69.5668 5.53954C69.5095 5.49098 69.4835 5.43779 69.4835 5.38229C69.4965 5.33373 69.5043 5.28979 69.5043 5.25279C69.5095 5.21579 69.5277 5.17879 69.5564 5.14179C69.5772 5.09323 69.5981 5.05392 69.6189 5.02154C69.6449 4.98454 69.6658 4.94754 69.6814 4.91054C69.7569 4.79492 69.8533 4.67467 69.9731 4.54979C69.9783 4.54517 69.9887 4.53823 70.0043 4.53129C70.0173 4.51973 70.0277 4.50817 70.0356 4.49429C70.2699 4.26767 70.5408 4.10348 70.8481 4.00404C70.9314 3.98092 71.0173 3.95317 71.1085 3.92079C71.197 3.88379 71.2908 3.85604 71.3897 3.83754C71.4444 3.82598 71.4939 3.80979 71.5356 3.79129C71.5772 3.77279 71.6215 3.75892 71.671 3.74504C71.796 3.70342 71.921 3.67567 72.046 3.66179C72.1762 3.64329 72.309 3.63404 72.4418 3.63404C72.559 3.63404 72.6736 3.63867 72.7856 3.64329C72.9027 3.65023 73.0147 3.65717 73.1189 3.66179C73.2908 3.66179 73.447 3.68954 73.5876 3.74504C73.6501 3.77742 73.7074 3.80054 73.7647 3.81904C73.8272 3.83754 73.8923 3.85604 73.9626 3.87454C74.0095 3.89998 74.0512 3.92542 74.0876 3.94854C74.1293 3.96704 74.1736 3.98554 74.2231 4.00404C74.2699 4.04798 74.322 4.08498 74.3793 4.11504C74.434 4.14742 74.4835 4.18442 74.5251 4.22604C74.7048 4.35092 74.8637 4.49198 75.0043 4.65154C75.0798 4.72092 75.1553 4.81342 75.2335 4.92904C75.2543 4.96604 75.2751 5.00304 75.296 5.04004C75.3168 5.07704 75.3324 5.12098 75.3481 5.16954C75.3689 5.23892 75.3897 5.30829 75.4106 5.38229C75.4314 5.45167 75.447 5.51873 75.4626 5.58579C75.4965 5.69679 75.5147 5.81242 75.5147 5.92804C75.5147 6.08298 75.5147 6.24254 75.5147 6.40904C75.5147 6.57092 75.5147 6.73048 75.5147 6.89004ZM73.0356 8.45329C73.0277 8.36773 73.0251 8.28217 73.0251 8.19429C73.0303 8.10873 73.0303 8.02317 73.0251 7.93529C73.0043 7.79423 72.9236 7.71329 72.7856 7.69479C72.7699 7.69479 72.7543 7.69248 72.7335 7.68554C72.7178 7.68092 72.7022 7.67629 72.6814 7.67629C72.4574 7.65779 72.2283 7.65779 71.9939 7.67629C71.8949 7.67629 71.8012 7.69248 71.7126 7.72254C71.6345 7.74798 71.559 7.77573 71.4835 7.80579C71.4132 7.83817 71.3324 7.86129 71.2439 7.87979C71.2231 7.89829 71.197 7.91679 71.171 7.93529C71.1423 7.95379 71.1189 7.97229 71.0981 7.99079C71.0694 8.04167 71.0408 8.09254 71.0147 8.14804C70.9861 8.19892 70.9626 8.24979 70.9418 8.30529C70.9053 8.39317 70.8949 8.47642 70.9106 8.55504C70.9366 8.74698 71.0069 8.90654 71.1189 9.03604C71.2986 9.27654 71.546 9.39679 71.8585 9.39679C72.1918 9.37829 72.5095 9.32279 72.8168 9.23029C72.9418 9.18867 73.0147 9.10079 73.0356 8.97129C73.0356 8.95279 73.0356 8.93892 73.0356 8.92504C73.0356 8.90654 73.0356 8.89267 73.0356 8.87879C73.0356 8.80479 73.0356 8.73542 73.0356 8.66604C73.0356 8.59204 73.0356 8.52267 73.0356 8.45329Z" fill="#773810"/>
<mask id="mask0_1_505" style="mask-type:luminance" maskUnits="userSpaceOnUse" x="84" y="3" width="17" height="9">
<path d="M84.6667 3.096H100.667V11.976H84.6667V3.096Z" fill="white"/>
</mask>
<g mask="url(#mask0_1_505)">
<mask id="mask1_1_505" style="mask-type:luminance" maskUnits="userSpaceOnUse" x="83" y="1" width="18" height="13">
<path d="M97.7266 1.59518L100.414 8.757L85.7083 13.1091L83.0208 5.94962L97.7266 1.59518Z" fill="white"/>
</mask>
<g mask="url(#mask1_1_505)">
<mask id="mask2_1_505" style="mask-type:luminance" maskUnits="userSpaceOnUse" x="83" y="1" width="18" height="13">
<path d="M100.482 8.93506L97.7943 1.77325L83.0885 6.12537L85.776 13.2872L100.482 8.93506Z" fill="white"/>
</mask>
<g mask="url(#mask2_1_505)">
<mask id="mask3_1_505" style="mask-type:luminance" maskUnits="userSpaceOnUse" x="83" y="1" width="18" height="13">
<path d="M100.482 8.93506L97.7943 1.77325L83.0885 6.12537L85.776 13.2872L100.482 8.93506Z" fill="white"/>
</mask>
<g mask="url(#mask3_1_505)">
<path d="M86.8932 9.2195C86.2604 9.40681 85.4974 10.5191 85.1953 11.051C84.9844 11.643 85.2318 11.569 85.4713 11.1181C86.1979 9.75137 87.1146 9.36287 87.4844 9.33975C88.6615 10.1376 92.4219 11.4603 92.5625 11.273C92.6719 11.1204 91.3958 10.4359 90.7448 10.1121C92.6302 10.8521 93.2266 10.8544 93.2891 10.7619C93.3672 10.0728 88.4141 8.91887 88.513 8.74081C88.5937 8.59743 89.3516 8.4425 89.7187 8.38468C89.6484 8.64137 93.0755 9.77912 94.7969 10.3156C95.25 10.1815 94.6771 9.88318 94.3333 9.75137C95.7578 10.1561 95.9896 10.0728 95.9271 9.98031C95.7786 9.58256 92.638 8.43093 91.0885 7.90368L92.3568 7.60306C94.0703 8.60206 96.5052 9.29118 97.5104 9.51318C97.651 9.35362 97.2604 9.06918 97.0469 8.94662C97.7682 9.35362 98.2578 9.31431 98.4141 9.24493C98.7161 8.88881 95.3542 7.74875 93.638 7.22381L94.3906 7.00181C97.1302 7.69787 99.2943 7.80193 100.036 7.76725C99.8151 7.27006 96.6562 6.90931 95.1068 6.78906L97.9687 5.94268C98.5703 5.76231 98.4036 5.61662 98.2448 5.56343L96.6641 6.03287C98.5755 3.54693 98.3021 3.29487 97.9245 3.47987C98.1771 2.99193 97.9635 3.10062 97.8229 3.21393C96.1042 4.16668 94.5755 6.00975 94.026 6.81218L92.7838 7.17987C94.2422 5.89875 96.8932 3.43131 95.8281 3.80593C94.763 4.18056 92.7526 6.39131 91.8802 7.44812L90.901 7.7395C91.974 6.36125 93.9974 3.59318 93.5078 3.53306C93.0156 3.47062 91.138 6.43756 90.2604 7.92912L89.3568 8.19506C91.5208 5.15412 91.9479 4.40025 91.8125 4.03487C91.6745 3.6695 90.9323 4.92287 90.9062 4.85581C90.8854 4.80262 90.8724 4.47193 90.8698 4.31237C90.3828 4.43725 89.5286 5.61893 88.7838 6.81681C89.8281 4.96218 90.6953 3.21856 89.526 4.52512C87.5521 6.73587 87.6849 8.98593 86.8932 9.2195Z" fill="#7FA95B"/>
</g>
</g>
</g>
</g>
<path d="M110.409 7.33404C110.409 7.61848 110.412 7.90754 110.42 8.20354C110.425 8.49492 110.433 8.78398 110.441 9.07304C110.454 9.12854 110.462 9.18404 110.462 9.23954C110.462 9.29504 110.464 9.35517 110.472 9.41529C110.493 9.50779 110.506 9.60723 110.514 9.71129C110.527 9.81073 110.54 9.91248 110.555 10.0165C110.576 10.153 110.641 10.2478 110.753 10.3033C110.8 10.3287 110.857 10.3542 110.92 10.3773C110.988 10.4027 111.045 10.4328 111.087 10.4698C111.12 10.4952 111.139 10.5345 111.139 10.59C111.144 10.6455 111.133 10.6825 111.107 10.701C111.05 10.738 110.993 10.7635 110.93 10.775C110.831 10.775 110.735 10.7774 110.639 10.7843C110.54 10.7889 110.443 10.7935 110.347 10.7935C109.915 10.7935 109.488 10.7889 109.066 10.7843C108.649 10.7774 108.225 10.775 107.795 10.775C107.758 10.775 107.725 10.7727 107.691 10.7658C107.662 10.7612 107.631 10.7542 107.597 10.7473C107.547 10.7357 107.506 10.6964 107.472 10.627C107.43 10.5854 107.422 10.5322 107.451 10.4698C107.506 10.3773 107.579 10.3218 107.67 10.3033C107.696 10.2917 107.725 10.2802 107.753 10.2663C107.779 10.2547 107.81 10.2432 107.847 10.2293C107.964 10.1738 108.037 10.0859 108.066 9.96104C108.079 9.90092 108.089 9.84079 108.097 9.78529C108.11 9.72979 108.12 9.67198 108.128 9.60954C108.154 9.54942 108.172 9.48004 108.18 9.40604C108.193 9.33204 108.201 9.25804 108.201 9.18404C108.201 9.02448 108.201 8.86492 108.201 8.70304C108.206 8.54348 108.212 8.38854 108.212 8.24054C108.225 7.67398 108.232 7.10742 108.232 6.53854C108.232 5.97198 108.232 5.41004 108.232 4.85504C108.232 4.80648 108.232 4.76023 108.232 4.71629C108.232 4.66773 108.225 4.62148 108.212 4.57754C108.204 4.47348 108.144 4.37404 108.034 4.28154C107.993 4.24454 107.941 4.21217 107.878 4.17979C107.821 4.14973 107.766 4.12198 107.712 4.09654C107.691 4.07804 107.665 4.05954 107.639 4.04104C107.61 4.01792 107.587 4.00173 107.566 3.99479C107.524 3.95779 107.506 3.90692 107.514 3.83754C107.519 3.77048 107.555 3.72192 107.618 3.68954C107.659 3.67104 107.704 3.65948 107.753 3.65254C107.8 3.64098 107.847 3.63173 107.889 3.62479C107.922 3.61323 107.954 3.60398 107.982 3.59704C108.016 3.59242 108.05 3.58779 108.087 3.58779C108.696 3.58317 109.316 3.58317 109.941 3.58779C109.995 3.58779 110.045 3.59473 110.087 3.60629C110.128 3.62017 110.17 3.63404 110.212 3.65254C110.308 3.68954 110.373 3.75429 110.409 3.84679C110.43 3.89073 110.443 3.93004 110.451 3.96704C110.456 4.00404 110.464 4.04798 110.472 4.09654C110.485 4.16592 110.534 4.19829 110.618 4.19829C110.639 4.19829 110.652 4.19829 110.659 4.19829C110.672 4.19829 110.685 4.19829 110.701 4.19829C110.764 4.17517 110.821 4.14742 110.878 4.11504C110.941 4.08498 110.993 4.05492 111.034 4.02254C111.123 3.97398 111.214 3.93467 111.305 3.90229C111.394 3.86529 111.485 3.82829 111.576 3.79129C111.644 3.75429 111.735 3.72654 111.847 3.70804C111.943 3.68954 112.04 3.66873 112.139 3.64329C112.235 3.62017 112.326 3.59704 112.409 3.57854C112.464 3.56698 112.516 3.56004 112.566 3.56004C112.613 3.55542 112.659 3.54617 112.701 3.53229C112.79 3.52767 112.873 3.52073 112.951 3.51379C113.034 3.50917 113.113 3.50454 113.191 3.50454C113.425 3.49992 113.654 3.51379 113.878 3.55079C113.954 3.55773 114.04 3.59242 114.139 3.65254C114.256 3.72654 114.337 3.81673 114.378 3.92079C114.425 3.99479 114.433 4.07573 114.399 4.16129C114.383 4.20523 114.368 4.24917 114.347 4.29079C114.326 4.33473 114.305 4.37404 114.284 4.41104C114.264 4.44804 114.235 4.48504 114.201 4.52204C114.172 4.55442 114.141 4.58217 114.107 4.60529C114.045 4.65617 113.977 4.69779 113.909 4.73479C113.839 4.76717 113.758 4.79723 113.67 4.82729C113.613 4.85273 113.555 4.87123 113.493 4.88279C113.43 4.88973 113.363 4.89898 113.295 4.91054C113.266 4.91054 113.235 4.91054 113.201 4.91054C113.172 4.91054 113.141 4.91054 113.107 4.91054C113.066 4.89898 113.019 4.89204 112.972 4.89204C112.922 4.88742 112.87 4.87354 112.816 4.85504C112.738 4.82498 112.665 4.79723 112.597 4.77179C112.527 4.74173 112.451 4.71167 112.368 4.67929C112.222 4.62379 112.066 4.59604 111.899 4.59604C111.683 4.59604 111.493 4.63073 111.326 4.69779C111.11 4.76717 110.912 4.86429 110.732 4.99379C110.67 5.05623 110.628 5.10017 110.607 5.12329C110.475 5.22273 110.409 5.35223 110.409 5.51179C110.409 5.80779 110.409 6.11073 110.409 6.41829C110.409 6.72123 110.409 7.02648 110.409 7.33404Z" fill="#773810"/>
<path d="M119.969 7.15829C119.698 7.15829 119.432 7.15829 119.177 7.15829C118.927 7.15829 118.679 7.15829 118.437 7.15829C118.375 7.15829 118.307 7.15829 118.239 7.15829C118.177 7.15829 118.114 7.16523 118.052 7.17679C118.002 7.17679 117.953 7.18142 117.906 7.18604C117.857 7.18604 117.807 7.19298 117.76 7.20454C117.724 7.21842 117.692 7.22998 117.666 7.24154C117.638 7.25542 117.614 7.26929 117.594 7.28779C117.573 7.30167 117.557 7.33867 117.552 7.39879C117.552 7.46123 117.554 7.50979 117.562 7.54679C117.596 7.62773 117.627 7.70867 117.656 7.78729C117.69 7.86823 117.719 7.95148 117.739 8.03704C117.773 8.10642 117.807 8.17348 117.844 8.24054C117.885 8.30298 117.927 8.36542 117.969 8.42554C118.073 8.56892 118.187 8.70767 118.312 8.84179C118.437 8.97129 118.567 9.09617 118.708 9.21179C118.817 9.31123 118.922 9.38292 119.021 9.42454C119.067 9.45692 119.12 9.48467 119.177 9.50779C119.239 9.53323 119.304 9.55404 119.375 9.57254C119.458 9.59104 119.536 9.61417 119.614 9.63729C119.69 9.66273 119.765 9.68354 119.844 9.70204C120.065 9.75754 120.291 9.75754 120.521 9.70204C120.596 9.68354 120.672 9.66273 120.75 9.63729C120.833 9.61417 120.911 9.59104 120.989 9.57254C121.065 9.55404 121.138 9.53323 121.208 9.50779C121.284 9.48467 121.359 9.46154 121.437 9.44304C121.526 9.41298 121.625 9.41529 121.729 9.45229C121.812 9.48467 121.867 9.53323 121.896 9.60029C121.922 9.66967 121.927 9.73904 121.906 9.81304C121.864 9.93098 121.784 10.0165 121.666 10.072C121.429 10.2154 121.19 10.338 120.948 10.442C120.703 10.5484 120.448 10.6432 120.177 10.7288C120.036 10.7889 119.88 10.8213 119.708 10.8213C119.291 10.8259 118.867 10.8259 118.437 10.8213C118.297 10.8074 118.14 10.7774 117.969 10.7288C117.711 10.6432 117.44 10.5345 117.156 10.405C117.057 10.3565 116.961 10.3079 116.864 10.257C116.773 10.2015 116.679 10.1553 116.583 10.1183C116.463 10.0582 116.354 9.98879 116.25 9.91479C116.146 9.84079 116.052 9.76448 115.969 9.68354C115.773 9.50548 115.617 9.32048 115.5 9.12854C115.442 9.04298 115.396 8.95279 115.354 8.86029C115.312 8.76317 115.273 8.66373 115.239 8.56429C115.224 8.54579 115.219 8.51804 115.219 8.48104C115.198 8.37698 115.179 8.27523 115.166 8.17579C115.159 8.07173 115.156 7.97229 115.156 7.87979C115.148 7.59073 115.148 7.30398 115.156 7.01954C115.156 6.77442 115.192 6.54317 115.271 6.32579C115.284 6.30267 115.294 6.27723 115.302 6.25179C115.315 6.22173 115.325 6.19398 115.333 6.16854C115.354 6.03904 115.39 5.91648 115.448 5.79854C115.51 5.67598 115.575 5.55573 115.646 5.43779C115.742 5.25973 115.864 5.09323 116.01 4.93829C116.127 4.83423 116.245 4.73248 116.364 4.63304C116.482 4.53592 116.607 4.44342 116.739 4.35554C116.802 4.29542 116.88 4.25148 116.979 4.22604C117.013 4.20754 117.044 4.19367 117.073 4.17979C117.099 4.16823 117.127 4.15898 117.156 4.15204C117.265 4.10348 117.385 4.05954 117.51 4.02254C117.599 4.00404 117.682 3.98092 117.76 3.94854C117.836 3.91154 117.909 3.88842 117.979 3.87454C118.109 3.85604 118.239 3.83523 118.364 3.80979C118.495 3.77973 118.62 3.74967 118.739 3.71729C118.794 3.69879 118.846 3.68954 118.896 3.68954C118.942 3.68954 118.989 3.68723 119.031 3.68029C119.161 3.66179 119.291 3.65254 119.416 3.65254C119.547 3.65254 119.679 3.65254 119.812 3.65254C120.054 3.67104 120.273 3.71729 120.469 3.79129C120.544 3.82829 120.617 3.86298 120.687 3.89304C120.755 3.92542 120.823 3.96242 120.885 4.00404C120.961 4.04798 121.031 4.08729 121.094 4.12429C121.161 4.16129 121.234 4.19829 121.312 4.23529C121.388 4.28617 121.461 4.34167 121.531 4.40179C121.599 4.46423 121.666 4.52898 121.729 4.59604C121.742 4.60298 121.75 4.61223 121.75 4.62379C121.755 4.63767 121.765 4.65154 121.781 4.67004C121.807 4.73942 121.849 4.85273 121.906 5.01229C121.969 5.16723 122.005 5.27129 122.021 5.32679C122.041 5.39617 122.054 5.46554 122.062 5.53954C122.075 5.60892 122.099 5.67598 122.135 5.74304C122.19 5.89798 122.224 6.05523 122.239 6.21479C122.252 6.36973 122.255 6.52698 122.25 6.68654C122.234 6.71892 122.224 6.74898 122.219 6.77904C122.219 6.80448 122.211 6.83223 122.198 6.86229C122.182 6.93167 122.138 6.99179 122.062 7.04729C121.992 7.09817 121.922 7.12592 121.854 7.13054C121.791 7.13054 121.729 7.13517 121.666 7.13979C121.604 7.14673 121.536 7.14904 121.469 7.14904C121.198 7.14904 120.937 7.15367 120.687 7.15829C120.437 7.15829 120.198 7.15829 119.969 7.15829ZM118.594 6.60329C118.844 6.60329 119.054 6.60329 119.229 6.60329C119.401 6.60329 119.567 6.60329 119.729 6.60329C119.755 6.60329 119.784 6.60098 119.812 6.59404C119.838 6.58248 119.87 6.57554 119.906 6.57554C119.94 6.56398 119.979 6.53623 120.021 6.49229C120.067 6.45067 120.099 6.41598 120.114 6.39054C120.135 6.31192 120.148 6.24023 120.156 6.17779C120.169 6.11073 120.182 6.04367 120.198 5.97429C120.219 5.85867 120.229 5.74304 120.229 5.63204C120.229 5.51642 120.221 5.39848 120.208 5.28054C120.2 5.25742 120.198 5.22967 120.198 5.19729C120.198 5.16723 120.187 5.13948 120.166 5.11404C120.151 5.06548 120.138 5.02154 120.125 4.98454C120.117 4.94754 120.104 4.90823 120.083 4.86429C120.062 4.79029 120.023 4.73017 119.969 4.67929C119.911 4.62379 119.859 4.57292 119.812 4.52204C119.646 4.41104 119.461 4.37867 119.26 4.42029C119.161 4.43879 119.067 4.46192 118.979 4.48504C118.888 4.51048 118.794 4.53823 118.698 4.56829C118.648 4.57523 118.604 4.59142 118.562 4.61454C118.521 4.63998 118.482 4.66773 118.448 4.69779C118.328 4.77179 118.211 4.87123 118.094 4.99379C117.948 5.14179 117.838 5.31523 117.771 5.51179C117.742 5.61123 117.711 5.71067 117.677 5.80779C117.64 5.90029 117.609 5.99279 117.583 6.08529C117.567 6.10379 117.562 6.13154 117.562 6.16854C117.562 6.20092 117.557 6.23098 117.552 6.26104C117.552 6.28648 117.552 6.31423 117.552 6.34429C117.552 6.39517 117.575 6.44604 117.625 6.50154C117.679 6.55242 117.734 6.58017 117.791 6.58479C117.95 6.59867 118.104 6.60098 118.25 6.59404C118.401 6.58942 118.515 6.59173 118.594 6.60329Z" fill="#773810"/>
<path d="M125.123 0.757294C125.316 0.757294 125.504 0.761919 125.686 0.766544C125.866 0.766544 126.043 0.766544 126.217 0.766544C126.327 0.766544 126.42 0.794294 126.498 0.849794C126.525 0.893731 126.551 0.933044 126.571 0.970044C126.592 1.00704 126.608 1.04404 126.623 1.08104C126.623 1.09492 126.623 1.10648 126.623 1.11804C126.623 1.13192 126.623 1.14579 126.623 1.16429C126.629 1.22673 126.634 1.28917 126.634 1.34929C126.634 1.41173 126.634 1.46954 126.634 1.52504C126.634 2.17948 126.65 2.84548 126.686 3.52304C126.686 3.59242 126.717 3.65254 126.78 3.70804C126.847 3.75892 126.92 3.78667 126.998 3.79129C127.025 3.80517 127.056 3.81442 127.092 3.81904C127.126 3.81904 127.157 3.81904 127.186 3.81904C127.282 3.81904 127.379 3.81904 127.478 3.81904C127.574 3.81904 127.678 3.82598 127.79 3.83754C127.837 3.83754 127.886 3.83754 127.936 3.83754C127.983 3.83754 128.03 3.84217 128.071 3.84679C128.126 3.86067 128.181 3.89073 128.238 3.93929C128.293 4.01329 128.303 4.09423 128.269 4.17979C128.254 4.23067 128.23 4.26767 128.196 4.29079C128.16 4.30929 128.118 4.33242 128.071 4.35554C128.051 4.36248 128.019 4.36479 127.978 4.36479C127.936 4.36479 127.889 4.36942 127.842 4.37404C127.793 4.38098 127.741 4.38329 127.686 4.38329C127.587 4.38329 127.491 4.38329 127.394 4.38329C127.295 4.38329 127.196 4.38329 127.092 4.38329C127.056 4.38329 127.022 4.38792 126.988 4.39254C126.959 4.39254 126.928 4.39254 126.894 4.39254C126.845 4.40642 126.793 4.43417 126.738 4.47579C126.681 4.51973 126.655 4.56829 126.655 4.62379C126.655 4.65617 126.65 4.68623 126.644 4.71629C126.636 4.74173 126.634 4.76948 126.634 4.79954C126.626 4.91054 126.623 5.02617 126.623 5.14179C126.623 5.25279 126.623 5.36842 126.623 5.48404C126.623 5.58348 126.623 5.67598 126.623 5.76154C126.623 5.84248 126.613 5.92573 126.592 6.01129C126.577 6.05523 126.566 6.09917 126.561 6.14079C126.561 6.18473 126.561 6.22867 126.561 6.27029C126.561 6.39517 126.556 6.52004 126.551 6.64954C126.543 6.77904 126.535 6.91317 126.53 7.04729C126.514 7.22073 126.511 7.39648 126.519 7.57454C126.525 7.74798 126.532 7.92142 126.54 8.09254C126.553 8.19198 126.564 8.29142 126.571 8.38854C126.584 8.48798 126.603 8.58973 126.623 8.69379C126.644 8.78167 126.657 8.86723 126.665 8.95279C126.678 9.04067 126.691 9.12623 126.707 9.21179C126.733 9.37367 126.806 9.49623 126.926 9.58179C127.056 9.69973 127.202 9.75754 127.363 9.75754C127.48 9.75754 127.595 9.75754 127.707 9.75754C127.824 9.75754 127.936 9.75754 128.04 9.75754C128.074 9.76448 128.105 9.77142 128.134 9.77604C128.168 9.78298 128.202 9.79454 128.238 9.81304C128.259 9.82692 128.282 9.85929 128.311 9.91479C128.345 9.97029 128.358 10.0073 128.353 10.0258C128.337 10.1137 128.293 10.1969 128.217 10.2755C128.155 10.331 128.082 10.3842 127.998 10.4328C127.949 10.4513 127.905 10.4698 127.863 10.4883C127.821 10.5068 127.78 10.5253 127.738 10.5438C127.696 10.5623 127.65 10.5808 127.603 10.5993C127.561 10.6132 127.514 10.627 127.467 10.6455C127.397 10.6594 127.332 10.671 127.269 10.6825C127.207 10.6964 127.147 10.7103 127.092 10.7288C126.959 10.7612 126.832 10.775 126.707 10.775C126.657 10.775 126.608 10.775 126.561 10.775C126.519 10.775 126.47 10.775 126.415 10.775C126.358 10.775 126.324 10.7704 126.311 10.7565C126.207 10.738 126.095 10.7195 125.978 10.701C125.866 10.6779 125.751 10.6525 125.634 10.627C125.605 10.6224 125.577 10.6132 125.551 10.5993C125.522 10.5808 125.491 10.5692 125.457 10.5623C125.353 10.5137 125.251 10.4675 125.155 10.4235C125.056 10.3819 124.959 10.331 124.863 10.2755C124.702 10.1969 124.564 10.0767 124.446 9.91479C124.397 9.84079 124.355 9.76448 124.321 9.68354C124.285 9.59798 124.243 9.51704 124.196 9.44304C124.189 9.41298 124.186 9.38523 124.186 9.35979C124.186 9.32973 124.178 9.29967 124.165 9.26729C124.157 9.16323 124.15 9.06148 124.144 8.96204C124.136 8.86492 124.134 8.76548 124.134 8.66604C124.134 8.48798 124.129 8.31223 124.123 8.13879C124.123 7.96767 124.123 7.79423 124.123 7.62079C124.123 7.46123 124.097 7.31554 124.051 7.18604C124.03 7.11204 124.014 7.04267 124.009 6.97329C124.009 6.89929 124.001 6.82992 123.988 6.76054C123.988 6.44604 123.988 6.12923 123.988 5.80779C123.988 5.48867 123.988 5.16954 123.988 4.85504C123.988 4.80648 123.983 4.76023 123.978 4.71629C123.978 4.67467 123.97 4.63304 123.957 4.59604C123.936 4.49198 123.876 4.42954 123.78 4.41104C123.717 4.39948 123.65 4.39023 123.582 4.38329C123.519 4.37173 123.457 4.36248 123.394 4.35554C123.337 4.34398 123.282 4.31392 123.228 4.26304C123.178 4.19598 123.168 4.11273 123.196 4.01329C123.23 3.91617 123.29 3.85142 123.373 3.81904C123.47 3.78204 123.564 3.75892 123.655 3.74504C123.681 3.74042 123.712 3.73348 123.748 3.72654C123.782 3.72192 123.814 3.71498 123.842 3.70804C123.863 3.68954 123.879 3.66873 123.894 3.64329C123.915 3.62017 123.931 3.59242 123.946 3.56004C123.967 3.53692 123.978 3.50917 123.978 3.47679C123.978 3.44673 123.978 3.41898 123.978 3.39354C123.978 3.07904 123.978 2.76223 123.978 2.44079C123.978 2.12167 123.978 1.80254 123.978 1.48804C123.978 1.32154 123.907 1.19204 123.769 1.09954C123.754 1.08798 123.743 1.07873 123.738 1.07179C123.73 1.06023 123.722 1.05098 123.717 1.04404C123.696 1.01398 123.691 0.974668 123.707 0.923794C123.72 0.868294 123.751 0.835919 123.801 0.822044C123.863 0.785044 123.92 0.766544 123.978 0.766544C124.17 0.766544 124.363 0.766544 124.551 0.766544C124.743 0.761919 124.936 0.757294 125.123 0.757294Z" fill="#773810"/>
<path d="M132.194 7.33404C132.194 7.61848 132.196 7.90754 132.204 8.20354C132.209 8.49492 132.217 8.78398 132.225 9.07304C132.238 9.12854 132.246 9.18404 132.246 9.23954C132.246 9.29504 132.248 9.35517 132.256 9.41529C132.277 9.50779 132.29 9.60723 132.298 9.71129C132.311 9.81073 132.324 9.91248 132.34 10.0165C132.36 10.153 132.425 10.2478 132.537 10.3033C132.584 10.3287 132.642 10.3542 132.704 10.3773C132.772 10.4027 132.829 10.4328 132.871 10.4698C132.905 10.4952 132.923 10.5345 132.923 10.59C132.928 10.6455 132.918 10.6825 132.892 10.701C132.834 10.738 132.777 10.7635 132.715 10.775C132.616 10.775 132.519 10.7774 132.423 10.7843C132.324 10.7889 132.228 10.7935 132.131 10.7935C131.699 10.7935 131.272 10.7889 130.85 10.7843C130.433 10.7774 130.009 10.775 129.579 10.775C129.543 10.775 129.509 10.7727 129.475 10.7658C129.446 10.7612 129.415 10.7542 129.381 10.7473C129.332 10.7357 129.29 10.6964 129.256 10.627C129.215 10.5854 129.207 10.5322 129.235 10.4698C129.29 10.3773 129.363 10.3218 129.454 10.3033C129.48 10.2917 129.509 10.2802 129.537 10.2663C129.563 10.2547 129.595 10.2432 129.631 10.2293C129.748 10.1738 129.821 10.0859 129.85 9.96104C129.863 9.90092 129.873 9.84079 129.881 9.78529C129.894 9.72979 129.905 9.67198 129.912 9.60954C129.938 9.54942 129.957 9.48004 129.965 9.40604C129.978 9.33204 129.985 9.25804 129.985 9.18404C129.985 9.02448 129.985 8.86492 129.985 8.70304C129.991 8.54348 129.996 8.38854 129.996 8.24054C130.009 7.67398 130.017 7.10742 130.017 6.53854C130.017 5.97198 130.017 5.41004 130.017 4.85504C130.017 4.80648 130.017 4.76023 130.017 4.71629C130.017 4.66773 130.009 4.62148 129.996 4.57754C129.988 4.47348 129.928 4.37404 129.819 4.28154C129.777 4.24454 129.725 4.21217 129.662 4.17979C129.605 4.14973 129.55 4.12198 129.496 4.09654C129.475 4.07804 129.449 4.05954 129.423 4.04104C129.394 4.01792 129.371 4.00173 129.35 3.99479C129.308 3.95779 129.29 3.90692 129.298 3.83754C129.303 3.77048 129.34 3.72192 129.402 3.68954C129.444 3.67104 129.488 3.65948 129.537 3.65254C129.584 3.64098 129.631 3.63173 129.673 3.62479C129.707 3.61323 129.738 3.60398 129.767 3.59704C129.8 3.59242 129.834 3.58779 129.871 3.58779C130.48 3.58317 131.1 3.58317 131.725 3.58779C131.78 3.58779 131.829 3.59473 131.871 3.60629C131.912 3.62017 131.954 3.63404 131.996 3.65254C132.092 3.68954 132.157 3.75429 132.194 3.84679C132.215 3.89073 132.228 3.93004 132.235 3.96704C132.241 4.00404 132.248 4.04798 132.256 4.09654C132.269 4.16592 132.319 4.19829 132.402 4.19829C132.423 4.19829 132.436 4.19829 132.444 4.19829C132.457 4.19829 132.47 4.19829 132.485 4.19829C132.548 4.17517 132.605 4.14742 132.662 4.11504C132.725 4.08498 132.777 4.05492 132.819 4.02254C132.907 3.97398 132.998 3.93467 133.09 3.90229C133.178 3.86529 133.269 3.82829 133.36 3.79129C133.428 3.75429 133.519 3.72654 133.631 3.70804C133.728 3.68954 133.824 3.66873 133.923 3.64329C134.019 3.62017 134.11 3.59704 134.194 3.57854C134.248 3.56698 134.3 3.56004 134.35 3.56004C134.397 3.55542 134.444 3.54617 134.485 3.53229C134.574 3.52767 134.657 3.52073 134.735 3.51379C134.819 3.50917 134.897 3.50454 134.975 3.50454C135.209 3.49992 135.438 3.51379 135.662 3.55079C135.738 3.55773 135.824 3.59242 135.923 3.65254C136.04 3.72654 136.121 3.81673 136.162 3.92079C136.209 3.99479 136.217 4.07573 136.183 4.16129C136.168 4.20523 136.152 4.24917 136.131 4.29079C136.11 4.33473 136.09 4.37404 136.069 4.41104C136.048 4.44804 136.019 4.48504 135.985 4.52204C135.957 4.55442 135.925 4.58217 135.892 4.60529C135.829 4.65617 135.761 4.69779 135.694 4.73479C135.623 4.76717 135.543 4.79723 135.454 4.82729C135.397 4.85273 135.34 4.87123 135.277 4.88279C135.215 4.88973 135.147 4.89898 135.079 4.91054C135.05 4.91054 135.019 4.91054 134.985 4.91054C134.957 4.91054 134.925 4.91054 134.892 4.91054C134.85 4.89898 134.803 4.89204 134.756 4.89204C134.707 4.88742 134.655 4.87354 134.6 4.85504C134.522 4.82498 134.449 4.79723 134.381 4.77179C134.311 4.74173 134.235 4.71167 134.152 4.67929C134.006 4.62379 133.85 4.59604 133.683 4.59604C133.467 4.59604 133.277 4.63073 133.11 4.69779C132.894 4.76717 132.696 4.86429 132.517 4.99379C132.454 5.05623 132.412 5.10017 132.392 5.12329C132.259 5.22273 132.194 5.35223 132.194 5.51179C132.194 5.80779 132.194 6.11073 132.194 6.41829C132.194 6.72123 132.194 7.02648 132.194 7.33404Z" fill="#773810"/>
<path d="M141.753 7.15829C141.482 7.15829 141.216 7.15829 140.961 7.15829C140.711 7.15829 140.464 7.15829 140.222 7.15829C140.159 7.15829 140.091 7.15829 140.024 7.15829C139.961 7.15829 139.899 7.16523 139.836 7.17679C139.787 7.17679 139.737 7.18142 139.69 7.18604C139.641 7.18604 139.591 7.19298 139.544 7.20454C139.508 7.21842 139.477 7.22998 139.451 7.24154C139.422 7.25542 139.399 7.26929 139.378 7.28779C139.357 7.30167 139.341 7.33867 139.336 7.39879C139.336 7.46123 139.339 7.50979 139.347 7.54679C139.38 7.62773 139.412 7.70867 139.44 7.78729C139.474 7.86823 139.503 7.95148 139.524 8.03704C139.557 8.10642 139.591 8.17348 139.628 8.24054C139.669 8.30298 139.711 8.36542 139.753 8.42554C139.857 8.56892 139.972 8.70767 140.097 8.84179C140.222 8.97129 140.352 9.09617 140.492 9.21179C140.602 9.31123 140.706 9.38292 140.805 9.42454C140.852 9.45692 140.904 9.48467 140.961 9.50779C141.024 9.53323 141.089 9.55404 141.159 9.57254C141.242 9.59104 141.32 9.61417 141.399 9.63729C141.474 9.66273 141.55 9.68354 141.628 9.70204C141.849 9.75754 142.076 9.75754 142.305 9.70204C142.38 9.68354 142.456 9.66273 142.534 9.63729C142.617 9.61417 142.695 9.59104 142.774 9.57254C142.849 9.55404 142.922 9.53323 142.992 9.50779C143.068 9.48467 143.143 9.46154 143.222 9.44304C143.31 9.41298 143.409 9.41529 143.513 9.45229C143.597 9.48467 143.651 9.53323 143.68 9.60029C143.706 9.66967 143.711 9.73904 143.69 9.81304C143.649 9.93098 143.568 10.0165 143.451 10.072C143.214 10.2154 142.974 10.338 142.732 10.442C142.487 10.5484 142.232 10.6432 141.961 10.7288C141.82 10.7889 141.664 10.8213 141.492 10.8213C141.076 10.8259 140.651 10.8259 140.222 10.8213C140.081 10.8074 139.925 10.7774 139.753 10.7288C139.495 10.6432 139.224 10.5345 138.94 10.405C138.841 10.3565 138.745 10.3079 138.649 10.257C138.557 10.2015 138.464 10.1553 138.367 10.1183C138.248 10.0582 138.138 9.98879 138.034 9.91479C137.93 9.84079 137.836 9.76448 137.753 9.68354C137.557 9.50548 137.401 9.32048 137.284 9.12854C137.227 9.04298 137.18 8.95279 137.138 8.86029C137.097 8.76317 137.057 8.66373 137.024 8.56429C137.008 8.54579 137.003 8.51804 137.003 8.48104C136.982 8.37698 136.964 8.27523 136.951 8.17579C136.943 8.07173 136.94 7.97229 136.94 7.87979C136.932 7.59073 136.932 7.30398 136.94 7.01954C136.94 6.77442 136.977 6.54317 137.055 6.32579C137.068 6.30267 137.078 6.27723 137.086 6.25179C137.099 6.22173 137.11 6.19398 137.117 6.16854C137.138 6.03904 137.175 5.91648 137.232 5.79854C137.294 5.67598 137.36 5.55573 137.43 5.43779C137.526 5.25973 137.649 5.09323 137.794 4.93829C137.912 4.83423 138.029 4.73248 138.149 4.63304C138.266 4.53592 138.391 4.44342 138.524 4.35554C138.586 4.29542 138.664 4.25148 138.763 4.22604C138.797 4.20754 138.828 4.19367 138.857 4.17979C138.883 4.16823 138.912 4.15898 138.94 4.15204C139.05 4.10348 139.169 4.05954 139.294 4.02254C139.383 4.00404 139.466 3.98092 139.544 3.94854C139.62 3.91154 139.693 3.88842 139.763 3.87454C139.893 3.85604 140.024 3.83523 140.149 3.80979C140.279 3.77973 140.404 3.74967 140.524 3.71729C140.578 3.69879 140.63 3.68954 140.68 3.68954C140.727 3.68954 140.774 3.68723 140.815 3.68029C140.945 3.66179 141.076 3.65254 141.201 3.65254C141.331 3.65254 141.464 3.65254 141.597 3.65254C141.839 3.67104 142.057 3.71729 142.253 3.79129C142.328 3.82829 142.401 3.86298 142.472 3.89304C142.539 3.92542 142.607 3.96242 142.669 4.00404C142.745 4.04798 142.815 4.08729 142.878 4.12429C142.945 4.16129 143.018 4.19829 143.097 4.23529C143.172 4.28617 143.245 4.34167 143.315 4.40179C143.383 4.46423 143.451 4.52898 143.513 4.59604C143.526 4.60298 143.534 4.61223 143.534 4.62379C143.539 4.63767 143.55 4.65154 143.565 4.67004C143.591 4.73942 143.633 4.85273 143.69 5.01229C143.753 5.16723 143.789 5.27129 143.805 5.32679C143.826 5.39617 143.839 5.46554 143.847 5.53954C143.86 5.60892 143.883 5.67598 143.919 5.74304C143.974 5.89798 144.008 6.05523 144.024 6.21479C144.037 6.36973 144.039 6.52698 144.034 6.68654C144.018 6.71892 144.008 6.74898 144.003 6.77904C144.003 6.80448 143.995 6.83223 143.982 6.86229C143.966 6.93167 143.922 6.99179 143.847 7.04729C143.776 7.09817 143.706 7.12592 143.638 7.13054C143.576 7.13054 143.513 7.13517 143.451 7.13979C143.388 7.14673 143.32 7.14904 143.253 7.14904C142.982 7.14904 142.722 7.15367 142.472 7.15829C142.222 7.15829 141.982 7.15829 141.753 7.15829ZM140.378 6.60329C140.628 6.60329 140.839 6.60329 141.013 6.60329C141.185 6.60329 141.352 6.60329 141.513 6.60329C141.539 6.60329 141.568 6.60098 141.597 6.59404C141.623 6.58248 141.654 6.57554 141.69 6.57554C141.724 6.56398 141.763 6.53623 141.805 6.49229C141.852 6.45067 141.883 6.41598 141.899 6.39054C141.919 6.31192 141.932 6.24023 141.94 6.17779C141.953 6.11073 141.966 6.04367 141.982 5.97429C142.003 5.85867 142.013 5.74304 142.013 5.63204C142.013 5.51642 142.005 5.39848 141.992 5.28054C141.985 5.25742 141.982 5.22967 141.982 5.19729C141.982 5.16723 141.972 5.13948 141.951 5.11404C141.935 5.06548 141.922 5.02154 141.909 4.98454C141.901 4.94754 141.888 4.90823 141.867 4.86429C141.847 4.79029 141.807 4.73017 141.753 4.67929C141.695 4.62379 141.643 4.57292 141.597 4.52204C141.43 4.41104 141.245 4.37867 141.044 4.42029C140.945 4.43879 140.852 4.46192 140.763 4.48504C140.672 4.51048 140.578 4.53823 140.482 4.56829C140.432 4.57523 140.388 4.59142 140.347 4.61454C140.305 4.63998 140.266 4.66773 140.232 4.69779C140.112 4.77179 139.995 4.87123 139.878 4.99379C139.732 5.14179 139.623 5.31523 139.555 5.51179C139.526 5.61123 139.495 5.71067 139.461 5.80779C139.425 5.90029 139.393 5.99279 139.367 6.08529C139.352 6.10379 139.347 6.13154 139.347 6.16854C139.347 6.20092 139.341 6.23098 139.336 6.26104C139.336 6.28648 139.336 6.31423 139.336 6.34429C139.336 6.39517 139.36 6.44604 139.409 6.50154C139.464 6.55242 139.518 6.58017 139.576 6.58479C139.735 6.59867 139.888 6.60098 140.034 6.59404C140.185 6.58942 140.3 6.59173 140.378 6.60329Z" fill="#773810"/>
<path d="M151.512 6.89004C151.512 7.01492 151.512 7.13979 151.512 7.26929C151.512 7.39879 151.504 7.53292 151.491 7.66704C151.491 7.72254 151.491 7.78267 151.491 7.84279C151.491 7.89829 151.481 7.95379 151.46 8.00929C151.444 8.06479 151.431 8.12492 151.418 8.18504C151.403 8.24054 151.397 8.29604 151.397 8.35154C151.397 8.55504 151.397 8.75854 151.397 8.96204C151.397 9.16554 151.4 9.36904 151.408 9.57254C151.408 9.60954 151.413 9.65117 151.429 9.69279C151.449 9.73673 151.462 9.77604 151.47 9.81304C151.525 9.93792 151.6 10.0304 151.699 10.0905C151.733 10.109 151.765 10.1275 151.793 10.146C151.819 10.1645 151.837 10.19 151.845 10.22C151.942 10.3125 151.942 10.4189 151.845 10.5345C151.837 10.56 151.817 10.5785 151.783 10.59C151.546 10.7334 151.304 10.8028 151.054 10.8028C150.949 10.8144 150.837 10.8167 150.72 10.812C150.608 10.8051 150.494 10.7982 150.376 10.7935C150.272 10.7935 150.173 10.7727 150.085 10.7288C150.043 10.7103 150.001 10.6964 149.96 10.6825C149.918 10.671 149.869 10.6594 149.814 10.6455C149.702 10.597 149.621 10.5507 149.574 10.5068C149.525 10.4767 149.483 10.449 149.449 10.4235C149.421 10.3935 149.39 10.3634 149.356 10.331C149.251 10.227 149.173 10.1784 149.126 10.183C149.085 10.183 149.022 10.2062 148.939 10.2478C148.876 10.2663 148.814 10.2917 148.751 10.3218C148.694 10.3472 148.64 10.375 148.585 10.405C148.452 10.4744 148.319 10.5322 148.189 10.5808C148.064 10.6247 147.923 10.6548 147.772 10.6733C147.731 10.6872 147.684 10.6987 147.637 10.7103C147.587 10.7242 147.538 10.738 147.491 10.7565C147.421 10.7797 147.361 10.7935 147.314 10.7935C147.168 10.7982 147.028 10.7982 146.897 10.7935C146.772 10.7935 146.647 10.7866 146.522 10.775C146.486 10.775 146.452 10.7727 146.418 10.7658C146.39 10.7612 146.358 10.7542 146.324 10.7473C146.267 10.7288 146.21 10.7103 146.147 10.6918C146.085 10.6733 146.017 10.6594 145.949 10.6455C145.809 10.597 145.684 10.5299 145.574 10.442C145.47 10.3565 145.379 10.257 145.304 10.146C145.283 10.109 145.262 10.072 145.241 10.035C145.22 9.99342 145.199 9.95179 145.179 9.91479C145.137 9.82923 145.108 9.74829 145.095 9.67429C145.067 9.40373 145.067 9.13779 145.095 8.87879C145.108 8.83717 145.119 8.79554 145.126 8.75854C145.14 8.71692 145.15 8.67529 145.158 8.63829C145.179 8.58973 145.199 8.54579 145.22 8.50879C145.246 8.47179 145.265 8.43479 145.272 8.39779C145.327 8.28217 145.39 8.17579 145.46 8.08329C145.528 7.98617 145.608 7.89367 145.699 7.80579C145.866 7.65317 146.043 7.52829 146.231 7.43579C146.376 7.35023 146.528 7.27623 146.689 7.21379C146.856 7.15367 147.025 7.09123 147.199 7.02879C147.225 7.02417 147.257 7.01723 147.293 7.01029C147.327 7.00567 147.358 7.00104 147.387 7.00104C147.504 6.98254 147.619 6.97098 147.731 6.96404C147.848 6.95248 147.96 6.94323 148.064 6.93629C148.16 6.93629 148.257 6.93629 148.356 6.93629C148.452 6.93629 148.548 6.93167 148.647 6.91779C148.668 6.91779 148.684 6.91548 148.699 6.90854C148.72 6.90392 148.733 6.89929 148.741 6.89929C148.817 6.88079 148.871 6.85304 148.908 6.81604C148.949 6.77904 148.981 6.72817 149.001 6.65879C149.035 6.53623 149.043 6.39517 149.022 6.23329C149.022 6.11767 149.017 6.00204 149.012 5.89104C149.004 5.77542 148.996 5.65748 148.991 5.53954C148.975 5.49098 148.965 5.44704 148.96 5.41004C148.96 5.36842 148.949 5.32448 148.929 5.28054C148.913 5.22504 148.897 5.17417 148.876 5.12329C148.856 5.06779 148.835 5.01229 148.814 4.95679C148.793 4.89667 148.762 4.84348 148.72 4.79954C148.684 4.75098 148.64 4.70704 148.585 4.67004C148.507 4.60992 148.423 4.55904 148.335 4.52204C148.251 4.48504 148.168 4.45267 148.085 4.42029C148.048 4.40179 148.015 4.39254 147.981 4.39254C147.952 4.39254 147.921 4.39023 147.887 4.38329C147.845 4.38329 147.798 4.38329 147.751 4.38329C147.702 4.38329 147.65 4.38792 147.595 4.39254C147.496 4.39254 147.403 4.40873 147.314 4.43879C147.265 4.45729 147.231 4.46654 147.21 4.46654C146.819 4.60298 146.504 4.84117 146.262 5.17879C146.22 5.22273 146.184 5.27129 146.158 5.32679C146.129 5.37767 146.095 5.42392 146.054 5.46554C146.038 5.49098 146.015 5.51642 145.981 5.53954C145.939 5.59042 145.871 5.61354 145.783 5.61354C145.692 5.61354 145.619 5.59042 145.564 5.53954C145.507 5.49098 145.481 5.43779 145.481 5.38229C145.494 5.33373 145.501 5.28979 145.501 5.25279C145.507 5.21579 145.525 5.17879 145.554 5.14179C145.574 5.09323 145.595 5.05392 145.616 5.02154C145.642 4.98454 145.663 4.94754 145.679 4.91054C145.754 4.79492 145.85 4.67467 145.97 4.54979C145.975 4.54517 145.986 4.53823 146.001 4.53129C146.015 4.51973 146.025 4.50817 146.033 4.49429C146.267 4.26767 146.538 4.10348 146.845 4.00404C146.929 3.98092 147.015 3.95317 147.106 3.92079C147.194 3.88379 147.288 3.85604 147.387 3.83754C147.442 3.82598 147.491 3.80979 147.533 3.79129C147.574 3.77279 147.619 3.75892 147.668 3.74504C147.793 3.70342 147.918 3.67567 148.043 3.66179C148.173 3.64329 148.306 3.63404 148.439 3.63404C148.556 3.63404 148.671 3.63867 148.783 3.64329C148.9 3.65023 149.012 3.65717 149.116 3.66179C149.288 3.66179 149.444 3.68954 149.585 3.74504C149.647 3.77742 149.705 3.80054 149.762 3.81904C149.824 3.83754 149.89 3.85604 149.96 3.87454C150.007 3.89998 150.048 3.92542 150.085 3.94854C150.126 3.96704 150.171 3.98554 150.22 4.00404C150.267 4.04798 150.319 4.08498 150.376 4.11504C150.431 4.14742 150.481 4.18442 150.522 4.22604C150.702 4.35092 150.861 4.49198 151.001 4.65154C151.077 4.72092 151.153 4.81342 151.231 4.92904C151.251 4.96604 151.272 5.00304 151.293 5.04004C151.314 5.07704 151.33 5.12098 151.345 5.16954C151.366 5.23892 151.387 5.30829 151.408 5.38229C151.429 5.45167 151.444 5.51873 151.46 5.58579C151.494 5.69679 151.512 5.81242 151.512 5.92804C151.512 6.08298 151.512 6.24254 151.512 6.40904C151.512 6.57092 151.512 6.73048 151.512 6.89004ZM149.033 8.45329C149.025 8.36773 149.022 8.28217 149.022 8.19429C149.028 8.10873 149.028 8.02317 149.022 7.93529C149.001 7.79423 148.921 7.71329 148.783 7.69479C148.767 7.69479 148.751 7.69248 148.731 7.68554C148.715 7.68092 148.699 7.67629 148.679 7.67629C148.455 7.65779 148.225 7.65779 147.991 7.67629C147.892 7.67629 147.798 7.69248 147.71 7.72254C147.632 7.74798 147.556 7.77573 147.481 7.80579C147.41 7.83817 147.33 7.86129 147.241 7.87979C147.22 7.89829 147.194 7.91679 147.168 7.93529C147.14 7.95379 147.116 7.97229 147.095 7.99079C147.067 8.04167 147.038 8.09254 147.012 8.14804C146.983 8.19892 146.96 8.24979 146.939 8.30529C146.903 8.39317 146.892 8.47642 146.908 8.55504C146.934 8.74698 147.004 8.90654 147.116 9.03604C147.296 9.27654 147.543 9.39679 147.856 9.39679C148.189 9.37829 148.507 9.32279 148.814 9.23029C148.939 9.18867 149.012 9.10079 149.033 8.97129C149.033 8.95279 149.033 8.93892 149.033 8.92504C149.033 8.90654 149.033 8.89267 149.033 8.87879C149.033 8.80479 149.033 8.73542 149.033 8.66604C149.033 8.59204 149.033 8.52267 149.033 8.45329Z" fill="#773810"/>
<path d="M154.82 0.757294C155.013 0.757294 155.201 0.761919 155.383 0.766544C155.563 0.766544 155.74 0.766544 155.914 0.766544C156.024 0.766544 156.117 0.794294 156.195 0.849794C156.222 0.893731 156.248 0.933044 156.268 0.970044C156.289 1.00704 156.305 1.04404 156.32 1.08104C156.32 1.09492 156.32 1.10648 156.32 1.11804C156.32 1.13192 156.32 1.14579 156.32 1.16429C156.326 1.22673 156.331 1.28917 156.331 1.34929C156.331 1.41173 156.331 1.46954 156.331 1.52504C156.331 2.17948 156.347 2.84548 156.383 3.52304C156.383 3.59242 156.414 3.65254 156.477 3.70804C156.544 3.75892 156.617 3.78667 156.695 3.79129C156.722 3.80517 156.753 3.81442 156.789 3.81904C156.823 3.81904 156.854 3.81904 156.883 3.81904C156.979 3.81904 157.076 3.81904 157.175 3.81904C157.271 3.81904 157.375 3.82598 157.487 3.83754C157.534 3.83754 157.583 3.83754 157.633 3.83754C157.68 3.83754 157.727 3.84217 157.768 3.84679C157.823 3.86067 157.878 3.89073 157.935 3.93929C157.99 4.01329 158 4.09423 157.966 4.17979C157.951 4.23067 157.927 4.26767 157.893 4.29079C157.857 4.30929 157.815 4.33242 157.768 4.35554C157.748 4.36248 157.716 4.36479 157.675 4.36479C157.633 4.36479 157.586 4.36942 157.539 4.37404C157.49 4.38098 157.438 4.38329 157.383 4.38329C157.284 4.38329 157.188 4.38329 157.091 4.38329C156.992 4.38329 156.893 4.38329 156.789 4.38329C156.753 4.38329 156.719 4.38792 156.685 4.39254C156.656 4.39254 156.625 4.39254 156.591 4.39254C156.542 4.40642 156.49 4.43417 156.435 4.47579C156.378 4.51973 156.352 4.56829 156.352 4.62379C156.352 4.65617 156.347 4.68623 156.341 4.71629C156.333 4.74173 156.331 4.76948 156.331 4.79954C156.323 4.91054 156.32 5.02617 156.32 5.14179C156.32 5.25279 156.32 5.36842 156.32 5.48404C156.32 5.58348 156.32 5.67598 156.32 5.76154C156.32 5.84248 156.31 5.92573 156.289 6.01129C156.274 6.05523 156.263 6.09917 156.258 6.14079C156.258 6.18473 156.258 6.22867 156.258 6.27029C156.258 6.39517 156.253 6.52004 156.248 6.64954C156.24 6.77904 156.232 6.91317 156.227 7.04729C156.211 7.22073 156.208 7.39648 156.216 7.57454C156.222 7.74798 156.229 7.92142 156.237 8.09254C156.25 8.19198 156.261 8.29142 156.268 8.38854C156.281 8.48798 156.3 8.58973 156.32 8.69379C156.341 8.78167 156.354 8.86723 156.362 8.95279C156.375 9.04067 156.388 9.12623 156.404 9.21179C156.43 9.37367 156.503 9.49623 156.623 9.58179C156.753 9.69973 156.899 9.75754 157.06 9.75754C157.177 9.75754 157.292 9.75754 157.404 9.75754C157.521 9.75754 157.633 9.75754 157.737 9.75754C157.771 9.76448 157.802 9.77142 157.831 9.77604C157.865 9.78298 157.899 9.79454 157.935 9.81304C157.956 9.82692 157.979 9.85929 158.008 9.91479C158.042 9.97029 158.055 10.0073 158.05 10.0258C158.034 10.1137 157.99 10.1969 157.914 10.2755C157.852 10.331 157.779 10.3842 157.695 10.4328C157.646 10.4513 157.602 10.4698 157.56 10.4883C157.518 10.5068 157.477 10.5253 157.435 10.5438C157.393 10.5623 157.347 10.5808 157.3 10.5993C157.258 10.6132 157.211 10.627 157.164 10.6455C157.094 10.6594 157.029 10.671 156.966 10.6825C156.904 10.6964 156.844 10.7103 156.789 10.7288C156.656 10.7612 156.529 10.775 156.404 10.775C156.354 10.775 156.305 10.775 156.258 10.775C156.216 10.775 156.167 10.775 156.112 10.775C156.055 10.775 156.021 10.7704 156.008 10.7565C155.904 10.738 155.792 10.7195 155.675 10.701C155.563 10.6779 155.448 10.6525 155.331 10.627C155.302 10.6224 155.274 10.6132 155.248 10.5993C155.219 10.5808 155.188 10.5692 155.154 10.5623C155.05 10.5137 154.948 10.4675 154.852 10.4235C154.753 10.3819 154.656 10.331 154.56 10.2755C154.399 10.1969 154.261 10.0767 154.143 9.91479C154.094 9.84079 154.052 9.76448 154.018 9.68354C153.982 9.59798 153.94 9.51704 153.893 9.44304C153.886 9.41298 153.883 9.38523 153.883 9.35979C153.883 9.32973 153.875 9.29967 153.862 9.26729C153.854 9.16323 153.847 9.06148 153.841 8.96204C153.833 8.86492 153.831 8.76548 153.831 8.66604C153.831 8.48798 153.826 8.31223 153.82 8.13879C153.82 7.96767 153.82 7.79423 153.82 7.62079C153.82 7.46123 153.794 7.31554 153.748 7.18604C153.727 7.11204 153.711 7.04267 153.706 6.97329C153.706 6.89929 153.698 6.82992 153.685 6.76054C153.685 6.44604 153.685 6.12923 153.685 5.80779C153.685 5.48867 153.685 5.16954 153.685 4.85504C153.685 4.80648 153.68 4.76023 153.675 4.71629C153.675 4.67467 153.667 4.63304 153.654 4.59604C153.633 4.49198 153.573 4.42954 153.477 4.41104C153.414 4.39948 153.347 4.39023 153.279 4.38329C153.216 4.37173 153.154 4.36248 153.091 4.35554C153.034 4.34398 152.979 4.31392 152.925 4.26304C152.875 4.19598 152.865 4.11273 152.893 4.01329C152.927 3.91617 152.987 3.85142 153.07 3.81904C153.167 3.78204 153.261 3.75892 153.352 3.74504C153.378 3.74042 153.409 3.73348 153.445 3.72654C153.479 3.72192 153.511 3.71498 153.539 3.70804C153.56 3.68954 153.576 3.66873 153.591 3.64329C153.612 3.62017 153.628 3.59242 153.643 3.56004C153.664 3.53692 153.675 3.50917 153.675 3.47679C153.675 3.44673 153.675 3.41898 153.675 3.39354C153.675 3.07904 153.675 2.76223 153.675 2.44079C153.675 2.12167 153.675 1.80254 153.675 1.48804C153.675 1.32154 153.604 1.19204 153.466 1.09954C153.451 1.08798 153.44 1.07873 153.435 1.07179C153.427 1.06023 153.419 1.05098 153.414 1.04404C153.393 1.01398 153.388 0.974668 153.404 0.923794C153.417 0.868294 153.448 0.835919 153.498 0.822044C153.56 0.785044 153.617 0.766544 153.675 0.766544C153.867 0.766544 154.06 0.766544 154.248 0.766544C154.44 0.761919 154.633 0.757294 154.82 0.757294Z" fill="#773810"/>
</svg>
